  0
SECTION
  2
HEADER
  9
$ACADVER
  1
AC1027
  9
$ACADMAINTVER
 70
     8
  9
$DWGCODEPAGE
  3
ANSI_1252
  9
$REQUIREDVERSIONS
160
                 0
  9
$INSBASE
 10
0.0
 20
0.0
 30
0.0
  9
$EXTMIN
 10
1.000000000000000E+20
 20
1.000000000000000E+20
 30
1.000000000000000E+20
  9
$EXTMAX
 10
-1.000000000000000E+20
 20
-1.000000000000000E+20
 30
-1.000000000000000E+20
  9
$LIMMIN
 10
0.0
 20
0.0
  9
$LIMMAX
 10
12.0
 20
9.0
  9
$ORTHOMODE
 70
     0
  9
$REGENMODE
 70
     1
  9
$FILLMODE
 70
     1
  9
$QTEXTMODE
 70
     0
  9
$MIRRTEXT
 70
     1
  9
$LTSCALE
 40
1.0
  9
$ATTMODE
 70
     1
  9
$TEXTSIZE
 40
0.2
  9
$TRACEWID
 40
0.05
  9
$TEXTSTYLE
  7
Standard
  9
$CLAYER
  8
epure
  9
$CELTYPE
  6
ByLayer
  9
$CECOLOR
 62
    18
  9
$CELTSCALE
 40
1.0
  9
$DISPSILH
 70
     0
  9
$DIMSCALE
 40
1.0
  9
$DIMASZ
 40
2.5
  9
$DIMEXO
 40
0.625
  9
$DIMDLI
 40
0.38
  9
$DIMRND
 40
0.0
  9
$DIMDLE
 40
0.0
  9
$DIMEXE
 40
1.25
  9
$DIMTP
 40
0.0
  9
$DIMTM
 40
0.0
  9
$DIMTXT
 40
2.5
  9
$DIMCEN
 40
0.09
  9
$DIMTSZ
 40
0.0
  9
$DIMTOL
 70
     0
  9
$DIMLIM
 70
     0
  9
$DIMTIH
 70
     1
  9
$DIMTOH
 70
     1
  9
$DIMSE1
 70
     0
  9
$DIMSE2
 70
     0
  9
$DIMTAD
 70
     0
  9
$DIMZIN
 70
     8
  9
$DIMBLK
  1

  9
$DIMASO
 70
     1
  9
$DIMSHO
 70
     1
  9
$DIMPOST
  1

  9
$DIMAPOST
  1

  9
$DIMALT
 70
     0
  9
$DIMALTD
 70
     2
  9
$DIMALTF
 40
25.4
  9
$DIMLFAC
 40
1.0
  9
$DIMTOFL
 70
     0
  9
$DIMTVP
 40
0.0
  9
$DIMTIX
 70
     0
  9
$DIMSOXD
 70
     0
  9
$DIMSAH
 70
     0
  9
$DIMBLK1
  1

  9
$DIMBLK2
  1

  9
$DIMSTYLE
  2
Standard
  9
$DIMCLRD
 70
    18
  9
$DIMCLRE
 70
    18
  9
$DIMCLRT
 70
    18
  9
$DIMTFAC
 40
1.0
  9
$DIMGAP
 40
0.625
  9
$DIMJUST
 70
     0
  9
$DIMSD1
 70
     0
  9
$DIMSD2
 70
     0
  9
$DIMTOLJ
 70
     1
  9
$DIMTZIN
 70
     0
  9
$DIMALTZ
 70
     0
  9
$DIMALTTZ
 70
     0
  9
$DIMUPT
 70
     0
  9
$DIMDEC
 70
     1
  9
$DIMTDEC
 70
     4
  9
$DIMALTU
 70
     2
  9
$DIMALTTD
 70
     2
  9
$DIMTXSTY
  7
Standard
  9
$DIMAUNIT
 70
     0
  9
$DIMADEC
 70
     1
  9
$DIMALTRND
 40
0.0
  9
$DIMAZIN
 70
     2
  9
$DIMDSEP
 70
    46
  9
$DIMATFIT
 70
     3
  9
$DIMFRAC
 70
     0
  9
$DIMLDRBLK
  1

  9
$DIMLUNIT
 70
     2
  9
$DIMLWD
 70
    -2
  9
$DIMLWE
 70
    -2
  9
$DIMTMOVE
 70
     0
  9
$DIMFXL
 40
1.0
  9
$DIMFXLON
 70
     0
  9
$DIMJOGANG
 40
0.7853981633974483
  9
$DIMTFILL
 70
     0
  9
$DIMTFILLCLR
 70
     0
  9
$DIMARCSYM
 70
     0
  9
$DIMLTYPE
  6

  9
$DIMLTEX1
  6

  9
$DIMLTEX2
  6

  9
$DIMTXTDIRECTION
 70
     0
  9
$LUNITS
 70
     2
  9
$LUPREC
 70
     4
  9
$SKETCHINC
 40
0.1
  9
$FILLETRAD
 40
0.5
  9
$AUNITS
 70
     0
  9
$AUPREC
 70
     0
  9
$MENU
  1
.
  9
$ELEVATION
 40
0.0
  9
$PELEVATION
 40
0.0
  9
$THICKNESS
 40
0.0
  9
$LIMCHECK
 70
     0
  9
$CHAMFERA
 40
0.0
  9
$CHAMFERB
 40
0.0
  9
$CHAMFERC
 40
0.0
  9
$CHAMFERD
 40
0.0
  9
$SKPOLY
 70
     0
  9
$TDCREATE
 40
2458024.99108294
  9
$TDUCREATE
 40
2458024.907749606
  9
$TDUPDATE
 40
2458024.991083183
  9
$TDUUPDATE
 40
2458024.907749849
  9
$TDINDWG
 40
0.0000000116
  9
$TDUSRTIMER
 40
0.0000000116
  9
$USRTIMER
 70
     1
  9
$ANGBASE
 50
0.0
  9
$ANGDIR
 70
     0
  9
$PDMODE
 70
     0
  9
$PDSIZE
 40
0.0
  9
$PLINEWID
 40
0.0
  9
$SPLFRAME
 70
     0
  9
$SPLINETYPE
 70
     6
  9
$SPLINESEGS
 70
     8
  9
$HANDSEED
  5
45E
  9
$SURFTAB1
 70
     6
  9
$SURFTAB2
 70
     6
  9
$SURFTYPE
 70
     6
  9
$SURFU
 70
     6
  9
$SURFV
 70
     6
  9
$UCSBASE
  2

  9
$UCSNAME
  2

  9
$UCSORG
 10
0.0
 20
0.0
 30
0.0
  9
$UCSXDIR
 10
1.0
 20
0.0
 30
0.0
  9
$UCSYDIR
 10
0.0
 20
1.0
 30
0.0
  9
$UCSORTHOREF
  2

  9
$UCSORTHOVIEW
 70
     0
  9
$UCSORGTOP
 10
0.0
 20
0.0
 30
0.0
  9
$UCSORGBOTTOM
 10
0.0
 20
0.0
 30
0.0
  9
$UCSORGLEFT
 10
0.0
 20
0.0
 30
0.0
  9
$UCSORGRIGHT
 10
0.0
 20
0.0
 30
0.0
  9
$UCSORGFRONT
 10
0.0
 20
0.0
 30
0.0
  9
$UCSORGBACK
 10
0.0
 20
0.0
 30
0.0
  9
$PUCSBASE
  2

  9
$PUCSNAME
  2

  9
$PUCSORG
 10
0.0
 20
0.0
 30
0.0
  9
$PUCSXDIR
 10
1.0
 20
0.0
 30
0.0
  9
$PUCSYDIR
 10
0.0
 20
1.0
 30
0.0
  9
$PUCSORTHOREF
  2

  9
$PUCSORTHOVIEW
 70
     0
  9
$PUCSORGTOP
 10
0.0
 20
0.0
 30
0.0
  9
$PUCSORGBOTTOM
 10
0.0
 20
0.0
 30
0.0
  9
$PUCSORGLEFT
 10
0.0
 20
0.0
 30
0.0
  9
$PUCSORGRIGHT
 10
0.0
 20
0.0
 30
0.0
  9
$PUCSORGFRONT
 10
0.0
 20
0.0
 30
0.0
  9
$PUCSORGBACK
 10
0.0
 20
0.0
 30
0.0
  9
$USERI1
 70
     0
  9
$USERI2
 70
     0
  9
$USERI3
 70
     0
  9
$USERI4
 70
     0
  9
$USERI5
 70
     0
  9
$USERR1
 40
0.0
  9
$USERR2
 40
0.0
  9
$USERR3
 40
0.0
  9
$USERR4
 40
0.0
  9
$USERR5
 40
0.0
  9
$WORLDVIEW
 70
     1
  9
$SHADEDGE
 70
     3
  9
$SHADEDIF
 70
    70
  9
$TILEMODE
 70
     1
  9
$MAXACTVP
 70
    32
  9
$PINSBASE
 10
0.0
 20
0.0
 30
0.0
  9
$PLIMCHECK
 70
     0
  9
$PEXTMIN
 10
0.0
 20
0.0
 30
0.0
  9
$PEXTMAX
 10
0.0
 20
0.0
 30
0.0
  9
$PLIMMIN
 10
-20.0
 20
-7.5
  9
$PLIMMAX
 10
277.0
 20
202.5
  9
$UNITMODE
 70
     0
  9
$VISRETAIN
 70
     1
  9
$PLINEGEN
 70
     0
  9
$PSLTSCALE
 70
     1
  9
$TREEDEPTH
 70
  3020
  9
$CMLSTYLE
  2
Standard
  9
$CMLJUST
 70
     0
  9
$CMLSCALE
 40
1.0
  9
$PROXYGRAPHICS
 70
     1
  9
$MEASUREMENT
 70
     1
  9
$CELWEIGHT
370
    -1
  9
$ENDCAPS
280
     0
  9
$JOINSTYLE
280
     0
  9
$LWDISPLAY
290
     0
  9
$INSUNITS
 70
     4
  9
$HYPERLINKBASE
  1

  9
$STYLESHEET
  1

  9
$XEDIT
290
     1
  9
$CEPSNTYPE
380
     0
  9
$PSTYLEMODE
290
     1
  9
$FINGERPRINTGUID
  2
{C4961DD7-1E7A-46D0-B14B-E1583E2DBC60}
  9
$VERSIONGUID
  2
{FAEB1C32-E019-11D5-929B-00C0DF256EC4}
  9
$EXTNAMES
290
     1
  9
$PSVPSCALE
 40
0.0
  9
$OLESTARTUP
290
     0
  9
$SORTENTS
280
   127
  9
$INDEXCTL
280
     0
  9
$HIDETEXT
280
     1
  9
$XCLIPFRAME
280
     2
  9
$HALOGAP
280
     0
  9
$OBSCOLOR
 70
   257
  9
$OBSLTYPE
280
     0
  9
$INTERSECTIONDISPLAY
280
     0
  9
$INTERSECTIONCOLOR
 70
   257
  9
$DIMASSOC
280
     2
  9
$PROJECTNAME
  1

  9
$CAMERADISPLAY
290
     0
  9
$LENSLENGTH
 40
50.0
  9
$CAMERAHEIGHT
 40
0.0
  9
$STEPSPERSEC
 40
2.0
  9
$STEPSIZE
 40
6.0
  9
$3DDWFPREC
 40
2.0
  9
$PSOLWIDTH
 40
0.25
  9
$PSOLHEIGHT
 40
4.0
  9
$LOFTANG1
 40
1.570796326794897
  9
$LOFTANG2
 40
1.570796326794897
  9
$LOFTMAG1
 40
0.0
  9
$LOFTMAG2
 40
0.0
  9
$LOFTPARAM
 70
     7
  9
$LOFTNORMALS
280
     1
  9
$LATITUDE
 40
37.795
  9
$LONGITUDE
 40
-122.394
  9
$NORTHDIRECTION
 40
0.0
  9
$TIMEZONE
 70
 -8000
  9
$LIGHTGLYPHDISPLAY
280
     1
  9
$TILEMODELIGHTSYNCH
280
     1
  9
$CMATERIAL
347
39B
  9
$SOLIDHIST
280
     0
  9
$SHOWHIST
280
     1
  9
$DWFFRAME
280
     2
  9
$DGNFRAME
280
     2
  9
$REALWORLDSCALE
290
     1
  9
$INTERFERECOLOR
 62
   256
  9
$CSHADOW
280
     0
  9
$SHADOWPLANELOCATION
 40
0.0
  0
ENDSEC
  0
SECTION
  2
CLASSES
  0
CLASS
  1
ACDBDICTIONARYWDFLT
  2
AcDbDictionaryWithDefault
  3
ObjectDBX Classes
 90
        0
 91
        4
280
     0
281
     0
  0
CLASS
  1
VISUALSTYLE
  2
AcDbVisualStyle
  3
ObjectDBX Classes
 90
     4095
 91
        4
280
     0
281
     0
  0
CLASS
  1
MATERIAL
  2
AcDbMaterial
  3
ObjectDBX Classes
 90
     1153
 91
        4
280
     0
281
     0
  0
CLASS
  1
SCALE
  2
AcDbScale
  3
ObjectDBX Classes
 90
     1153
 91
        4
280
     0
281
     0
  0
CLASS
  1
TABLESTYLE
  2
AcDbTableStyle
  3
ObjectDBX Classes
 90
     4095
 91
        4
280
     0
281
     0
  0
CLASS
  1
MLEADERSTYLE
  2
AcDbMLeaderStyle
  3
ACDB_MLEADERSTYLE_CLASS
 90
     4095
 91
        4
280
     0
281
     0
  0
CLASS
  1
SUN
  2
AcDbSun
  3
SCENEOE
 90
     1153
 91
        4
280
     0
281
     0
  0
CLASS
  1
DICTIONARYVAR
  2
AcDbDictionaryVar
  3
ObjectDBX Classes
 90
        0
 91
        4
280
     0
281
     0
  0
CLASS
  1
CELLSTYLEMAP
  2
AcDbCellStyleMap
  3
ObjectDBX Classes
 90
     1152
 91
        4
280
     0
281
     0
  0
ENDSEC
  0
SECTION
  2
TABLES
  0
TABLE
  2
VPORT
  5
360
330
0
100
AcDbSymbolTable
 70
     1
  0
VPORT
  5
380
330
360
100
AcDbSymbolTableRecord
100
AcDbViewportTableRecord
  2
*Active
 70
     0
 10
0.0
 20
0.0
 11
1.0
 21
1.0
 12
641.9128232625442
 22
-193.4354643592113
 13
0.0
 23
0.0
 14
0.5
 24
0.5
 15
0.5
 25
0.5
 16
0.0
 26
0.0
 36
1.0
 17
0.0
 27
0.0
 37
0.0
 40
142.4557247529097
 41
2.001512859304085
 42
50.0
 43
0.0
 44
0.0
 50
0.0
 51
0.0
 71
     0
 72
   100
 73
     1
 74
     3
 75
     0
 76
     0
 77
     0
 78
     0
281
     0
 65
     1
110
0.0
120
0.0
130
0.0
111
1.0
121
0.0
131
0.0
112
0.0
122
1.0
132
0.0
 79
     0
146
0.0
 60
     3
 61
     5
292
     1
282
     1
141
0.0
142
0.0
 63
   250
361
3C4
  0
ENDTAB
  0
TABLE
  2
LTYPE
  5
35D
330
0
100
AcDbSymbolTable
 70
    48
  0
LTYPE
  5
36B
330
35D
100
AcDbSymbolTableRecord
100
AcDbLinetypeTableRecord
  2
ByBlock
 70
     0
  3

 72
    65
 73
     0
 40
0.0
  0
LTYPE
  5
36C
330
35D
100
AcDbSymbolTableRecord
100
AcDbLinetypeTableRecord
  2
ByLayer
 70
     0
  3

 72
    65
 73
     0
 40
0.0
  0
LTYPE
  5
36D
330
35D
100
AcDbSymbolTableRecord
100
AcDbLinetypeTableRecord
  2
Continuous
 70
     0
  3
Solid line
 72
    65
 73
     0
 40
0.0
  0
LTYPE
  5
3FC
330
35D
100
AcDbSymbolTableRecord
100
AcDbLinetypeTableRecord
  2
PHANTOM
 70
     0
  3
Phantom ______  __  __  ______  __  __  ______ 
 72
    65
 73
     6
 40
63.50000000000001
 49
31.75
 74
     0
 49
-6.35
 74
     0
 49
6.35
 74
     0
 49
-6.35
 74
     0
 49
6.35
 74
     0
 49
-6.35
 74
     0
  0
LTYPE
  5
3FE
330
35D
100
AcDbSymbolTableRecord
100
AcDbLinetypeTableRecord
  2
HOT_WATER_SUPPLY
 70
     0
  3
Hot water supply ---- HW ---- HW ---- HW ----
 72
    65
 73
     3
 40
22.86
 49
12.7
 74
     0
 49
-5.08
 74
     2
 75
     0
340
3FD
 46
2.54
 50
0.0
 44
-2.54
 45
-1.27
  9
HW
 49
-5.08
 74
     0
  0
LTYPE
  5
3FF
330
35D
100
AcDbSymbolTableRecord
100
AcDbLinetypeTableRecord
  2
HIDDENX2
 70
     0
  3
Hidden (2x) ____ ____ ____ ____ ____ ____ ____ 
 72
    65
 73
     2
 40
19.05
 49
12.7
 74
     0
 49
-6.35
 74
     0
  0
LTYPE
  5
402
330
35D
100
AcDbSymbolTableRecord
100
AcDbLinetypeTableRecord
  2
ZIGZAG
 70
     0
  3
Zig zag /\/\/\/\/\/\/\/\/\/\/\/\/\/\/\/\/\/\/\/\/\/\/\/
 72
    65
 73
     4
 40
20.32254
 49
0.00254
 74
     0
 49
-5.08
 74
     2
 75
     0
340
400
 46
5.08
 50
0.0
 44
-5.08
 45
0.0
  9
ZIG
 49
-10.16
 74
     2
 75
     0
340
401
 46
5.08
 50
180.0
 44
5.08
 45
0.0
  9
ZIG
 49
-5.08
 74
     0
  0
LTYPE
  5
404
330
35D
100
AcDbSymbolTableRecord
100
AcDbLinetypeTableRecord
  2
TRACKS
 70
     0
  3
Tracks -|-|-|-|-|-|-|-|-|-|-|-|-|-|-|-|-|-|-|-|-|-|-|-|-
 72
    65
 73
     2
 40
7.62
 49
3.81
 74
     2
 75
     0
340
403
 46
6.35
 50
0.0
 44
0.0
 45
0.0
  9
TRACK1
 49
3.81
 74
     0
  0
LTYPE
  5
405
330
35D
100
AcDbSymbolTableRecord
100
AcDbLinetypeTableRecord
  2
PHANTOMX2
 70
     0
  3
Phantom (2x) ____________    ____    ____   _
 72
    65
 73
     6
 40
127.0
 49
63.5
 74
     0
 49
-12.7
 74
     0
 49
12.7
 74
     0
 49
-12.7
 74
     0
 49
12.7
 74
     0
 49
-12.7
 74
     0
  0
LTYPE
  5
406
330
35D
100
AcDbSymbolTableRecord
100
AcDbLinetypeTableRecord
  2
ACAD_ISO05W100
 70
     0
  3
ISO long-dash double-dot ____ .. ____ .. ____ . 
 72
    65
 73
     6
 40
33.0
 49
24.0
 74
     0
 49
-3.0
 74
     0
 49
0.0
 74
     0
 49
-3.0
 74
     0
 49
0.0
 74
     0
 49
-3.0
 74
     0
  0
LTYPE
  5
407
330
35D
100
AcDbSymbolTableRecord
100
AcDbLinetypeTableRecord
  2
ACAD_ISO04W100
 70
     0
  3
ISO long-dash dot ____ . ____ . ____ . ____ . _
 72
    65
 73
     4
 40
30.0
 49
24.0
 74
     0
 49
-3.0
 74
     0
 49
0.0
 74
     0
 49
-3.0
 74
     0
  0
LTYPE
  5
408
330
35D
100
AcDbSymbolTableRecord
100
AcDbLinetypeTableRecord
  2
ACAD_ISO03W100
 70
     0
  3
ISO dash space __    __    __    __    __    __
 72
    65
 73
     2
 40
30.0
 49
12.0
 74
     0
 49
-18.0
 74
     0
  0
LTYPE
  5
409
330
35D
100
AcDbSymbolTableRecord
100
AcDbLinetypeTableRecord
  2
ACAD_ISO02W100
 70
     0
  3
ISO dash __ __ __ __ __ __ __ __ __ __ __ __ __
 72
    65
 73
     2
 40
15.0
 49
12.0
 74
     0
 49
-3.0
 74
     0
  0
LTYPE
  5
40A
330
35D
100
AcDbSymbolTableRecord
100
AcDbLinetypeTableRecord
  2
ACAD_ISO09W100
 70
     0
  3
ISO long-dash double-short-dash ____ __ __ ____
 72
    65
 73
     6
 40
45.0
 49
24.0
 74
     0
 49
-3.0
 74
     0
 49
6.0
 74
     0
 49
-3.0
 74
     0
 49
6.0
 74
     0
 49
-3.0
 74
     0
  0
LTYPE
  5
40B
330
35D
100
AcDbSymbolTableRecord
100
AcDbLinetypeTableRecord
  2
ACAD_ISO08W100
 70
     0
  3
ISO long-dash short-dash ____ __ ____ __ ____ _
 72
    65
 73
     4
 40
36.0
 49
24.0
 74
     0
 49
-3.0
 74
     0
 49
6.0
 74
     0
 49
-3.0
 74
     0
  0
LTYPE
  5
40C
330
35D
100
AcDbSymbolTableRecord
100
AcDbLinetypeTableRecord
  2
ACAD_ISO07W100
 70
     0
  3
ISO dot . . . . . . . . . . . . . . . . . . . . 
 72
    65
 73
     2
 40
3.0
 49
0.0
 74
     0
 49
-3.0
 74
     0
  0
LTYPE
  5
40D
330
35D
100
AcDbSymbolTableRecord
100
AcDbLinetypeTableRecord
  2
ACAD_ISO06W100
 70
     0
  3
ISO long-dash triple-dot ____ ... ____ ... ____
 72
    65
 73
     8
 40
36.0
 49
24.0
 74
     0
 49
-3.0
 74
     0
 49
0.0
 74
     0
 49
-3.0
 74
     0
 49
0.0
 74
     0
 49
-3.0
 74
     0
 49
0.0
 74
     0
 49
-3.0
 74
     0
  0
LTYPE
  5
40E
330
35D
100
AcDbSymbolTableRecord
100
AcDbLinetypeTableRecord
  2
ACAD_ISO13W100
 70
     0
  3
ISO double-dash double-dot __ __ . . __ __ . . _
 72
    65
 73
     8
 40
36.0
 49
12.0
 74
     0
 49
-3.0
 74
     0
 49
12.0
 74
     0
 49
-3.0
 74
     0
 49
0.0
 74
     0
 49
-3.0
 74
     0
 49
0.0
 74
     0
 49
-3.0
 74
     0
  0
LTYPE
  5
40F
330
35D
100
AcDbSymbolTableRecord
100
AcDbLinetypeTableRecord
  2
ACAD_ISO12W100
 70
     0
  3
ISO dash double-dot __ . . __ . . __ . . __ . . 
 72
    65
 73
     6
 40
21.0
 49
12.0
 74
     0
 49
-3.0
 74
     0
 49
0.0
 74
     0
 49
-3.0
 74
     0
 49
0.0
 74
     0
 49
-3.0
 74
     0
  0
LTYPE
  5
410
330
35D
100
AcDbSymbolTableRecord
100
AcDbLinetypeTableRecord
  2
ACAD_ISO11W100
 70
     0
  3
ISO double-dash dot __ __ . __ __ . __ __ . __ _
 72
    65
 73
     6
 40
33.0
 49
12.0
 74
     0
 49
-3.0
 74
     0
 49
12.0
 74
     0
 49
-3.0
 74
     0
 49
0.0
 74
     0
 49
-3.0
 74
     0
  0
LTYPE
  5
411
330
35D
100
AcDbSymbolTableRecord
100
AcDbLinetypeTableRecord
  2
ACAD_ISO10W100
 70
     0
  3
ISO dash dot __ . __ . __ . __ . __ . __ . __ . 
 72
    65
 73
     4
 40
18.0
 49
12.0
 74
     0
 49
-3.0
 74
     0
 49
0.0
 74
     0
 49
-3.0
 74
     0
  0
LTYPE
  5
412
330
35D
100
AcDbSymbolTableRecord
100
AcDbLinetypeTableRecord
  2
BORDER
 70
     0
  3
Border __ __ . __ __ . __ __ . __ __ . __ __ .
 72
    65
 73
     6
 40
44.45
 49
12.7
 74
     0
 49
-6.35
 74
     0
 49
12.7
 74
     0
 49
-6.35
 74
     0
 49
0.0
 74
     0
 49
-6.35
 74
     0
  0
LTYPE
  5
415
330
35D
100
AcDbSymbolTableRecord
100
AcDbLinetypeTableRecord
  2
BATTING
 70
     0
  3
Batting SSSSSSSSSSSSSSSSSSSSSSSSSSSSSSSSSSSSSSSSSSSSSSS
 72
    65
 73
     4
 40
10.16254
 49
0.00254
 74
     0
 49
-2.54
 74
     2
 75
     0
340
413
 46
2.54
 50
0.0
 44
-2.54
 45
0.0
  9
BAT
 49
-5.08
 74
     2
 75
     0
340
414
 46
2.54
 50
180.0
 44
2.54
 45
0.0
  9
BAT
 49
-2.54
 74
     0
  0
LTYPE
  5
416
330
35D
100
AcDbSymbolTableRecord
100
AcDbLinetypeTableRecord
  2
ACAD_ISO15W100
 70
     0
  3
ISO double-dash triple-dot __ __ . . . __ __ . .
 72
    65
 73
    10
 40
39.0
 49
12.0
 74
     0
 49
-3.0
 74
     0
 49
12.0
 74
     0
 49
-3.0
 74
     0
 49
0.0
 74
     0
 49
-3.0
 74
     0
 49
0.0
 74
     0
 49
-3.0
 74
     0
 49
0.0
 74
     0
 49
-3.0
 74
     0
  0
LTYPE
  5
417
330
35D
100
AcDbSymbolTableRecord
100
AcDbLinetypeTableRecord
  2
ACAD_ISO14W100
 70
     0
  3
ISO dash triple-dot __ . . . __ . . . __ . . . _
 72
    65
 73
     8
 40
24.0
 49
12.0
 74
     0
 49
-3.0
 74
     0
 49
0.0
 74
     0
 49
-3.0
 74
     0
 49
0.0
 74
     0
 49
-3.0
 74
     0
 49
0.0
 74
     0
 49
-3.0
 74
     0
  0
LTYPE
  5
418
330
35D
100
AcDbSymbolTableRecord
100
AcDbLinetypeTableRecord
  2
CENTER2
 70
     0
  3
Center (.5x) ___ _ ___ _ ___ _ ___ _ ___ _ ___
 72
    65
 73
     4
 40
28.575
 49
19.05
 74
     0
 49
-3.175
 74
     0
 49
3.175
 74
     0
 49
-3.175
 74
     0
  0
LTYPE
  5
419
330
35D
100
AcDbSymbolTableRecord
100
AcDbLinetypeTableRecord
  2
CENTER
 70
     0
  3
Center ____ _ ____ _ ____ _ ____ _ ____ _ ____
 72
    65
 73
     4
 40
50.8
 49
31.75
 74
     0
 49
-6.35
 74
     0
 49
6.35
 74
     0
 49
-6.35
 74
     0
  0
LTYPE
  5
41A
330
35D
100
AcDbSymbolTableRecord
100
AcDbLinetypeTableRecord
  2
BORDERX2
 70
     0
  3
Border (2x) ____  ____  .  ____  ____  .  ___
 72
    65
 73
     6
 40
88.89999999999999
 49
25.4
 74
     0
 49
-12.7
 74
     0
 49
25.4
 74
     0
 49
-12.7
 74
     0
 49
0.0
 74
     0
 49
-12.7
 74
     0
  0
LTYPE
  5
41B
330
35D
100
AcDbSymbolTableRecord
100
AcDbLinetypeTableRecord
  2
BORDER2
 70
     0
  3
Border (.5x) __.__.__.__.__.__.__.__.__.__.__.
 72
    65
 73
     6
 40
22.225
 49
6.35
 74
     0
 49
-3.175
 74
     0
 49
6.35
 74
     0
 49
-3.175
 74
     0
 49
0.0
 74
     0
 49
-3.175
 74
     0
  0
LTYPE
  5
41C
330
35D
100
AcDbSymbolTableRecord
100
AcDbLinetypeTableRecord
  2
DASHDOTX2
 70
     0
  3
Dash dot (2x) ____  .  ____  .  ____  .  ___
 72
    65
 73
     4
 40
50.8
 49
25.4
 74
     0
 49
-12.7
 74
     0
 49
0.0
 74
     0
 49
-12.7
 74
     0
  0
LTYPE
  5
41D
330
35D
100
AcDbSymbolTableRecord
100
AcDbLinetypeTableRecord
  2
DASHDOT2
 70
     0
  3
Dash dot (.5x) _._._._._._._._._._._._._._._.
 72
    65
 73
     4
 40
12.7
 49
6.35
 74
     0
 49
-3.175
 74
     0
 49
0.0
 74
     0
 49
-3.175
 74
     0
  0
LTYPE
  5
41E
330
35D
100
AcDbSymbolTableRecord
100
AcDbLinetypeTableRecord
  2
DASHDOT
 70
     0
  3
Dash dot __ . __ . __ . __ . __ . __ . __ . __
 72
    65
 73
     4
 40
25.4
 49
12.7
 74
     0
 49
-6.35
 74
     0
 49
0.0
 74
     0
 49
-6.35
 74
     0
  0
LTYPE
  5
41F
330
35D
100
AcDbSymbolTableRecord
100
AcDbLinetypeTableRecord
  2
CENTERX2
 70
     0
  3
Center (2x) ________  __  ________  __  _____
 72
    65
 73
     4
 40
101.6
 49
63.5
 74
     0
 49
-12.7
 74
     0
 49
12.7
 74
     0
 49
-12.7
 74
     0
  0
LTYPE
  5
420
330
35D
100
AcDbSymbolTableRecord
100
AcDbLinetypeTableRecord
  2
DIVIDE
 70
     0
  3
Divide ____ . . ____ . . ____ . . ____ . . ____
 72
    65
 73
     6
 40
31.75
 49
12.7
 74
     0
 49
-6.35
 74
     0
 49
0.0
 74
     0
 49
-6.35
 74
     0
 49
0.0
 74
     0
 49
-6.35
 74
     0
  0
LTYPE
  5
421
330
35D
100
AcDbSymbolTableRecord
100
AcDbLinetypeTableRecord
  2
DASHEDX2
 70
     0
  3
Dashed (2x) ____  ____  ____  ____  ____  ___
 72
    65
 73
     2
 40
38.09999999999999
 49
25.4
 74
     0
 49
-12.7
 74
     0
  0
LTYPE
  5
422
330
35D
100
AcDbSymbolTableRecord
100
AcDbLinetypeTableRecord
  2
DASHED2
 70
     0
  3
Dashed (.5x) _ _ _ _ _ _ _ _ _ _ _ _ _ _ _ _ _ 
 72
    65
 73
     2
 40
9.524999999999999
 49
6.35
 74
     0
 49
-3.175
 74
     0
  0
LTYPE
  5
423
330
35D
100
AcDbSymbolTableRecord
100
AcDbLinetypeTableRecord
  2
DASHED
 70
     0
  3
Dashed __ __ __ __ __ __ __ __ __ __ __ __ __ _
 72
    65
 73
     2
 40
19.05
 49
12.7
 74
     0
 49
-6.35
 74
     0
  0
LTYPE
  5
424
330
35D
100
AcDbSymbolTableRecord
100
AcDbLinetypeTableRecord
  2
DOT2
 70
     0
  3
Dot (.5x) ........................................
 72
    65
 73
     2
 40
3.175
 49
0.0
 74
     0
 49
-3.175
 74
     0
  0
LTYPE
  5
425
330
35D
100
AcDbSymbolTableRecord
100
AcDbLinetypeTableRecord
  2
DOT
 70
     0
  3
Dot . . . . . . . . . . . . . . . . . . . . . . . .
 72
    65
 73
     2
 40
6.35
 49
0.0
 74
     0
 49
-6.35
 74
     0
  0
LTYPE
  5
426
330
35D
100
AcDbSymbolTableRecord
100
AcDbLinetypeTableRecord
  2
DIVIDEX2
 70
     0
  3
Divide (2x) ________  .  .  ________  .  .  _
 72
    65
 73
     6
 40
63.5
 49
25.4
 74
     0
 49
-12.7
 74
     0
 49
0.0
 74
     0
 49
-12.7
 74
     0
 49
0.0
 74
     0
 49
-12.7
 74
     0
  0
LTYPE
  5
427
330
35D
100
AcDbSymbolTableRecord
100
AcDbLinetypeTableRecord
  2
DIVIDE2
 70
     0
  3
Divide (.5x) __..__..__..__..__..__..__..__.._
 72
    65
 73
     6
 40
15.875
 49
6.35
 74
     0
 49
-3.175
 74
     0
 49
0.0
 74
     0
 49
-3.175
 74
     0
 49
0.0
 74
     0
 49
-3.175
 74
     0
  0
LTYPE
  5
429
330
35D
100
AcDbSymbolTableRecord
100
AcDbLinetypeTableRecord
  2
FENCELINE1
 70
     0
  3
Fenceline circle ----0-----0----0-----0----0-----0--
 72
    65
 73
     4
 40
36.83
 49
6.35
 74
     0
 49
-2.54
 74
     2
 75
     0
340
428
 46
2.54
 50
0.0
 44
-2.54
 45
0.0
  9
CIRC1
 49
-2.54
 74
     0
 49
25.4
 74
     0
  0
LTYPE
  5
42B
330
35D
100
AcDbSymbolTableRecord
100
AcDbLinetypeTableRecord
  2
DRAINAGE2
 70
     0
  3
Drainage reversed----<----<----<----
 72
    65
 73
     2
 40
10.16
 49
5.08
 74
     2
 75
     0
340
42A
 46
2.54
 50
0.0
 44
0.0
 45
0.0
  9
RIGHT_ARROW
 49
5.08
 74
     0
  0
LTYPE
  5
42D
330
35D
100
AcDbSymbolTableRecord
100
AcDbLinetypeTableRecord
  2
DRAINAGE
 70
     0
  3
Drainage ---->---->---->----
 72
    65
 73
     2
 40
10.16
 49
5.08
 74
     2
 75
     0
340
42C
 46
2.54
 50
180.0
 44
0.0
 45
0.0
  9
RIGHT_ARROW
 49
5.08
 74
     0
  0
LTYPE
  5
42E
330
35D
100
AcDbSymbolTableRecord
100
AcDbLinetypeTableRecord
  2
DOTX2
 70
     0
  3
Dot (2x) .  .  .  .  .  .  .  .  .  .  .  .  .  .
 72
    65
 73
     2
 40
12.7
 49
0.0
 74
     0
 49
-12.7
 74
     0
  0
LTYPE
  5
42F
330
35D
100
AcDbSymbolTableRecord
100
AcDbLinetypeTableRecord
  2
HIDDEN2
 70
     0
  3
Hidden (.5x) _ _ _ _ _ _ _ _ _ _ _ _ _ _ _ _ _ 
 72
    65
 73
     2
 40
4.762499999999999
 49
3.175
 74
     0
 49
-1.5875
 74
     0
  0
LTYPE
  5
430
330
35D
100
AcDbSymbolTableRecord
100
AcDbLinetypeTableRecord
  2
HIDDEN
 70
     0
  3
Hidden __ __ __ __ __ __ __ __ __ __ __ __ __ __
 72
    65
 73
     2
 40
9.524999999999999
 49
6.35
 74
     0
 49
-3.175
 74
     0
  0
LTYPE
  5
432
330
35D
100
AcDbSymbolTableRecord
100
AcDbLinetypeTableRecord
  2
GAS_LINE
 70
     0
  3
Gas line ----GAS----GAS----GAS----GAS----GAS----GAS--
 72
    65
 73
     3
 40
24.13
 49
12.7
 74
     0
 49
-5.08
 74
     2
 75
     0
340
431
 46
2.54
 50
0.0
 44
-2.54
 45
-1.27
  9
GAS
 49
-6.35
 74
     0
  0
LTYPE
  5
434
330
35D
100
AcDbSymbolTableRecord
100
AcDbLinetypeTableRecord
  2
FENCELINE2
 70
     0
  3
Fenceline square ----[]-----[]----[]-----[]----[]---
 72
    65
 73
     4
 40
36.83
 49
6.35
 74
     0
 49
-2.54
 74
     2
 75
     0
340
433
 46
2.54
 50
0.0
 44
-2.54
 45
0.0
  9
BOX
 49
-2.54
 74
     0
 49
25.4
 74
     0
  0
LTYPE
  5
435
330
35D
100
AcDbSymbolTableRecord
100
AcDbLinetypeTableRecord
  2
PHANTOM2
 70
     0
  3
Phantom (.5x) ___ _ _ ___ _ _ ___ _ _ ___ _ _
 72
    65
 73
     6
 40
31.75
 49
15.875
 74
     0
 49
-3.175
 74
     0
 49
3.175
 74
     0
 49
-3.175
 74
     0
 49
3.175
 74
     0
 49
-3.175
 74
     0
  0
ENDTAB
  0
TABLE
  2
LAYER
  5
35A
330
0
100
AcDbSymbolTable
 70
     6
  0
LAYER
  5
368
330
35A
100
AcDbSymbolTableRecord
100
AcDbLayerTableRecord
  2
0
 70
     0
 62
     7
420
 16777215
  6
Continuous
370
    25
390
367
347
39D
348
0
  0
LAYER
  5
436
330
35A
100
AcDbSymbolTableRecord
100
AcDbLayerTableRecord
  2
Defpoints
 70
     0
 62
     7
420
 16777215
  6
Continuous
290
     0
370
    -3
390
367
347
39D
348
0
  0
LAYER
  5
437
330
35A
100
AcDbSymbolTableRecord
100
AcDbLayerTableRecord
  2
epure
 70
     0
 62
     1
420
 16711680
  6
ACAD_ISO02W100
370
    40
390
367
347
39D
348
0
  0
LAYER
  5
438
330
35A
100
AcDbSymbolTableRecord
100
AcDbLayerTableRecord
  2
leds rouges
 70
     0
 62
     1
420
 16711680
  6
Continuous
370
    25
390
367
347
39D
348
0
  0
LAYER
  5
439
330
35A
100
AcDbSymbolTableRecord
100
AcDbLayerTableRecord
  2
leds vertes
 70
     0
 62
     3
420
    65280
  6
Continuous
370
    25
390
367
347
39D
348
0
  0
LAYER
  5
43A
330
35A
100
AcDbSymbolTableRecord
100
AcDbLayerTableRecord
  2
cotes
 70
     0
 62
     5
420
      255
  6
Continuous
370
    25
390
367
347
39D
348
0
  0
ENDTAB
  0
TABLE
  2
STYLE
  5
35B
330
0
100
AcDbSymbolTable
 70
    25
  0
STYLE
  5
369
330
35B
100
AcDbSymbolTableRecord
100
AcDbTextStyleTableRecord
  2
Standard
 70
     0
 40
0.0
 41
1.0
 50
0.0
 71
     0
 42
0.2
  3
txt
  4

  0
STYLE
  5
3FA
330
35B
100
AcDbSymbolTableRecord
100
AcDbTextStyleTableRecord
  2
QCADDimTextStyle
 70
     0
 40
0.0
 41
1.0
 50
0.0
 71
     0
 42
0.2
  3
txt
  4

  0
STYLE
  5
3FD
330
35B
100
AcDbSymbolTableRecord
100
AcDbTextStyleTableRecord
  2
textstyle0
 70
     0
 40
0.0
 41
1.0
 50
0.0
 71
     0
 42
0.2
  3
STANDARD
  4

  0
STYLE
  5
400
330
35B
100
AcDbSymbolTableRecord
100
AcDbTextStyleTableRecord
  2
textstyle1
 70
     0
 40
0.0
 41
1.0
 50
0.0
 71
     0
 42
0.2
  3
ltypeshp.shx
  4

  0
STYLE
  5
401
330
35B
100
AcDbSymbolTableRecord
100
AcDbTextStyleTableRecord
  2
textstyle2
 70
     0
 40
0.0
 41
1.0
 50
0.0
 71
     0
 42
0.2
  3
ltypeshp.shx
  4

  0
STYLE
  5
403
330
35B
100
AcDbSymbolTableRecord
100
AcDbTextStyleTableRecord
  2
textstyle3
 70
     0
 40
0.0
 41
1.0
 50
0.0
 71
     0
 42
0.2
  3
ltypeshp.shx
  4

  0
STYLE
  5
413
330
35B
100
AcDbSymbolTableRecord
100
AcDbTextStyleTableRecord
  2
textstyle4
 70
     0
 40
0.0
 41
1.0
 50
0.0
 71
     0
 42
0.2
  3
ltypeshp.shx
  4

  0
STYLE
  5
414
330
35B
100
AcDbSymbolTableRecord
100
AcDbTextStyleTableRecord
  2
textstyle5
 70
     0
 40
0.0
 41
1.0
 50
0.0
 71
     0
 42
0.2
  3
ltypeshp.shx
  4

  0
STYLE
  5
428
330
35B
100
AcDbSymbolTableRecord
100
AcDbTextStyleTableRecord
  2
textstyle6
 70
     0
 40
0.0
 41
1.0
 50
0.0
 71
     0
 42
0.2
  3
ltypeshp.shx
  4

  0
STYLE
  5
42A
330
35B
100
AcDbSymbolTableRecord
100
AcDbTextStyleTableRecord
  2
textstyle7
 70
     0
 40
0.0
 41
1.0
 50
0.0
 71
     0
 42
0.2
  3
qcadshp.shx
  4

  0
STYLE
  5
42C
330
35B
100
AcDbSymbolTableRecord
100
AcDbTextStyleTableRecord
  2
textstyle8
 70
     0
 40
0.0
 41
1.0
 50
0.0
 71
     0
 42
0.2
  3
qcadshp.shx
  4

  0
STYLE
  5
431
330
35B
100
AcDbSymbolTableRecord
100
AcDbTextStyleTableRecord
  2
textstyle9
 70
     0
 40
0.0
 41
1.0
 50
0.0
 71
     0
 42
0.2
  3
STANDARD
  4

  0
STYLE
  5
433
330
35B
100
AcDbSymbolTableRecord
100
AcDbTextStyleTableRecord
  2
textstyle10
 70
     0
 40
0.0
 41
1.0
 50
0.0
 71
     0
 42
0.2
  3
ltypeshp.shx
  4

  0
STYLE
  5
449
330
35B
100
AcDbSymbolTableRecord
100
AcDbTextStyleTableRecord
  2
textstyle11
 70
     0
 40
0.0
 41
1.0
 50
0.0
 71
     0
 42
0.2
  3

  4

1001
ACAD
1000
Arial
1071
        0
  0
STYLE
  5
44A
330
35B
100
AcDbSymbolTableRecord
100
AcDbTextStyleTableRecord
  2
textstyle12
 70
     0
 40
0.0
 41
1.0
 50
0.0
 71
     0
 42
0.2
  3

  4

1001
ACAD
1000
Arial
1071
        0
  0
STYLE
  5
44B
330
35B
100
AcDbSymbolTableRecord
100
AcDbTextStyleTableRecord
  2
textstyle13
 70
     0
 40
0.0
 41
1.0
 50
0.0
 71
     0
 42
0.2
  3

  4

1001
ACAD
1000
Arial
1071
        0
  0
STYLE
  5
44C
330
35B
100
AcDbSymbolTableRecord
100
AcDbTextStyleTableRecord
  2
textstyle14
 70
     0
 40
0.0
 41
1.0
 50
0.0
 71
     0
 42
0.2
  3

  4

1001
ACAD
1000
Arial
1071
        0
  0
STYLE
  5
44D
330
35B
100
AcDbSymbolTableRecord
100
AcDbTextStyleTableRecord
  2
textstyle15
 70
     0
 40
0.0
 41
1.0
 50
0.0
 71
     0
 42
0.2
  3

  4

1001
ACAD
1000
Arial
1071
        0
  0
STYLE
  5
44E
330
35B
100
AcDbSymbolTableRecord
100
AcDbTextStyleTableRecord
  2
textstyle16
 70
     0
 40
0.0
 41
1.0
 50
0.0
 71
     0
 42
0.2
  3

  4

1001
ACAD
1000
Arial
1071
        0
  0
STYLE
  5
44F
330
35B
100
AcDbSymbolTableRecord
100
AcDbTextStyleTableRecord
  2
textstyle17
 70
     0
 40
0.0
 41
1.0
 50
0.0
 71
     0
 42
0.2
  3

  4

1001
ACAD
1000
Arial
1071
        0
  0
STYLE
  5
450
330
35B
100
AcDbSymbolTableRecord
100
AcDbTextStyleTableRecord
  2
textstyle18
 70
     0
 40
0.0
 41
1.0
 50
0.0
 71
     0
 42
0.2
  3

  4

1001
ACAD
1000
Arial
1071
        0
  0
STYLE
  5
451
330
35B
100
AcDbSymbolTableRecord
100
AcDbTextStyleTableRecord
  2
textstyle19
 70
     0
 40
0.0
 41
1.0
 50
0.0
 71
     0
 42
0.2
  3

  4

1001
ACAD
1000
Arial
1071
        0
  0
STYLE
  5
452
330
35B
100
AcDbSymbolTableRecord
100
AcDbTextStyleTableRecord
  2
textstyle20
 70
     0
 40
0.0
 41
1.0
 50
0.0
 71
     0
 42
0.2
  3

  4

1001
ACAD
1000
Arial
1071
        0
  0
STYLE
  5
453
330
35B
100
AcDbSymbolTableRecord
100
AcDbTextStyleTableRecord
  2
textstyle21
 70
     0
 40
0.0
 41
1.0
 50
0.0
 71
     0
 42
0.2
  3

  4

1001
ACAD
1000
Arial
1071
        0
  0
STYLE
  5
454
330
35B
100
AcDbSymbolTableRecord
100
AcDbTextStyleTableRecord
  2
textstyle22
 70
     0
 40
0.0
 41
1.0
 50
0.0
 71
     0
 42
0.2
  3

  4

1001
ACAD
1000
Arial
1071
        0
  0
ENDTAB
  0
TABLE
  2
VIEW
  5
35E
330
0
100
AcDbSymbolTable
 70
     0
  0
ENDTAB
  0
TABLE
  2
UCS
  5
35F
330
0
100
AcDbSymbolTable
 70
     0
  0
ENDTAB
  0
TABLE
  2
APPID
  5
361
330
0
100
AcDbSymbolTable
 70
     2
  0
APPID
  5
36A
330
361
100
AcDbSymbolTableRecord
100
AcDbRegAppTableRecord
  2
ACAD
 70
     0
  0
APPID
  5
3C5
330
361
100
AcDbSymbolTableRecord
100
AcDbRegAppTableRecord
  2
QCAD
 70
     0
  0
ENDTAB
  0
TABLE
  2
DIMSTYLE
  5
362
330
0
100
AcDbSymbolTable
 70
     2
100
AcDbDimStyleTable
  0
DIMSTYLE
105
37E
330
362
100
AcDbSymbolTableRecord
100
AcDbDimStyleTableRecord
  2
Standard
 70
     0
178
     0
340
369
  0
DIMSTYLE
105
3FB
102
{ACAD_REACTORS
330
E3
330
B2
330
31D
330
10D
330
E4
330
333
330
2CD
330
2B0
330
293
330
276
330
24E
330
B3
330
2E4
330
2C7
330
2AA
330
28D
330
270
102
}
330
362
100
AcDbSymbolTableRecord
100
AcDbDimStyleTableRecord
  2
QCADDimStyle
 70
     0
 41
2.5
 42
0.625
 44
1.25
 73
     0
 77
     1
140
2.5
147
0.625
178
     0
340
3FA
  0
ENDTAB
  0
TABLE
  2
BLOCK_RECORD
  5
359
330
0
100
AcDbSymbolTable
 70
     5
  0
BLOCK_RECORD
  5
376
330
359
100
AcDbSymbolTableRecord
100
AcDbBlockTableRecord
  2
*Model_Space
340
379
 70
     0
280
     1
281
     0
  0
BLOCK_RECORD
  5
372
330
359
100
AcDbSymbolTableRecord
100
AcDbBlockTableRecord
  2
*Paper_Space
340
375
 70
     0
280
     1
281
     0
  0
BLOCK_RECORD
  5
43B
330
359
100
AcDbSymbolTableRecord
100
AcDbBlockTableRecord
  2
lame
340
0
102
{BLKREFS
331
31B
331
10B
331
E2
331
332
331
2CC
331
2AF
331
292
331
275
331
24D
331
AF
102
}
 70
     0
280
     1
281
     0
  0
BLOCK_RECORD
  5
43E
330
359
100
AcDbSymbolTableRecord
100
AcDbBlockTableRecord
  2
led
340
0
102
{BLKREFS
331
31E
331
31F
331
320
331
BC
331
334
331
250
331
BA
331
34C
331
335
331
295
331
278
331
251
331
BB
102
}
 70
     0
280
     1
281
     0
  0
BLOCK_RECORD
  5
441
330
359
100
AcDbSymbolTableRecord
100
AcDbBlockTableRecord
  2
leds
340
0
102
{BLKREFS
331
31A
331
10A
331
E1
331
331
331
2CB
331
2AE
331
291
331
274
331
24C
331
A8
102
}
 70
     0
280
     1
281
     0
  0
BLOCK_RECORD
  5
444
330
359
100
AcDbSymbolTableRecord
100
AcDbBlockTableRecord
  2
lame2
340
0
 70
     0
280
     1
281
     0
  0
ENDTAB
  0
ENDSEC
  0
SECTION
  2
BLOCKS
  0
BLOCK
  5
377
330
376
100
AcDbEntity
  8
0
100
AcDbBlockBegin
  2
*Model_Space
 70
     0
 10
0.0
 20
0.0
 30
0.0
  3
*Model_Space
  1
*Model_Space
  0
ENDBLK
  5
378
330
376
100
AcDbEntity
  8
0
100
AcDbBlockEnd
  0
BLOCK
  5
373
330
372
100
AcDbEntity
 67
     1
  8
0
100
AcDbBlockBegin
  2
*Paper_Space
 70
     0
 10
0.0
 20
0.0
 30
0.0
  3
*Paper_Space
  1
*Paper_Space
  0
ENDBLK
  5
374
330
372
100
AcDbEntity
 67
     1
  8
0
100
AcDbBlockEnd
  0
BLOCK
  5
43C
330
43B
100
AcDbEntity
  8
0
100
AcDbBlockBegin
  2
lame
 70
     0
 10
0.0
 20
0.0
 30
0.0
  3
lame
  1
lame
  0
LINE
  5
A9
330
43B
100
AcDbEntity
  8
0
100
AcDbLine
 10
0.0
 20
-25.0
 30
0.0
 11
8.0
 21
-25.0
 31
0.0
  0
LINE
  5
AA
330
43B
100
AcDbEntity
  8
0
100
AcDbLine
 10
8.0
 20
-25.0
 30
0.0
 11
8.0
 21
25.0
 31
0.0
  0
LINE
  5
AB
330
43B
100
AcDbEntity
  8
0
100
AcDbLine
 10
8.0
 20
25.0
 30
0.0
 11
0.0
 21
25.0
 31
0.0
  0
LINE
  5
AC
330
43B
100
AcDbEntity
  8
0
100
AcDbLine
 10
0.0
 20
25.0
 30
0.0
 11
0.0
 21
-25.0
 31
0.0
  0
LINE
  5
AD
330
43B
100
AcDbEntity
  8
0
  6
ACAD_ISO08W100
100
AcDbLine
 10
-20.0
 20
0.0
 30
0.0
 11
28.0
 21
0.0
 31
0.0
  0
ENDBLK
  5
43D
330
43B
100
AcDbEntity
  8
0
100
AcDbBlockEnd
  0
BLOCK
  5
43F
330
43E
100
AcDbEntity
  8
0
100
AcDbBlockBegin
  2
led
 70
     0
 10
0.0
 20
0.0
 30
0.0
  3
led
  1
led
  0
CIRCLE
  5
B4
330
43E
100
AcDbEntity
  8
leds rouges
100
AcDbCircle
 10
0.0
 20
0.0
 30
0.0
 40
1.999999999999993
  0
HATCH
  5
20F
330
43E
100
AcDbEntity
  8
leds rouges
100
AcDbHatch
 10
0.0
 20
0.0
 30
0.0
210
0.0
220
0.0
230
1.0
  2
SOLID
 70
     1
 71
     0
 91
        1
 92
        0
 93
        1
 72
     2
 10
0.0
 20
0.0
 40
1.999999999999993
 50
0.0
 51
360.0
 73
     1
 97
        0
 75
     0
 76
     1
 98
        0
  0
ENDBLK
  5
440
330
43E
100
AcDbEntity
  8
0
100
AcDbBlockEnd
  0
BLOCK
  5
442
330
441
100
AcDbEntity
  8
0
100
AcDbBlockBegin
  2
leds
 70
     0
 10
0.0
 20
0.0
 30
0.0
  3
leds
  1
leds
  0
CIRCLE
  5
A4
330
441
100
AcDbEntity
  8
leds vertes
100
AcDbCircle
 10
30.0
 20
0.0
 30
0.0
 40
2.0
  0
CIRCLE
  5
A5
330
441
100
AcDbEntity
  8
leds vertes
100
AcDbCircle
 10
35.0
 20
0.0
 30
0.0
 40
2.0
  0
CIRCLE
  5
A6
330
441
100
AcDbEntity
  8
leds vertes
100
AcDbCircle
 10
40.0
 20
0.0
 30
0.0
 40
2.0
  0
CIRCLE
  5
A0
330
441
100
AcDbEntity
  8
leds vertes
100
AcDbCircle
 10
10.0
 20
0.0
 30
0.0
 40
2.0
  0
CIRCLE
  5
A1
330
441
100
AcDbEntity
  8
leds rouges
100
AcDbCircle
 10
15.0
 20
0.0
 30
0.0
 40
2.0
  0
CIRCLE
  5
A2
330
441
100
AcDbEntity
  8
leds rouges
100
AcDbCircle
 10
20.0
 20
0.0
 30
0.0
 40
2.0
  0
CIRCLE
  5
A3
330
441
100
AcDbEntity
  8
leds rouges
100
AcDbCircle
 10
25.0
 20
0.0
 30
0.0
 40
2.0
  0
CIRCLE
  5
9E
330
441
100
AcDbEntity
  8
leds vertes
100
AcDbCircle
 10
0.0
 20
0.0
 30
0.0
 40
2.0
  0
CIRCLE
  5
9F
330
441
100
AcDbEntity
  8
leds vertes
100
AcDbCircle
 10
5.0
 20
0.0
 30
0.0
 40
2.0
  0
ENDBLK
  5
443
330
441
100
AcDbEntity
  8
0
100
AcDbBlockEnd
  0
BLOCK
  5
445
330
444
100
AcDbEntity
  8
0
100
AcDbBlockBegin
  2
lame2
 70
     0
 10
0.0
 20
0.0
 30
0.0
  3
lame2
  1
lame2
  0
ENDBLK
  5
446
330
444
100
AcDbEntity
  8
0
100
AcDbBlockEnd
  0
ENDSEC
  0
SECTION
  2
ENTITIES
  0
LINE
  5
2FB
330
376
100
AcDbEntity
  8
0
100
AcDbLine
 10
437.4744606964179
 20
53.15103650546013
 30
0.0
 11
437.4744606964179
 21
45.15103650546013
 31
0.0
  0
LINE
  5
F4
330
376
100
AcDbEntity
  8
0
100
AcDbLine
 10
316.6470430862718
 20
53.15103650546013
 30
0.0
 11
316.6470430862718
 21
45.15103650546013
 31
0.0
  0
LINE
  5
2FC
330
376
100
AcDbEntity
  8
0
100
AcDbLine
 10
445.4744606964179
 20
53.15103650546013
 30
0.0
 11
445.4744606964179
 21
45.15103650546013
 31
0.0
  0
LINE
  5
F5
330
376
100
AcDbEntity
  8
0
100
AcDbLine
 10
324.6470430862718
 20
53.15103650546013
 30
0.0
 11
324.6470430862718
 21
45.15103650546013
 31
0.0
  0
LINE
  5
2FD
330
376
100
AcDbEntity
  8
0
100
AcDbLine
 10
453.4744606964179
 20
53.15103650546013
 30
0.0
 11
453.4744606964179
 21
45.15103650546013
 31
0.0
  0
LINE
  5
F6
330
376
100
AcDbEntity
  8
0
100
AcDbLine
 10
332.6470430862718
 20
53.15103650546013
 30
0.0
 11
332.6470430862718
 21
45.15103650546013
 31
0.0
  0
LINE
  5
2FE
330
376
100
AcDbEntity
  8
0
100
AcDbLine
 10
461.4744606964179
 20
53.15103650546013
 30
0.0
 11
461.4744606964179
 21
45.15103650546013
 31
0.0
  0
LINE
  5
F7
330
376
100
AcDbEntity
  8
0
100
AcDbLine
 10
340.6470430862718
 20
53.15103650546013
 30
0.0
 11
340.6470430862718
 21
45.15103650546013
 31
0.0
  0
LINE
  5
2FF
330
376
100
AcDbEntity
  8
0
100
AcDbLine
 10
429.4744606964179
 20
53.15103650546013
 30
0.0
 11
429.4744606964179
 21
45.15103650546013
 31
0.0
  0
LINE
  5
F0
330
376
100
AcDbEntity
  8
0
100
AcDbLine
 10
308.6470430862718
 20
53.15103650546013
 30
0.0
 11
308.6470430862718
 21
45.15103650546013
 31
0.0
  0
LINE
  5
300
330
376
100
AcDbEntity
  8
0
100
AcDbLine
 10
517.474460696418
 20
53.15103650546013
 30
0.0
 11
517.474460696418
 21
45.15103650546013
 31
0.0
  0
LINE
  5
F1
330
376
100
AcDbEntity
  8
0
100
AcDbLine
 10
396.6470430862718
 20
53.15103650546013
 30
0.0
 11
396.6470430862718
 21
45.15103650546013
 31
0.0
  0
LINE
  5
301
330
376
100
AcDbEntity
  8
0
100
AcDbLine
 10
421.4744606964179
 20
53.15103650546013
 30
0.0
 11
421.4744606964179
 21
45.15103650546013
 31
0.0
  0
LINE
  5
F2
330
376
100
AcDbEntity
  8
0
100
AcDbLine
 10
300.6470430862718
 20
53.15103650546013
 30
0.0
 11
300.6470430862718
 21
45.15103650546013
 31
0.0
  0
LINE
  5
302
330
376
100
AcDbEntity
  8
0
100
AcDbLine
 10
501.4744606964178
 20
53.15103650546013
 30
0.0
 11
501.4744606964178
 21
45.15103650546013
 31
0.0
  0
LINE
  5
F3
330
376
100
AcDbEntity
  8
0
100
AcDbLine
 10
380.6470430862717
 20
53.15103650546013
 30
0.0
 11
380.6470430862717
 21
45.15103650546013
 31
0.0
  0
LINE
  5
303
330
376
100
AcDbEntity
  8
0
100
AcDbLine
 10
509.4744606964178
 20
53.15103650546013
 30
0.0
 11
509.4744606964178
 21
45.15103650546013
 31
0.0
  0
LINE
  5
EC
330
376
100
AcDbEntity
  8
0
100
AcDbLine
 10
388.6470430862717
 20
53.15103650546013
 30
0.0
 11
388.6470430862717
 21
45.15103650546013
 31
0.0
  0
LINE
  5
304
330
376
100
AcDbEntity
  8
0
100
AcDbLine
 10
469.4744606964179
 20
53.15103650546013
 30
0.0
 11
469.4744606964179
 21
45.15103650546013
 31
0.0
  0
LINE
  5
ED
330
376
100
AcDbEntity
  8
0
100
AcDbLine
 10
348.6470430862718
 20
53.15103650546013
 30
0.0
 11
348.6470430862718
 21
45.15103650546013
 31
0.0
  0
LINE
  5
305
330
376
100
AcDbEntity
  8
0
100
AcDbLine
 10
477.4744606964179
 20
53.15103650546013
 30
0.0
 11
477.4744606964179
 21
45.15103650546013
 31
0.0
  0
LINE
  5
EE
330
376
100
AcDbEntity
  8
0
100
AcDbLine
 10
356.6470430862718
 20
53.15103650546013
 30
0.0
 11
356.6470430862718
 21
45.15103650546013
 31
0.0
  0
LINE
  5
306
330
376
100
AcDbEntity
  8
0
100
AcDbLine
 10
485.4744606964179
 20
53.15103650546013
 30
0.0
 11
485.4744606964179
 21
45.15103650546013
 31
0.0
  0
LINE
  5
EF
330
376
100
AcDbEntity
  8
0
100
AcDbLine
 10
364.6470430862718
 20
53.15103650546013
 30
0.0
 11
364.6470430862718
 21
45.15103650546013
 31
0.0
  0
LINE
  5
307
330
376
100
AcDbEntity
  8
0
100
AcDbLine
 10
493.4744606964179
 20
53.15103650546013
 30
0.0
 11
493.4744606964179
 21
45.15103650546013
 31
0.0
  0
LINE
  5
EB
330
376
100
AcDbEntity
  8
0
100
AcDbLine
 10
372.6470430862718
 20
53.15103650546013
 30
0.0
 11
372.6470430862718
 21
45.15103650546013
 31
0.0
  0
LINE
  5
CC
330
376
100
AcDbEntity
  8
0
100
AcDbLine
 10
203.9108004878044
 20
53.15103650546013
 30
0.0
 11
203.9108004878044
 21
45.15103650546013
 31
0.0
  0
LINE
  5
CD
330
376
100
AcDbEntity
  8
0
100
AcDbLine
 10
211.9108004878044
 20
53.15103650546013
 30
0.0
 11
211.9108004878044
 21
45.15103650546013
 31
0.0
  0
LINE
  5
CE
330
376
100
AcDbEntity
  8
0
100
AcDbLine
 10
219.9108004878044
 20
53.15103650546013
 30
0.0
 11
219.9108004878044
 21
45.15103650546013
 31
0.0
  0
LINE
  5
C8
330
376
100
AcDbEntity
  8
0
100
AcDbLine
 10
275.9108004878044
 20
53.15103650546013
 30
0.0
 11
275.9108004878044
 21
45.15103650546013
 31
0.0
  0
LINE
  5
C9
330
376
100
AcDbEntity
  8
0
100
AcDbLine
 10
179.9108004878044
 20
53.15103650546013
 30
0.0
 11
179.9108004878044
 21
45.15103650546013
 31
0.0
  0
LINE
  5
CA
330
376
100
AcDbEntity
  8
0
100
AcDbLine
 10
259.9108004878043
 20
53.15103650546013
 30
0.0
 11
259.9108004878043
 21
45.15103650546013
 31
0.0
  0
LINE
  5
CB
330
376
100
AcDbEntity
  8
0
100
AcDbLine
 10
195.9108004878044
 20
53.15103650546013
 30
0.0
 11
195.9108004878044
 21
45.15103650546013
 31
0.0
  0
LINE
  5
C4
330
376
100
AcDbEntity
  8
0
100
AcDbLine
 10
227.9108004878044
 20
53.15103650546013
 30
0.0
 11
227.9108004878044
 21
45.15103650546013
 31
0.0
  0
LINE
  5
C5
330
376
100
AcDbEntity
  8
0
100
AcDbLine
 10
235.9108004878044
 20
53.15103650546013
 30
0.0
 11
235.9108004878044
 21
45.15103650546013
 31
0.0
  0
LINE
  5
C6
330
376
100
AcDbEntity
  8
0
100
AcDbLine
 10
243.9108004878044
 20
53.15103650546013
 30
0.0
 11
243.9108004878044
 21
45.15103650546013
 31
0.0
  0
LINE
  5
C7
330
376
100
AcDbEntity
  8
0
100
AcDbLine
 10
187.9108004878044
 20
53.15103650546013
 30
0.0
 11
187.9108004878044
 21
45.15103650546013
 31
0.0
  0
LINE
  5
C2
330
376
100
AcDbEntity
  8
0
100
AcDbLine
 10
251.9108004878044
 20
53.15103650546013
 30
0.0
 11
251.9108004878044
 21
45.15103650546013
 31
0.0
  0
LINE
  5
C3
330
376
100
AcDbEntity
  8
0
100
AcDbLine
 10
267.9108004878043
 20
53.15103650546013
 30
0.0
 11
267.9108004878043
 21
45.15103650546013
 31
0.0
  0
LINE
  5
78
330
376
100
AcDbEntity
  8
0
100
AcDbLine
 10
135.6912864425605
 20
53.15103650546013
 30
0.0
 11
135.6912864425605
 21
45.15103650546013
 31
0.0
  0
LINE
  5
79
330
376
100
AcDbEntity
  8
0
100
AcDbLine
 10
143.6912864425605
 20
53.15103650546013
 30
0.0
 11
143.6912864425605
 21
45.15103650546013
 31
0.0
  0
LINE
  5
74
330
376
100
AcDbEntity
  8
0
100
AcDbLine
 10
103.6912864425606
 20
53.15103650546013
 30
0.0
 11
103.6912864425606
 21
45.15103650546013
 31
0.0
  0
LINE
  5
75
330
376
100
AcDbEntity
  8
0
100
AcDbLine
 10
111.6912864425606
 20
53.15103650546013
 30
0.0
 11
111.6912864425606
 21
45.15103650546013
 31
0.0
  0
LINE
  5
76
330
376
100
AcDbEntity
  8
0
100
AcDbLine
 10
119.6912864425606
 20
53.15103650546013
 30
0.0
 11
119.6912864425606
 21
45.15103650546013
 31
0.0
  0
LINE
  5
77
330
376
100
AcDbEntity
  8
0
100
AcDbLine
 10
127.6912864425606
 20
53.15103650546013
 30
0.0
 11
127.6912864425606
 21
45.15103650546013
 31
0.0
  0
LINE
  5
70
330
376
100
AcDbEntity
  8
0
100
AcDbLine
 10
71.6912864425606
 20
53.15103650546013
 30
0.0
 11
71.6912864425606
 21
45.15103650546013
 31
0.0
  0
LINE
  5
71
330
376
100
AcDbEntity
  8
0
100
AcDbLine
 10
79.6912864425606
 20
53.15103650546013
 30
0.0
 11
79.6912864425606
 21
45.15103650546013
 31
0.0
  0
LINE
  5
72
330
376
100
AcDbEntity
  8
0
100
AcDbLine
 10
87.6912864425606
 20
53.15103650546013
 30
0.0
 11
87.6912864425606
 21
45.15103650546013
 31
0.0
  0
LINE
  5
73
330
376
100
AcDbEntity
  8
0
100
AcDbLine
 10
95.6912864425606
 20
53.15103650546013
 30
0.0
 11
95.6912864425606
 21
45.15103650546013
 31
0.0
  0
LINE
  5
6F
330
376
100
AcDbEntity
  8
0
100
AcDbLine
 10
63.69128644256062
 20
53.15103650546013
 30
0.0
 11
63.69128644256062
 21
45.15103650546013
 31
0.0
  0
LINE
  5
69
330
376
100
AcDbEntity
  8
0
100
AcDbLine
 10
151.6912864425606
 20
53.15103650546008
 30
0.0
 11
151.6912864425606
 21
45.15103650546013
 31
0.0
  0
LINE
  5
39
330
376
100
AcDbEntity
  8
0
100
AcDbLine
 10
55.69128644256062
 20
53.15103650546013
 30
0.0
 11
55.69128644256062
 21
45.15103650546013
 31
0.0
  0
LINE
  5
308
330
376
100
AcDbEntity
  8
0
100
AcDbLine
 10
421.4744606964179
 20
45.15103650546013
 30
0.0
 11
413.4744606964179
 21
45.15103650546013
 31
0.0
  0
LINE
  5
F8
330
376
100
AcDbEntity
  8
0
100
AcDbLine
 10
300.6470430862718
 20
45.15103650546013
 30
0.0
 11
292.6470430862718
 21
45.15103650546013
 31
0.0
  0
LINE
  5
CF
330
376
100
AcDbEntity
  8
0
100
AcDbLine
 10
179.9108004878044
 20
45.15103650546013
 30
0.0
 11
171.9108004878044
 21
45.15103650546013
 31
0.0
  0
LINE
  5
3A
330
376
100
AcDbEntity
  8
0
100
AcDbLine
 10
55.69128644256062
 20
45.15103650546013
 30
0.0
 11
47.69128644256062
 21
45.15103650546013
 31
0.0
  0
LINE
  5
309
330
376
100
AcDbEntity
  8
0
100
AcDbLine
 10
413.4744606964179
 20
45.15103650546013
 30
0.0
 11
413.4744606964179
 21
53.15103650546013
 31
0.0
  0
LINE
  5
F9
330
376
100
AcDbEntity
  8
0
100
AcDbLine
 10
292.6470430862718
 20
45.15103650546013
 30
0.0
 11
292.6470430862718
 21
53.15103650546013
 31
0.0
  0
LINE
  5
D0
330
376
100
AcDbEntity
  8
0
100
AcDbLine
 10
171.9108004878044
 20
45.15103650546013
 30
0.0
 11
171.9108004878044
 21
53.15103650546013
 31
0.0
  0
LINE
  5
3B
330
376
100
AcDbEntity
  8
0
100
AcDbLine
 10
47.69128644256062
 20
45.15103650546013
 30
0.0
 11
47.69128644256062
 21
53.15103650546013
 31
0.0
  0
LINE
  5
30A
330
376
100
AcDbEntity
  8
0
100
AcDbLine
 10
413.4744606964179
 20
53.15103650546013
 30
0.0
 11
413.4744606964179
 21
83.15103650546013
 31
0.0
  0
LINE
  5
FA
330
376
100
AcDbEntity
  8
0
100
AcDbLine
 10
292.6470430862718
 20
53.15103650546013
 30
0.0
 11
292.6470430862718
 21
83.15103650546013
 31
0.0
  0
LINE
  5
D1
330
376
100
AcDbEntity
  8
0
100
AcDbLine
 10
171.9108004878044
 20
53.15103650546013
 30
0.0
 11
171.9108004878044
 21
83.15103650546013
 31
0.0
  0
LINE
  5
32E
330
376
100
AcDbEntity
  8
0
100
AcDbLine
 10
641.0253668333964
 20
-176.8798751950078
 30
0.0
 11
641.0253668333964
 21
-146.8798751950078
 31
0.0
  0
LINE
  5
2C8
330
376
100
AcDbEntity
  8
0
100
AcDbLine
 10
520.8880837126488
 20
-176.8798751950078
 30
0.0
 11
520.8880837126488
 21
-146.8798751950078
 31
0.0
  0
LINE
  5
2AB
330
376
100
AcDbEntity
  8
0
100
AcDbLine
 10
389.5807514193571
 20
-176.8798751950078
 30
0.0
 11
389.5807514193571
 21
-146.8798751950078
 31
0.0
  0
LINE
  5
28E
330
376
100
AcDbEntity
  8
0
100
AcDbLine
 10
262.0004949871317
 20
-176.8798751950078
 30
0.0
 11
262.0004949871317
 21
-146.8798751950078
 31
0.0
  0
LINE
  5
271
330
376
100
AcDbEntity
  8
0
100
AcDbLine
 10
136.4312984840163
 20
-176.8798751950078
 30
0.0
 11
136.4312984840163
 21
-146.8798751950078
 31
0.0
  0
LINE
  5
227
330
376
100
AcDbEntity
  8
0
100
AcDbLine
 10
10.8621019809008
 20
-176.8798751950078
 30
0.0
 11
10.8621019809008
 21
-146.8798751950078
 31
0.0
  0
LINE
  5
6C
330
376
100
AcDbEntity
  8
0
100
AcDbLine
 10
47.69128644256062
 20
53.15103650546013
 30
0.0
 11
47.69128644256062
 21
83.15103650546013
 31
0.0
  0
LINE
  5
30B
330
376
100
AcDbEntity
  8
0
100
AcDbLine
 10
517.474460696418
 20
53.15103650546013
 30
0.0
 11
517.474460696418
 21
83.15103650546013
 31
0.0
  0
LINE
  5
FB
330
376
100
AcDbEntity
  8
0
100
AcDbLine
 10
396.6470430862718
 20
53.15103650546013
 30
0.0
 11
396.6470430862718
 21
83.15103650546013
 31
0.0
  0
LINE
  5
D2
330
376
100
AcDbEntity
  8
0
100
AcDbLine
 10
275.9108004878044
 20
53.15103650546013
 30
0.0
 11
275.9108004878044
 21
83.15103650546013
 31
0.0
  0
LINE
  5
32F
330
376
100
AcDbEntity
  8
0
100
AcDbLine
 10
737.0253668333964
 20
-176.8798751950078
 30
0.0
 11
737.0253668333964
 21
-146.8798751950078
 31
0.0
  0
LINE
  5
2C9
330
376
100
AcDbEntity
  8
0
100
AcDbLine
 10
616.8880837126488
 20
-176.8798751950078
 30
0.0
 11
616.8880837126488
 21
-146.8798751950078
 31
0.0
  0
LINE
  5
2AC
330
376
100
AcDbEntity
  8
0
100
AcDbLine
 10
485.5807514193571
 20
-176.8798751950078
 30
0.0
 11
485.5807514193572
 21
-146.8798751950078
 31
0.0
  0
LINE
  5
28F
330
376
100
AcDbEntity
  8
0
100
AcDbLine
 10
358.0004949871318
 20
-176.8798751950078
 30
0.0
 11
358.0004949871318
 21
-146.8798751950078
 31
0.0
  0
LINE
  5
272
330
376
100
AcDbEntity
  8
0
100
AcDbLine
 10
232.4312984840163
 20
-176.8798751950078
 30
0.0
 11
232.4312984840163
 21
-146.8798751950078
 31
0.0
  0
LINE
  5
228
330
376
100
AcDbEntity
  8
0
100
AcDbLine
 10
106.8621019809008
 20
-176.8798751950078
 30
0.0
 11
106.8621019809008
 21
-146.8798751950078
 31
0.0
  0
LINE
  5
6D
330
376
100
AcDbEntity
  8
0
100
AcDbLine
 10
151.6912864425606
 20
53.15103650546008
 30
0.0
 11
151.6912864425606
 21
83.15103650546013
 31
0.0
  0
LINE
  5
30C
330
376
100
AcDbEntity
  8
0
100
AcDbLine
 10
517.474460696418
 20
83.15103650546013
 30
0.0
 11
413.4744606964179
 21
83.15103650546013
 31
0.0
  0
LINE
  5
FC
330
376
100
AcDbEntity
  8
0
100
AcDbLine
 10
396.6470430862718
 20
83.15103650546013
 30
0.0
 11
292.6470430862718
 21
83.15103650546013
 31
0.0
  0
LINE
  5
D3
330
376
100
AcDbEntity
  8
0
100
AcDbLine
 10
275.9108004878044
 20
83.15103650546013
 30
0.0
 11
171.9108004878044
 21
83.15103650546013
 31
0.0
  0
LINE
  5
330
330
376
100
AcDbEntity
  8
0
100
AcDbLine
 10
737.0253668333964
 20
-146.8798751950078
 30
0.0
 11
641.0253668333964
 21
-146.8798751950078
 31
0.0
  0
LINE
  5
2CA
330
376
100
AcDbEntity
  8
0
100
AcDbLine
 10
616.8880837126488
 20
-146.8798751950078
 30
0.0
 11
520.8880837126488
 21
-146.8798751950078
 31
0.0
  0
LINE
  5
2AD
330
376
100
AcDbEntity
  8
0
100
AcDbLine
 10
485.5807514193572
 20
-146.8798751950078
 30
0.0
 11
389.5807514193571
 21
-146.8798751950078
 31
0.0
  0
LINE
  5
290
330
376
100
AcDbEntity
  8
0
100
AcDbLine
 10
358.0004949871318
 20
-146.8798751950078
 30
0.0
 11
262.0004949871317
 21
-146.8798751950078
 31
0.0
  0
LINE
  5
273
330
376
100
AcDbEntity
  8
0
100
AcDbLine
 10
232.4312984840163
 20
-146.8798751950078
 30
0.0
 11
136.4312984840163
 21
-146.8798751950078
 31
0.0
  0
LINE
  5
229
330
376
100
AcDbEntity
  8
0
100
AcDbLine
 10
106.8621019809008
 20
-146.8798751950078
 30
0.0
 11
10.8621019809008
 21
-146.8798751950078
 31
0.0
  0
LINE
  5
6E
330
376
100
AcDbEntity
  8
0
100
AcDbLine
 10
151.6912864425606
 20
83.15103650546013
 30
0.0
 11
47.69128644256062
 21
83.15103650546013
 31
0.0
  0
LINE
  5
30D
330
376
100
AcDbEntity
  8
0
100
AcDbLine
 10
421.4744606964179
 20
53.15103650546013
 30
0.0
 11
429.4744606964179
 21
53.15103650546013
 31
0.0
  0
LINE
  5
100
330
376
100
AcDbEntity
  8
0
100
AcDbLine
 10
300.6470430862718
 20
53.15103650546013
 30
0.0
 11
308.6470430862718
 21
53.15103650546013
 31
0.0
  0
LINE
  5
30E
330
376
100
AcDbEntity
  8
0
100
AcDbLine
 10
501.4744606964178
 20
53.15103650546013
 30
0.0
 11
509.4744606964178
 21
53.15103650546013
 31
0.0
  0
LINE
  5
101
330
376
100
AcDbEntity
  8
0
100
AcDbLine
 10
380.6470430862717
 20
53.15103650546013
 30
0.0
 11
388.6470430862717
 21
53.15103650546013
 31
0.0
  0
LINE
  5
30F
330
376
100
AcDbEntity
  8
0
100
AcDbLine
 10
437.4744606964179
 20
53.15103650546013
 30
0.0
 11
445.4744606964179
 21
53.15103650546013
 31
0.0
  0
LINE
  5
102
330
376
100
AcDbEntity
  8
0
100
AcDbLine
 10
316.6470430862718
 20
53.15103650546013
 30
0.0
 11
324.6470430862718
 21
53.15103650546013
 31
0.0
  0
LINE
  5
310
330
376
100
AcDbEntity
  8
0
100
AcDbLine
 10
453.4744606964179
 20
53.15103650546013
 30
0.0
 11
461.4744606964179
 21
53.15103650546013
 31
0.0
  0
LINE
  5
FD
330
376
100
AcDbEntity
  8
0
100
AcDbLine
 10
332.6470430862718
 20
53.15103650546013
 30
0.0
 11
340.6470430862718
 21
53.15103650546013
 31
0.0
  0
LINE
  5
311
330
376
100
AcDbEntity
  8
0
100
AcDbLine
 10
469.4744606964179
 20
53.15103650546013
 30
0.0
 11
477.4744606964179
 21
53.15103650546013
 31
0.0
  0
LINE
  5
FE
330
376
100
AcDbEntity
  8
0
100
AcDbLine
 10
348.6470430862718
 20
53.15103650546013
 30
0.0
 11
356.6470430862718
 21
53.15103650546013
 31
0.0
  0
LINE
  5
312
330
376
100
AcDbEntity
  8
0
100
AcDbLine
 10
485.4744606964178
 20
53.15103650546013
 30
0.0
 11
493.4744606964178
 21
53.15103650546013
 31
0.0
  0
LINE
  5
FF
330
376
100
AcDbEntity
  8
0
100
AcDbLine
 10
364.6470430862717
 20
53.15103650546013
 30
0.0
 11
372.6470430862717
 21
53.15103650546013
 31
0.0
  0
LINE
  5
D8
330
376
100
AcDbEntity
  8
0
100
AcDbLine
 10
259.9108004878043
 20
53.15103650546013
 30
0.0
 11
267.9108004878043
 21
53.15103650546013
 31
0.0
  0
LINE
  5
D9
330
376
100
AcDbEntity
  8
0
100
AcDbLine
 10
195.9108004878044
 20
53.15103650546013
 30
0.0
 11
203.9108004878044
 21
53.15103650546013
 31
0.0
  0
LINE
  5
D4
330
376
100
AcDbEntity
  8
0
100
AcDbLine
 10
211.9108004878044
 20
53.15103650546013
 30
0.0
 11
219.9108004878044
 21
53.15103650546013
 31
0.0
  0
LINE
  5
D5
330
376
100
AcDbEntity
  8
0
100
AcDbLine
 10
227.9108004878044
 20
53.15103650546013
 30
0.0
 11
235.9108004878044
 21
53.15103650546013
 31
0.0
  0
LINE
  5
D6
330
376
100
AcDbEntity
  8
0
100
AcDbLine
 10
243.9108004878043
 20
53.15103650546013
 30
0.0
 11
251.9108004878043
 21
53.15103650546013
 31
0.0
  0
LINE
  5
D7
330
376
100
AcDbEntity
  8
0
100
AcDbLine
 10
179.9108004878044
 20
53.15103650546013
 30
0.0
 11
187.9108004878044
 21
53.15103650546013
 31
0.0
  0
LINE
  5
8C
330
376
100
AcDbEntity
  8
0
100
AcDbLine
 10
135.6912864425605
 20
53.15103650546013
 30
0.0
 11
143.6912864425605
 21
53.15103650546013
 31
0.0
  0
LINE
  5
88
330
376
100
AcDbEntity
  8
0
100
AcDbLine
 10
71.6912864425606
 20
53.15103650546013
 30
0.0
 11
79.6912864425606
 21
53.15103650546013
 31
0.0
  0
LINE
  5
89
330
376
100
AcDbEntity
  8
0
100
AcDbLine
 10
87.6912864425606
 20
53.15103650546013
 30
0.0
 11
95.6912864425606
 21
53.15103650546013
 31
0.0
  0
LINE
  5
8A
330
376
100
AcDbEntity
  8
0
100
AcDbLine
 10
103.6912864425606
 20
53.15103650546013
 30
0.0
 11
111.6912864425606
 21
53.15103650546013
 31
0.0
  0
LINE
  5
8B
330
376
100
AcDbEntity
  8
0
100
AcDbLine
 10
119.6912864425605
 20
53.15103650546013
 30
0.0
 11
127.6912864425606
 21
53.15103650546013
 31
0.0
  0
LINE
  5
7B
330
376
100
AcDbEntity
  8
0
100
AcDbLine
 10
55.69128644256062
 20
53.15103650546013
 30
0.0
 11
63.69128644256062
 21
53.15103650546013
 31
0.0
  0
LINE
  5
313
330
376
100
AcDbEntity
  8
0
100
AcDbLine
 10
509.4744606964178
 20
45.15103650546013
 30
0.0
 11
517.4744606964177
 21
45.15103650546013
 31
0.0
  0
LINE
  5
108
330
376
100
AcDbEntity
  8
0
100
AcDbLine
 10
388.6470430862717
 20
45.15103650546013
 30
0.0
 11
396.6470430862717
 21
45.15103650546013
 31
0.0
  0
LINE
  5
314
330
376
100
AcDbEntity
  8
0
100
AcDbLine
 10
445.4744606964179
 20
45.15103650546013
 30
0.0
 11
453.4744606964179
 21
45.15103650546013
 31
0.0
  0
LINE
  5
104
330
376
100
AcDbEntity
  8
0
100
AcDbLine
 10
324.6470430862718
 20
45.15103650546013
 30
0.0
 11
332.6470430862718
 21
45.15103650546013
 31
0.0
  0
LINE
  5
315
330
376
100
AcDbEntity
  8
0
100
AcDbLine
 10
461.4744606964179
 20
45.15103650546013
 30
0.0
 11
469.4744606964179
 21
45.15103650546013
 31
0.0
  0
LINE
  5
105
330
376
100
AcDbEntity
  8
0
100
AcDbLine
 10
340.6470430862718
 20
45.15103650546013
 30
0.0
 11
348.6470430862718
 21
45.15103650546013
 31
0.0
  0
LINE
  5
316
330
376
100
AcDbEntity
  8
0
100
AcDbLine
 10
477.4744606964179
 20
45.15103650546013
 30
0.0
 11
485.4744606964179
 21
45.15103650546013
 31
0.0
  0
LINE
  5
106
330
376
100
AcDbEntity
  8
0
100
AcDbLine
 10
356.6470430862718
 20
45.15103650546013
 30
0.0
 11
364.6470430862718
 21
45.15103650546013
 31
0.0
  0
LINE
  5
317
330
376
100
AcDbEntity
  8
0
100
AcDbLine
 10
493.4744606964179
 20
45.15103650546013
 30
0.0
 11
501.4744606964178
 21
45.15103650546013
 31
0.0
  0
LINE
  5
107
330
376
100
AcDbEntity
  8
0
100
AcDbLine
 10
372.6470430862718
 20
45.15103650546013
 30
0.0
 11
380.6470430862717
 21
45.15103650546013
 31
0.0
  0
LINE
  5
318
330
376
100
AcDbEntity
  8
0
100
AcDbLine
 10
429.4744606964179
 20
45.15103650546013
 30
0.0
 11
437.4744606964179
 21
45.15103650546013
 31
0.0
  0
LINE
  5
103
330
376
100
AcDbEntity
  8
0
100
AcDbLine
 10
308.6470430862718
 20
45.15103650546013
 30
0.0
 11
316.6470430862718
 21
45.15103650546013
 31
0.0
  0
LINE
  5
DC
330
376
100
AcDbEntity
  8
0
100
AcDbLine
 10
219.9108004878044
 20
45.15103650546013
 30
0.0
 11
227.9108004878044
 21
45.15103650546013
 31
0.0
  0
LINE
  5
DD
330
376
100
AcDbEntity
  8
0
100
AcDbLine
 10
235.9108004878044
 20
45.15103650546013
 30
0.0
 11
243.9108004878044
 21
45.15103650546013
 31
0.0
  0
LINE
  5
DE
330
376
100
AcDbEntity
  8
0
100
AcDbLine
 10
251.9108004878044
 20
45.15103650546013
 30
0.0
 11
259.9108004878043
 21
45.15103650546013
 31
0.0
  0
LINE
  5
DF
330
376
100
AcDbEntity
  8
0
100
AcDbLine
 10
267.9108004878043
 20
45.15103650546013
 30
0.0
 11
275.9108004878043
 21
45.15103650546013
 31
0.0
  0
LINE
  5
DA
330
376
100
AcDbEntity
  8
0
100
AcDbLine
 10
187.9108004878044
 20
45.15103650546013
 30
0.0
 11
195.9108004878044
 21
45.15103650546013
 31
0.0
  0
LINE
  5
DB
330
376
100
AcDbEntity
  8
0
100
AcDbLine
 10
203.9108004878044
 20
45.15103650546013
 30
0.0
 11
211.9108004878044
 21
45.15103650546013
 31
0.0
  0
LINE
  5
90
330
376
100
AcDbEntity
  8
0
100
AcDbLine
 10
95.6912864425606
 20
45.15103650546013
 30
0.0
 11
103.6912864425606
 21
45.15103650546013
 31
0.0
  0
LINE
  5
91
330
376
100
AcDbEntity
  8
0
100
AcDbLine
 10
111.6912864425606
 20
45.15103650546013
 30
0.0
 11
119.6912864425606
 21
45.15103650546013
 31
0.0
  0
LINE
  5
92
330
376
100
AcDbEntity
  8
0
100
AcDbLine
 10
127.6912864425606
 20
45.15103650546013
 30
0.0
 11
135.6912864425605
 21
45.15103650546013
 31
0.0
  0
LINE
  5
93
330
376
100
AcDbEntity
  8
0
100
AcDbLine
 10
143.6912864425605
 20
45.15103650546013
 30
0.0
 11
151.6912864425605
 21
45.15103650546013
 31
0.0
  0
LINE
  5
8E
330
376
100
AcDbEntity
  8
0
100
AcDbLine
 10
63.69128644256062
 20
45.15103650546013
 30
0.0
 11
71.6912864425606
 21
45.15103650546013
 31
0.0
  0
LINE
  5
8F
330
376
100
AcDbEntity
  8
0
100
AcDbLine
 10
79.6912864425606
 20
45.15103650546013
 30
0.0
 11
87.6912864425606
 21
45.15103650546013
 31
0.0
  0
HATCH
  5
319
330
376
100
AcDbEntity
  8
0
100
AcDbHatch
 10
0.0
 20
0.0
 30
0.0
210
0.0
220
0.0
230
1.0
  2
ANSI31
 70
     0
 71
     0
 91
        1
 92
        0
 93
       30
 72
     1
 10
477.4744606964179
 20
53.15103650546013
 11
477.4744606964179
 21
45.15103650546013
 72
     1
 10
477.4744606964179
 20
45.15103650546013
 11
485.4744606964179
 21
45.15103650546013
 72
     1
 10
485.4744606964179
 20
45.15103650546013
 11
485.4744606964179
 21
53.15103650546013
 72
     1
 10
485.4744606964179
 20
53.15103650546013
 11
493.4744606964178
 21
53.15103650546013
 72
     1
 10
493.4744606964178
 20
53.15103650546013
 11
493.4744606964179
 21
45.15103650546013
 72
     1
 10
493.4744606964179
 20
45.15103650546013
 11
501.4744606964178
 21
45.15103650546013
 72
     1
 10
501.4744606964178
 20
45.15103650546013
 11
501.4744606964178
 21
53.15103650546013
 72
     1
 10
501.4744606964178
 20
53.15103650546013
 11
509.4744606964178
 21
53.15103650546013
 72
     1
 10
509.4744606964178
 20
53.15103650546013
 11
509.4744606964178
 21
45.15103650546013
 72
     1
 10
509.4744606964178
 20
45.15103650546013
 11
517.4744606964177
 21
45.15103650546013
 72
     1
 10
517.4744606964177
 20
45.15103650546013
 11
517.474460696418
 21
53.15103650546013
 72
     1
 10
517.474460696418
 20
53.15103650546013
 11
517.474460696418
 21
83.15103650546013
 72
     1
 10
517.474460696418
 20
83.15103650546013
 11
413.4744606964179
 21
83.15103650546013
 72
     1
 10
413.4744606964179
 20
83.15103650546013
 11
413.4744606964179
 21
53.15103650546013
 72
     1
 10
413.4744606964179
 20
53.15103650546013
 11
413.4744606964179
 21
45.15103650546013
 72
     1
 10
413.4744606964179
 20
45.15103650546013
 11
421.4744606964179
 21
45.15103650546013
 72
     1
 10
421.4744606964179
 20
45.15103650546013
 11
421.4744606964179
 21
53.15103650546013
 72
     1
 10
421.4744606964179
 20
53.15103650546013
 11
429.4744606964179
 21
53.15103650546013
 72
     1
 10
429.4744606964179
 20
53.15103650546013
 11
429.4744606964179
 21
45.15103650546013
 72
     1
 10
429.4744606964179
 20
45.15103650546013
 11
437.4744606964179
 21
45.15103650546013
 72
     1
 10
437.4744606964179
 20
45.15103650546013
 11
437.4744606964179
 21
53.15103650546013
 72
     1
 10
437.4744606964179
 20
53.15103650546013
 11
445.4744606964179
 21
53.15103650546013
 72
     1
 10
445.4744606964179
 20
53.15103650546013
 11
445.4744606964179
 21
45.15103650546013
 72
     1
 10
445.4744606964179
 20
45.15103650546013
 11
453.4744606964179
 21
45.15103650546013
 72
     1
 10
453.4744606964179
 20
45.15103650546013
 11
453.4744606964179
 21
53.15103650546013
 72
     1
 10
453.4744606964179
 20
53.15103650546013
 11
461.4744606964179
 21
53.15103650546013
 72
     1
 10
461.4744606964179
 20
53.15103650546013
 11
461.4744606964179
 21
45.15103650546013
 72
     1
 10
461.4744606964179
 20
45.15103650546013
 11
469.4744606964179
 21
45.15103650546013
 72
     1
 10
469.4744606964179
 20
45.15103650546013
 11
469.4744606964179
 21
53.15103650546013
 72
     1
 10
469.4744606964179
 20
53.15103650546013
 11
477.4744606964179
 21
53.15103650546013
 97
        0
 75
     0
 76
     0
 52
0.0
 41
1.0
 77
     0
 78
     1
 53
45.0
 43
0.0
 44
0.0
 45
-2.245064030267288
 46
2.245064030267288
 79
     0
 98
        0
  0
HATCH
  5
2F6
330
376
100
AcDbEntity
  8
0
100
AcDbHatch
 10
0.0
 20
0.0
 30
0.0
210
0.0
220
0.0
230
1.0
  2
ANSI31
 70
     0
 71
     0
 91
        1
 92
        0
 93
       30
 72
     1
 10
356.6470430862718
 20
53.15103650546013
 11
356.6470430862718
 21
45.15103650546013
 72
     1
 10
356.6470430862718
 20
45.15103650546013
 11
364.6470430862718
 21
45.15103650546013
 72
     1
 10
364.6470430862718
 20
45.15103650546013
 11
364.6470430862718
 21
53.15103650546013
 72
     1
 10
364.6470430862718
 20
53.15103650546013
 11
372.6470430862717
 21
53.15103650546013
 72
     1
 10
372.6470430862717
 20
53.15103650546013
 11
372.6470430862718
 21
45.15103650546013
 72
     1
 10
372.6470430862718
 20
45.15103650546013
 11
380.6470430862717
 21
45.15103650546013
 72
     1
 10
380.6470430862717
 20
45.15103650546013
 11
380.6470430862717
 21
53.15103650546013
 72
     1
 10
380.6470430862717
 20
53.15103650546013
 11
388.6470430862717
 21
53.15103650546013
 72
     1
 10
388.6470430862717
 20
53.15103650546013
 11
388.6470430862717
 21
45.15103650546013
 72
     1
 10
388.6470430862717
 20
45.15103650546013
 11
396.6470430862717
 21
45.15103650546013
 72
     1
 10
396.6470430862717
 20
45.15103650546013
 11
396.6470430862718
 21
53.15103650546013
 72
     1
 10
396.6470430862718
 20
53.15103650546013
 11
396.6470430862718
 21
83.15103650546013
 72
     1
 10
396.6470430862718
 20
83.15103650546013
 11
292.6470430862718
 21
83.15103650546013
 72
     1
 10
292.6470430862718
 20
83.15103650546013
 11
292.6470430862718
 21
53.15103650546013
 72
     1
 10
292.6470430862718
 20
53.15103650546013
 11
292.6470430862718
 21
45.15103650546013
 72
     1
 10
292.6470430862718
 20
45.15103650546013
 11
300.6470430862718
 21
45.15103650546013
 72
     1
 10
300.6470430862718
 20
45.15103650546013
 11
300.6470430862718
 21
53.15103650546013
 72
     1
 10
300.6470430862718
 20
53.15103650546013
 11
308.6470430862718
 21
53.15103650546013
 72
     1
 10
308.6470430862718
 20
53.15103650546013
 11
308.6470430862718
 21
45.15103650546013
 72
     1
 10
308.6470430862718
 20
45.15103650546013
 11
316.6470430862718
 21
45.15103650546013
 72
     1
 10
316.6470430862718
 20
45.15103650546013
 11
316.6470430862718
 21
53.15103650546013
 72
     1
 10
316.6470430862718
 20
53.15103650546013
 11
324.6470430862718
 21
53.15103650546013
 72
     1
 10
324.6470430862718
 20
53.15103650546013
 11
324.6470430862718
 21
45.15103650546013
 72
     1
 10
324.6470430862718
 20
45.15103650546013
 11
332.6470430862718
 21
45.15103650546013
 72
     1
 10
332.6470430862718
 20
45.15103650546013
 11
332.6470430862718
 21
53.15103650546013
 72
     1
 10
332.6470430862718
 20
53.15103650546013
 11
340.6470430862718
 21
53.15103650546013
 72
     1
 10
340.6470430862718
 20
53.15103650546013
 11
340.6470430862718
 21
45.15103650546013
 72
     1
 10
340.6470430862718
 20
45.15103650546013
 11
348.6470430862718
 21
45.15103650546013
 72
     1
 10
348.6470430862718
 20
45.15103650546013
 11
348.6470430862718
 21
53.15103650546013
 72
     1
 10
348.6470430862718
 20
53.15103650546013
 11
356.6470430862718
 21
53.15103650546013
 97
        0
 75
     0
 76
     0
 52
0.0
 41
1.0
 77
     0
 78
     1
 53
45.0
 43
0.0
 44
0.0
 45
-2.245064030267288
 46
2.245064030267288
 79
     0
 98
        0
  0
HATCH
  5
2F7
330
376
100
AcDbEntity
  8
0
100
AcDbHatch
 10
0.0
 20
0.0
 30
0.0
210
0.0
220
0.0
230
1.0
  2
ANSI31
 70
     0
 71
     0
 91
        1
 92
        0
 93
       30
 72
     1
 10
235.9108004878044
 20
53.15103650546013
 11
235.9108004878044
 21
45.15103650546013
 72
     1
 10
235.9108004878044
 20
45.15103650546013
 11
243.9108004878044
 21
45.15103650546013
 72
     1
 10
243.9108004878044
 20
45.15103650546013
 11
243.9108004878044
 21
53.15103650546013
 72
     1
 10
243.9108004878044
 20
53.15103650546013
 11
251.9108004878043
 21
53.15103650546013
 72
     1
 10
251.9108004878043
 20
53.15103650546013
 11
251.9108004878044
 21
45.15103650546013
 72
     1
 10
251.9108004878044
 20
45.15103650546013
 11
259.9108004878043
 21
45.15103650546013
 72
     1
 10
259.9108004878043
 20
45.15103650546013
 11
259.9108004878043
 21
53.15103650546013
 72
     1
 10
259.9108004878043
 20
53.15103650546013
 11
267.9108004878043
 21
53.15103650546013
 72
     1
 10
267.9108004878043
 20
53.15103650546013
 11
267.9108004878043
 21
45.15103650546013
 72
     1
 10
267.9108004878043
 20
45.15103650546013
 11
275.9108004878043
 21
45.15103650546013
 72
     1
 10
275.9108004878043
 20
45.15103650546013
 11
275.9108004878044
 21
53.15103650546013
 72
     1
 10
275.9108004878044
 20
53.15103650546013
 11
275.9108004878044
 21
83.15103650546013
 72
     1
 10
275.9108004878044
 20
83.15103650546013
 11
171.9108004878044
 21
83.15103650546013
 72
     1
 10
171.9108004878044
 20
83.15103650546013
 11
171.9108004878044
 21
53.15103650546013
 72
     1
 10
171.9108004878044
 20
53.15103650546013
 11
171.9108004878044
 21
45.15103650546013
 72
     1
 10
171.9108004878044
 20
45.15103650546013
 11
179.9108004878044
 21
45.15103650546013
 72
     1
 10
179.9108004878044
 20
45.15103650546013
 11
179.9108004878044
 21
53.15103650546013
 72
     1
 10
179.9108004878044
 20
53.15103650546013
 11
187.9108004878044
 21
53.15103650546013
 72
     1
 10
187.9108004878044
 20
53.15103650546013
 11
187.9108004878044
 21
45.15103650546013
 72
     1
 10
187.9108004878044
 20
45.15103650546013
 11
195.9108004878044
 21
45.15103650546013
 72
     1
 10
195.9108004878044
 20
45.15103650546013
 11
195.9108004878044
 21
53.15103650546013
 72
     1
 10
195.9108004878044
 20
53.15103650546013
 11
203.9108004878044
 21
53.15103650546013
 72
     1
 10
203.9108004878044
 20
53.15103650546013
 11
203.9108004878044
 21
45.15103650546013
 72
     1
 10
203.9108004878044
 20
45.15103650546013
 11
211.9108004878044
 21
45.15103650546013
 72
     1
 10
211.9108004878044
 20
45.15103650546013
 11
211.9108004878044
 21
53.15103650546013
 72
     1
 10
211.9108004878044
 20
53.15103650546013
 11
219.9108004878044
 21
53.15103650546013
 72
     1
 10
219.9108004878044
 20
53.15103650546013
 11
219.9108004878044
 21
45.15103650546013
 72
     1
 10
219.9108004878044
 20
45.15103650546013
 11
227.9108004878044
 21
45.15103650546013
 72
     1
 10
227.9108004878044
 20
45.15103650546013
 11
227.9108004878044
 21
53.15103650546013
 72
     1
 10
227.9108004878044
 20
53.15103650546013
 11
235.9108004878044
 21
53.15103650546013
 97
        0
 75
     0
 76
     0
 52
0.0
 41
1.0
 77
     0
 78
     1
 53
45.0
 43
0.0
 44
0.0
 45
-2.245064030267288
 46
2.245064030267288
 79
     0
 98
        0
  0
HATCH
  5
2F8
330
376
100
AcDbEntity
  8
0
100
AcDbHatch
 10
0.0
 20
0.0
 30
0.0
210
0.0
220
0.0
230
1.0
  2
ANSI31
 70
     0
 71
     0
 91
        1
 92
        0
 93
       30
 72
     1
 10
111.6912864425606
 20
53.15103650546013
 11
111.6912864425606
 21
45.15103650546013
 72
     1
 10
111.6912864425606
 20
45.15103650546013
 11
119.6912864425606
 21
45.15103650546013
 72
     1
 10
119.6912864425606
 20
45.15103650546013
 11
119.6912864425606
 21
53.15103650546013
 72
     1
 10
119.6912864425606
 20
53.15103650546013
 11
127.6912864425606
 21
53.15103650546013
 72
     1
 10
127.6912864425606
 20
53.15103650546013
 11
127.6912864425606
 21
45.15103650546013
 72
     1
 10
127.6912864425606
 20
45.15103650546013
 11
135.6912864425605
 21
45.15103650546013
 72
     1
 10
135.6912864425605
 20
45.15103650546013
 11
135.6912864425605
 21
53.15103650546013
 72
     1
 10
135.6912864425605
 20
53.15103650546013
 11
143.6912864425605
 21
53.15103650546013
 72
     1
 10
143.6912864425605
 20
53.15103650546013
 11
143.6912864425605
 21
45.15103650546013
 72
     1
 10
143.6912864425605
 20
45.15103650546013
 11
151.6912864425605
 21
45.15103650546013
 72
     1
 10
151.6912864425605
 20
45.15103650546013
 11
151.6912864425606
 21
53.15103650546008
 72
     1
 10
151.6912864425606
 20
53.15103650546008
 11
151.6912864425606
 21
83.15103650546013
 72
     1
 10
151.6912864425606
 20
83.15103650546013
 11
47.69128644256062
 21
83.15103650546013
 72
     1
 10
47.69128644256062
 20
83.15103650546013
 11
47.69128644256062
 21
53.15103650546013
 72
     1
 10
47.69128644256062
 20
53.15103650546013
 11
47.69128644256062
 21
45.15103650546013
 72
     1
 10
47.69128644256062
 20
45.15103650546013
 11
55.69128644256062
 21
45.15103650546013
 72
     1
 10
55.69128644256062
 20
45.15103650546013
 11
55.69128644256062
 21
53.15103650546013
 72
     1
 10
55.69128644256062
 20
53.15103650546013
 11
63.69128644256062
 21
53.15103650546013
 72
     1
 10
63.69128644256062
 20
53.15103650546013
 11
63.69128644256062
 21
45.15103650546013
 72
     1
 10
63.69128644256062
 20
45.15103650546013
 11
71.6912864425606
 21
45.15103650546013
 72
     1
 10
71.6912864425606
 20
45.15103650546013
 11
71.6912864425606
 21
53.15103650546013
 72
     1
 10
71.6912864425606
 20
53.15103650546013
 11
79.6912864425606
 21
53.15103650546013
 72
     1
 10
79.6912864425606
 20
53.15103650546013
 11
79.6912864425606
 21
45.15103650546013
 72
     1
 10
79.6912864425606
 20
45.15103650546013
 11
87.6912864425606
 21
45.15103650546013
 72
     1
 10
87.6912864425606
 20
45.15103650546013
 11
87.6912864425606
 21
53.15103650546013
 72
     1
 10
87.6912864425606
 20
53.15103650546013
 11
95.6912864425606
 21
53.15103650546013
 72
     1
 10
95.6912864425606
 20
53.15103650546013
 11
95.6912864425606
 21
45.15103650546013
 72
     1
 10
95.6912864425606
 20
45.15103650546013
 11
103.6912864425606
 21
45.15103650546013
 72
     1
 10
103.6912864425606
 20
45.15103650546013
 11
103.6912864425606
 21
53.15103650546013
 72
     1
 10
103.6912864425606
 20
53.15103650546013
 11
111.6912864425606
 21
53.15103650546013
 97
        0
 75
     0
 76
     0
 52
0.0
 41
1.0
 77
     0
 78
     1
 53
45.0
 43
0.0
 44
0.0
 45
-2.245064030267288
 46
2.245064030267288
 79
     0
 98
        0
  0
INSERT
  5
31A
330
376
100
AcDbEntity
  8
0
100
AcDbBlockReference
  2
leds
 10
485.3527379349864
 20
3.331387500371335
 30
0.0
  0
INSERT
  5
10A
330
376
100
AcDbEntity
  8
0
100
AcDbBlockReference
  2
leds
 10
362.2628629360714
 20
3.331387500371335
 30
0.0
  0
INSERT
  5
E1
330
376
100
AcDbEntity
  8
0
100
AcDbBlockReference
  2
leds
 10
236.0187325195494
 20
3.178835753580358
 30
0.0
  0
INSERT
  5
331
330
376
100
AcDbEntity
  8
0
100
AcDbBlockReference
  2
leds
 10
719.0061611647012
 20
-228.551473678284
 30
0.0
  0
INSERT
  5
2CB
330
376
100
AcDbEntity
  8
0
100
AcDbBlockReference
  2
leds
 10
590.6202730002203
 20
-228.551473678284
 30
0.0
  0
INSERT
  5
2AE
330
376
100
AcDbEntity
  8
0
100
AcDbBlockReference
  2
leds
 10
443.5615457506617
 20
-228.551473678284
 30
0.0
  0
INSERT
  5
291
330
376
100
AcDbEntity
  8
0
100
AcDbBlockReference
  2
leds
 10
319.9812893184363
 20
-228.551473678284
 30
0.0
  0
INSERT
  5
274
330
376
100
AcDbEntity
  8
0
100
AcDbBlockReference
  2
leds
 10
190.4120928153209
 20
-228.551473678284
 30
0.0
  0
INSERT
  5
24C
330
376
100
AcDbEntity
  8
0
100
AcDbBlockReference
  2
leds
 10
64.84289631220538
 20
-228.551473678284
 30
0.0
  0
INSERT
  5
A8
330
376
100
AcDbEntity
  8
leds vertes
100
AcDbBlockReference
  2
leds
 10
105.6186015205319
 20
3.178835753580358
 30
0.0
  0
INSERT
  5
31B
330
376
100
AcDbEntity
  8
0
100
AcDbBlockReference
  2
lame
 10
469.4744606964179
 20
14.14249850743562
 30
0.0
  0
INSERT
  5
10B
330
376
100
AcDbEntity
  8
0
100
AcDbBlockReference
  2
lame
 10
346.3845856975029
 20
14.14249850743562
 30
0.0
  0
INSERT
  5
E2
330
376
100
AcDbEntity
  8
0
100
AcDbBlockReference
  2
lame
 10
215.9464995497967
 20
14.14249850743562
 30
0.0
  0
INSERT
  5
332
330
376
100
AcDbEntity
  8
0
100
AcDbBlockReference
  2
lame
 10
701.0253668333966
 20
-217.5878109244288
 30
0.0
  0
INSERT
  5
2CC
330
376
100
AcDbEntity
  8
0
100
AcDbBlockReference
  2
lame
 10
575.4493161619469
 20
-217.5878109244288
 30
0.0
  0
INSERT
  5
2AF
330
376
100
AcDbEntity
  8
0
100
AcDbBlockReference
  2
lame
 10
431.6547506774606
 20
-217.5878109244288
 30
0.0
  0
INSERT
  5
292
330
376
100
AcDbEntity
  8
0
100
AcDbBlockReference
  2
lame
 10
302.0004949871317
 20
-217.5878109244288
 30
0.0
  0
INSERT
  5
275
330
376
100
AcDbEntity
  8
0
100
AcDbBlockReference
  2
lame
 10
174.7759913527973
 20
-217.5878109244288
 30
0.0
  0
INSERT
  5
24D
330
376
100
AcDbEntity
  8
0
100
AcDbBlockReference
  2
lame
 10
46.8621019809008
 20
-217.5878109244288
 30
0.0
  0
INSERT
  5
AF
330
376
100
AcDbEntity
  8
0
100
AcDbBlockReference
  2
lame
 10
87.69128644256058
 20
14.14249850743558
 30
0.0
  0
DIMENSION
  5
E3
330
376
100
AcDbEntity
  8
cotes
100
AcDbDimension
280
     0
 10
227.9108004878042
 20
37.60720054476867
 30
0.0
 11
231.9108004878043
 21
39.48220054476867
 31
0.0
 70
    32
 71
     5
 42
-1.0
 73
     0
 74
     0
 75
     0
  3
QCADDimStyle
100
AcDbAlignedDimension
 13
227.9108004878043
 23
45.15103650545989
 33
0.0
 14
235.9108004878043
 24
45.15103650546007
 34
0.0
100
AcDbRotatedDimension
1001
ACAD
1000
DSTYLE
1002
{
1070
   279
1070
     2
1070
   179
1070
     1
1070
    41
1040
2.5
1070
    79
1070
     2
1070
   176
1070
     0
1070
   177
1070
     0
1070
   178
1070
     0
1070
   271
1070
     1
1070
    44
1040
1.25
1070
    42
1040
0.625
1070
   147
1040
0.625
1070
   140
1040
2.5
1070
    78
1070
     8
1002
}
  0
DIMENSION
  5
B2
330
376
100
AcDbEntity
  8
cotes
100
AcDbDimension
280
     0
 10
103.6912864425605
 20
37.60720054476872
 30
0.0
 11
107.6912864425605
 21
39.48220054476872
 31
0.0
 70
    32
 71
     5
 42
-1.0
 73
     0
 74
     0
 75
     0
  3
QCADDimStyle
100
AcDbAlignedDimension
 13
103.6912864425605
 23
45.15103650546007
 33
0.0
 14
111.6912864425605
 24
45.15103650546007
 34
0.0
100
AcDbRotatedDimension
1001
ACAD
1000
DSTYLE
1002
{
1070
   279
1070
     2
1070
   179
1070
     1
1070
    41
1040
2.5
1070
    79
1070
     2
1070
   176
1070
     0
1070
   177
1070
     0
1070
   178
1070
     0
1070
   271
1070
     1
1070
    44
1040
1.25
1070
    42
1040
0.625
1070
   147
1040
0.625
1070
   140
1040
2.5
1070
    78
1070
     8
1002
}
  0
DIMENSION
  5
31D
330
376
100
AcDbEntity
  8
cotes
100
AcDbDimension
280
     0
 10
473.4744606964177
 20
26.76029580861763
 30
0.0
 11
473.4744606964176
 21
28.63529580861684
 31
0.0
 70
   160
 71
     5
 42
-1.0
 73
     0
 74
     0
 75
     0
  3
QCADDimStyle
100
AcDbAlignedDimension
 13
469.4744606964176
 23
26.76029580861755
 33
0.0
 14
477.4744606964177
 24
25.25204271580981
 34
0.0
100
AcDbRotatedDimension
1001
ACAD
1000
DSTYLE
1002
{
1070
   279
1070
     2
1070
   179
1070
     1
1070
    41
1040
2.5
1070
    79
1070
     2
1070
   176
1070
     0
1070
   177
1070
     0
1070
   178
1070
     0
1070
   271
1070
     1
1070
    44
1040
1.25
1070
    42
1040
0.625
1070
   147
1040
0.625
1070
   140
1040
2.5
1070
    78
1070
     8
1002
}
  0
DIMENSION
  5
10D
330
376
100
AcDbEntity
  8
cotes
100
AcDbDimension
280
     0
 10
350.3845856975028
 20
26.76029580861727
 30
0.0
 11
350.3845856975027
 21
28.63529580861766
 31
0.0
 70
   160
 71
     5
 42
-1.0
 73
     0
 74
     0
 75
     0
  3
QCADDimStyle
100
AcDbAlignedDimension
 13
346.3845856975027
 23
26.76029580861666
 33
0.0
 14
354.3845856975028
 24
25.25204271580985
 34
0.0
100
AcDbRotatedDimension
1001
ACAD
1000
DSTYLE
1002
{
1070
   279
1070
     2
1070
   179
1070
     1
1070
    41
1040
2.5
1070
    79
1070
     2
1070
   176
1070
     0
1070
   177
1070
     0
1070
   178
1070
     0
1070
   271
1070
     1
1070
    44
1040
1.25
1070
    42
1040
0.625
1070
   147
1040
0.625
1070
   140
1040
2.5
1070
    78
1070
     8
1002
}
  0
DIMENSION
  5
E4
330
376
100
AcDbEntity
  8
cotes
100
AcDbDimension
280
     0
 10
215.9464995497965
 20
25.28850094154322
 30
0.0
 11
219.9464995497967
 21
27.16350094154322
 31
0.0
 70
    32
 71
     5
 42
-1.0
 73
     0
 74
     0
 75
     0
  3
QCADDimStyle
100
AcDbAlignedDimension
 13
215.9464995497967
 23
24.35078660683822
 33
0.0
 14
223.9464995497967
 24
24.28380701150226
 34
0.0
100
AcDbRotatedDimension
1001
ACAD
1000
DSTYLE
1002
{
1070
   279
1070
     2
1070
   179
1070
     1
1070
    41
1040
2.5
1070
    79
1070
     2
1070
   176
1070
     0
1070
   177
1070
     0
1070
   178
1070
     0
1070
   271
1070
     1
1070
    44
1040
1.25
1070
    42
1040
0.625
1070
   147
1040
0.625
1070
   140
1040
2.5
1070
    78
1070
     8
1002
}
  0
DIMENSION
  5
333
330
376
100
AcDbEntity
  8
cotes
100
AcDbDimension
280
     0
 10
701.0253668333964
 20
-207.1752630207901
 30
0.0
 11
705.0253668333964
 21
-205.3002630207903
 31
0.0
 70
   160
 71
     5
 42
-1.0
 73
     0
 74
     0
 75
     0
  3
QCADDimStyle
100
AcDbAlignedDimension
 13
701.0253668333966
 23
-205.4252630207901
 33
0.0
 14
709.0253668333964
 24
-211.0657049585735
 34
0.0
100
AcDbRotatedDimension
1001
ACAD
1000
DSTYLE
1002
{
1070
   279
1070
     2
1070
   179
1070
     1
1070
    41
1040
2.5
1070
    79
1070
     2
1070
   176
1070
     0
1070
   177
1070
     0
1070
   178
1070
     0
1070
   271
1070
     1
1070
    44
1040
1.25
1070
    42
1040
0.625
1070
   147
1040
0.625
1070
   140
1040
2.5
1070
    78
1070
     8
1002
}
  0
DIMENSION
  5
2CD
330
376
100
AcDbEntity
  8
cotes
100
AcDbDimension
280
     0
 10
575.4493161619466
 20
-207.1752630207905
 30
0.0
 11
579.4493161619469
 21
-205.3002630207905
 31
0.0
 70
    32
 71
     5
 42
-1.0
 73
     0
 74
     0
 75
     0
  3
QCADDimStyle
100
AcDbAlignedDimension
 13
575.4493161619466
 23
-205.4252630207902
 33
0.0
 14
583.449316161947
 24
-211.0657049585734
 34
0.0
100
AcDbRotatedDimension
1001
ACAD
1000
DSTYLE
1002
{
1070
   279
1070
     2
1070
   179
1070
     1
1070
    41
1040
2.5
1070
    79
1070
     2
1070
   176
1070
     0
1070
   177
1070
     0
1070
   178
1070
     0
1070
   271
1070
     1
1070
    44
1040
1.25
1070
    42
1040
0.625
1070
   147
1040
0.625
1070
   140
1040
2.5
1070
    78
1070
     8
1002
}
  0
DIMENSION
  5
2B0
330
376
100
AcDbEntity
  8
cotes
100
AcDbDimension
280
     0
 10
431.6547506774605
 20
-207.1752630207902
 30
0.0
 11
435.6547506774605
 21
-205.3002630207902
 31
0.0
 70
    32
 71
     5
 42
-1.0
 73
     0
 74
     0
 75
     0
  3
QCADDimStyle
100
AcDbAlignedDimension
 13
431.6547506774605
 23
-205.4252630207902
 33
0.0
 14
439.6547506774605
 24
-211.0657049585734
 34
0.0
100
AcDbRotatedDimension
1001
ACAD
1000
DSTYLE
1002
{
1070
   279
1070
     2
1070
   179
1070
     1
1070
    41
1040
2.5
1070
    79
1070
     2
1070
   176
1070
     0
1070
   177
1070
     0
1070
   178
1070
     0
1070
   271
1070
     1
1070
    44
1040
1.25
1070
    42
1040
0.625
1070
   147
1040
0.625
1070
   140
1040
2.5
1070
    78
1070
     8
1002
}
  0
DIMENSION
  5
293
330
376
100
AcDbEntity
  8
cotes
100
AcDbDimension
280
     0
 10
302.0004949871317
 20
-207.1752630207902
 30
0.0
 11
306.0004949871317
 21
-205.3002630207902
 31
0.0
 70
    32
 71
     5
 42
-1.0
 73
     0
 74
     0
 75
     0
  3
QCADDimStyle
100
AcDbAlignedDimension
 13
302.0004949871317
 23
-205.4252630207901
 33
0.0
 14
310.0004949871318
 24
-211.0657049585734
 34
0.0
100
AcDbRotatedDimension
1001
ACAD
1000
DSTYLE
1002
{
1070
   279
1070
     2
1070
   179
1070
     1
1070
    41
1040
2.5
1070
    79
1070
     2
1070
   176
1070
     0
1070
   177
1070
     0
1070
   178
1070
     0
1070
   271
1070
     1
1070
    44
1040
1.25
1070
    42
1040
0.625
1070
   147
1040
0.625
1070
   140
1040
2.5
1070
    78
1070
     8
1002
}
  0
DIMENSION
  5
276
330
376
100
AcDbEntity
  8
cotes
100
AcDbDimension
280
     0
 10
174.7759913527971
 20
-207.1752630207903
 30
0.0
 11
178.7759913527973
 21
-205.3002630207903
 31
0.0
 70
    32
 71
     5
 42
-1.0
 73
     0
 74
     0
 75
     0
  3
QCADDimStyle
100
AcDbAlignedDimension
 13
174.7759913527972
 23
-205.4252630207902
 33
0.0
 14
182.7759913527974
 24
-211.0657049585734
 34
0.0
100
AcDbRotatedDimension
1001
ACAD
1000
DSTYLE
1002
{
1070
   279
1070
     2
1070
   179
1070
     1
1070
    41
1040
2.5
1070
    79
1070
     2
1070
   176
1070
     0
1070
   177
1070
     0
1070
   178
1070
     0
1070
   271
1070
     1
1070
    44
1040
1.25
1070
    42
1040
0.625
1070
   147
1040
0.625
1070
   140
1040
2.5
1070
    78
1070
     8
1002
}
  0
DIMENSION
  5
24E
330
376
100
AcDbEntity
  8
cotes
100
AcDbDimension
280
     0
 10
46.86210198090073
 20
-207.1752630207902
 30
0.0
 11
50.86210198090079
 21
-205.3002630207902
 31
0.0
 70
   160
 71
     5
 42
-1.0
 73
     0
 74
     0
 75
     0
  3
QCADDimStyle
100
AcDbAlignedDimension
 13
46.86210198090081
 23
-205.4252630207901
 33
0.0
 14
54.86210198090077
 24
-211.0657049585734
 34
0.0
100
AcDbRotatedDimension
1001
ACAD
1000
DSTYLE
1002
{
1070
   279
1070
     2
1070
   179
1070
     1
1070
    41
1040
2.5
1070
    79
1070
     2
1070
   176
1070
     0
1070
   177
1070
     0
1070
   178
1070
     0
1070
   271
1070
     1
1070
    44
1040
1.25
1070
    42
1040
0.625
1070
   147
1040
0.625
1070
   140
1040
2.5
1070
    78
1070
     8
1002
}
  0
DIMENSION
  5
B3
330
376
100
AcDbEntity
  8
cotes
100
AcDbDimension
280
     0
 10
87.69128644256041
 20
24.55504641107414
 30
0.0
 11
91.69128644256052
 21
26.43004641107414
 31
0.0
 70
    32
 71
     5
 42
-1.0
 73
     0
 74
     0
 75
     0
  3
QCADDimStyle
100
AcDbAlignedDimension
 13
87.69128644256052
 23
26.30504641107417
 33
0.0
 14
95.69128644256052
 24
20.66460447329085
 34
0.0
100
AcDbRotatedDimension
1001
ACAD
1000
DSTYLE
1002
{
1070
   279
1070
     2
1070
   179
1070
     1
1070
    41
1040
2.5
1070
    79
1070
     2
1070
   176
1070
     0
1070
   177
1070
     0
1070
   178
1070
     0
1070
   271
1070
     1
1070
    44
1040
1.25
1070
    42
1040
0.625
1070
   147
1040
0.625
1070
   140
1040
2.5
1070
    78
1070
     8
1002
}
  0
INSERT
  5
31E
330
376
100
AcDbEntity
  8
leds rouges
100
AcDbBlockReference
  2
led
 10
505.3527379349863
 20
3.331387500371335
 30
0.0
  0
INSERT
  5
31F
330
376
100
AcDbEntity
  8
leds rouges
100
AcDbBlockReference
  2
led
 10
510.3527379349863
 20
3.331387500371335
 30
0.0
  0
INSERT
  5
320
330
376
100
AcDbEntity
  8
leds rouges
100
AcDbBlockReference
  2
led
 10
500.3527379349863
 20
3.331387500371335
 30
0.0
  0
INSERT
  5
BC
330
376
100
AcDbEntity
  8
leds rouges
100
AcDbBlockReference
  2
led
 10
130.6186015205319
 20
3.178835753580358
 30
0.0
  0
INSERT
  5
334
330
376
100
AcDbEntity
  8
leds rouges
100
AcDbBlockReference
  2
led
 10
734.0061611647012
 20
-228.551473678284
 30
0.0
  0
INSERT
  5
250
330
376
100
AcDbEntity
  8
leds rouges
100
AcDbBlockReference
  2
led
 10
79.84289631220538
 20
-228.551473678284
 30
0.0
  0
INSERT
  5
BA
330
376
100
AcDbEntity
  8
leds rouges
100
AcDbBlockReference
  2
led
 10
120.6186015205319
 20
3.178835753580358
 30
0.0
  0
INSERT
  5
34C
330
376
100
AcDbEntity
  8
leds rouges
100
AcDbBlockReference
  2
led
 10
339.9812893184363
 20
-228.551473678284
 30
0.0
  0
INSERT
  5
335
330
376
100
AcDbEntity
  8
leds rouges
100
AcDbBlockReference
  2
led
 10
739.0061611647012
 20
-228.551473678284
 30
0.0
  0
INSERT
  5
295
330
376
100
AcDbEntity
  8
leds rouges
100
AcDbBlockReference
  2
led
 10
344.9812893184363
 20
-228.551473678284
 30
0.0
  0
INSERT
  5
278
330
376
100
AcDbEntity
  8
leds rouges
100
AcDbBlockReference
  2
led
 10
210.4120928153209
 20
-228.551473678284
 30
0.0
  0
INSERT
  5
251
330
376
100
AcDbEntity
  8
leds rouges
100
AcDbBlockReference
  2
led
 10
84.84289631220538
 20
-228.551473678284
 30
0.0
  0
INSERT
  5
BB
330
376
100
AcDbEntity
  8
leds rouges
100
AcDbBlockReference
  2
led
 10
125.6186015205319
 20
3.178835753580358
 30
0.0
  0
LINE
  5
321
330
376
100
AcDbEntity
  8
0
100
AcDbLine
 10
469.4744606964179
 20
31.14249850743562
 30
0.0
 11
477.4744606964179
 21
31.14249850743562
 31
0.0
  0
LINE
  5
111
330
376
100
AcDbEntity
  8
0
100
AcDbLine
 10
346.3845856975029
 20
31.14249850743562
 30
0.0
 11
354.3845856975029
 21
31.14249850743562
 31
0.0
  0
LINE
  5
322
330
376
100
AcDbEntity
  8
0
100
AcDbLine
 10
469.4744606964179
 20
-2.857501492564381
 30
0.0
 11
477.4744606964179
 21
-2.857501492564381
 31
0.0
  0
LINE
  5
112
330
376
100
AcDbEntity
  8
0
100
AcDbLine
 10
346.3845856975029
 20
-2.857501492564381
 30
0.0
 11
354.3845856975029
 21
-2.857501492564381
 31
0.0
  0
LINE
  5
E8
330
376
100
AcDbEntity
  8
0
100
AcDbLine
 10
215.9464995497967
 20
31.14249850743562
 30
0.0
 11
223.9464995497967
 21
31.14249850743562
 31
0.0
  0
LINE
  5
E9
330
376
100
AcDbEntity
  8
0
100
AcDbLine
 10
215.9464995497967
 20
-2.857501492564381
 30
0.0
 11
223.9464995497967
 21
-2.857501492564381
 31
0.0
  0
LINE
  5
336
330
376
100
AcDbEntity
  8
0
100
AcDbLine
 10
701.0253668333966
 20
-200.5878109244288
 30
0.0
 11
709.0253668333966
 21
-200.5878109244288
 31
0.0
  0
LINE
  5
2D0
330
376
100
AcDbEntity
  8
0
100
AcDbLine
 10
575.4493161619469
 20
-200.5878109244288
 30
0.0
 11
583.4493161619469
 21
-200.5878109244288
 31
0.0
  0
LINE
  5
2B3
330
376
100
AcDbEntity
  8
0
100
AcDbLine
 10
431.6547506774606
 20
-200.5878109244288
 30
0.0
 11
439.6547506774605
 21
-200.5878109244288
 31
0.0
  0
LINE
  5
296
330
376
100
AcDbEntity
  8
0
100
AcDbLine
 10
302.0004949871318
 20
-200.5878109244288
 30
0.0
 11
310.0004949871318
 21
-200.5878109244288
 31
0.0
  0
LINE
  5
279
330
376
100
AcDbEntity
  8
0
100
AcDbLine
 10
174.7759913527973
 20
-200.5878109244288
 30
0.0
 11
182.7759913527973
 21
-200.5878109244288
 31
0.0
  0
LINE
  5
252
330
376
100
AcDbEntity
  8
0
100
AcDbLine
 10
46.8621019809008
 20
-200.5878109244288
 30
0.0
 11
54.8621019809008
 21
-200.5878109244288
 31
0.0
  0
LINE
  5
BE
330
376
100
AcDbEntity
  8
0
100
AcDbLine
 10
87.69128644256058
 20
31.14249850743558
 30
0.0
 11
95.69128644256058
 21
31.14249850743558
 31
0.0
  0
LINE
  5
337
330
376
100
AcDbEntity
  8
0
100
AcDbLine
 10
701.0253668333966
 20
-234.5878109244288
 30
0.0
 11
709.0253668333966
 21
-234.5878109244288
 31
0.0
  0
LINE
  5
2D1
330
376
100
AcDbEntity
  8
0
100
AcDbLine
 10
575.4493161619469
 20
-234.5878109244288
 30
0.0
 11
583.4493161619469
 21
-234.5878109244288
 31
0.0
  0
LINE
  5
2B4
330
376
100
AcDbEntity
  8
0
100
AcDbLine
 10
431.6547506774606
 20
-234.5878109244288
 30
0.0
 11
439.6547506774605
 21
-234.5878109244288
 31
0.0
  0
LINE
  5
297
330
376
100
AcDbEntity
  8
0
100
AcDbLine
 10
302.0004949871318
 20
-234.5878109244288
 30
0.0
 11
310.0004949871318
 21
-234.5878109244288
 31
0.0
  0
LINE
  5
27A
330
376
100
AcDbEntity
  8
0
100
AcDbLine
 10
174.7759913527973
 20
-234.5878109244288
 30
0.0
 11
182.7759913527973
 21
-234.5878109244288
 31
0.0
  0
LINE
  5
253
330
376
100
AcDbEntity
  8
0
100
AcDbLine
 10
46.8621019809008
 20
-234.5878109244288
 30
0.0
 11
54.8621019809008
 21
-234.5878109244288
 31
0.0
  0
LINE
  5
BF
330
376
100
AcDbEntity
  8
0
100
AcDbLine
 10
87.69128644256058
 20
-2.857501492564467
 30
0.0
 11
95.69128644256058
 21
-2.857501492564467
 31
0.0
  0
MTEXT
  5
323
330
376
100
AcDbEntity
  8
0
100
AcDbMText
 10
484.7356729706517
 20
17.03250849229977
 30
0.0
 40
1.0
 41
0.0
 46
0.0
 71
     5
 72
     1
  1
\c0;\H2.5;Blade
  7
textstyle11
 73
     1
 44
1.0
  0
MTEXT
  5
113
330
376
100
AcDbEntity
  8
0
100
AcDbMText
 10
361.6457979717368
 20
17.03250849229998
 30
0.0
 40
1.0
 41
0.0
 46
0.0
 71
     5
 72
     1
  1
\c0;\H2.5;Blade
  7
textstyle12
 73
     1
 44
1.0
  0
MTEXT
  5
EA
330
376
100
AcDbEntity
  8
0
100
AcDbMText
 10
235.7823705685215
 20
17.03250849229944
 30
0.0
 40
1.0
 41
0.0
 46
0.0
 71
     5
 72
     1
  1
\c0;\H2.5;Blade
  7
textstyle13
 73
     1
 44
1.0
  0
MTEXT
  5
338
330
376
100
AcDbEntity
  8
0
100
AcDbMText
 10
716.2865791076304
 20
-214.6978009395652
 30
0.0
 40
1.0
 41
0.0
 46
0.0
 71
     5
 72
     1
  1
\c0;\H2.5;Blade
  7
textstyle14
 73
     1
 44
1.0
  0
MTEXT
  5
2D2
330
376
100
AcDbEntity
  8
0
100
AcDbMText
 10
572.1492959868824
 20
-214.6978009395649
 30
0.0
 40
1.0
 41
0.0
 46
0.0
 71
     5
 72
     1
  1
\c0;\H2.5;Blade
  7
textstyle15
 73
     1
 44
1.0
  0
MTEXT
  5
2B5
330
376
100
AcDbEntity
  8
0
100
AcDbMText
 10
440.8419636935909
 20
-214.6978009395648
 30
0.0
 40
1.0
 41
0.0
 46
0.0
 71
     5
 72
     1
  1
\c0;\H2.5;Blade
  7
textstyle16
 73
     1
 44
1.0
  0
MTEXT
  5
298
330
376
100
AcDbEntity
  8
0
100
AcDbMText
 10
317.2617072613656
 20
-214.6978009395647
 30
0.0
 40
1.0
 41
0.0
 46
0.0
 71
     5
 72
     1
  1
\c0;\H2.5;Blade
  7
textstyle17
 73
     1
 44
1.0
  0
MTEXT
  5
27B
330
376
100
AcDbEntity
  8
0
100
AcDbMText
 10
187.6925107582501
 20
-214.6978009395647
 30
0.0
 40
1.0
 41
0.0
 46
0.0
 71
     5
 72
     1
  1
\c0;\H2.5;Blade
  7
textstyle18
 73
     1
 44
1.0
  0
MTEXT
  5
254
330
376
100
AcDbEntity
  8
0
100
AcDbMText
 10
62.12331425513474
 20
-214.6978009395647
 30
0.0
 40
1.0
 41
0.0
 46
0.0
 71
     5
 72
     1
  1
\c0;\H2.5;Blade
  7
textstyle19
 73
     1
 44
1.0
  0
MTEXT
  5
C0
330
376
100
AcDbEntity
  8
0
100
AcDbMText
 10
102.9524987167945
 20
17.03250849229959
 30
0.0
 40
1.0
 41
0.0
 46
0.0
 71
     5
 72
     1
  1
\c0;\H2.5;Blade
  7
textstyle20
 73
     1
 44
1.0
  0
CIRCLE
  5
210
330
376
100
AcDbEntity
  8
leds vertes
100
AcDbCircle
 10
241.0187325195494
 20
3.178835753580358
 30
0.0
 40
2.000000000000007
  0
HATCH
  5
355
330
376
100
AcDbEntity
  8
leds vertes
100
AcDbHatch
 10
0.0
 20
0.0
 30
0.0
210
0.0
220
0.0
230
1.0
  2
SOLID
 70
     1
 71
     0
 91
        1
 92
        0
 93
        1
 72
     2
 10
271.0187325195494
 20
3.178835753580358
 40
2.000000000000007
 50
0.0
 51
360.0
 73
     1
 97
        0
 75
     0
 76
     1
 98
        0
  0
HATCH
  5
357
330
376
100
AcDbEntity
  8
leds vertes
100
AcDbHatch
 10
0.0
 20
0.0
 30
0.0
210
0.0
220
0.0
230
1.0
  2
SOLID
 70
     1
 71
     0
 91
        1
 92
        0
 93
        1
 72
     2
 10
367.2628629360714
 20
3.331387500371335
 40
2.000000000000007
 50
0.0
 51
360.0
 73
     1
 97
        0
 75
     0
 76
     1
 98
        0
  0
LINE
  5
339
330
376
100
AcDbEntity
  8
0
100
AcDbLine
 10
641.0253668333964
 20
-188.8798751950078
 30
0.0
 11
641.0253668333964
 21
-176.8798751950078
 31
0.0
  0
LINE
  5
2D3
330
376
100
AcDbEntity
  8
0
100
AcDbLine
 10
520.8880837126488
 20
-188.8798751950078
 30
0.0
 11
520.8880837126488
 21
-176.8798751950078
 31
0.0
  0
LINE
  5
2B6
330
376
100
AcDbEntity
  8
0
100
AcDbLine
 10
389.5807514193571
 20
-188.8798751950078
 30
0.0
 11
389.5807514193571
 21
-176.8798751950078
 31
0.0
  0
LINE
  5
299
330
376
100
AcDbEntity
  8
0
100
AcDbLine
 10
262.0004949871317
 20
-188.8798751950078
 30
0.0
 11
262.0004949871317
 21
-176.8798751950078
 31
0.0
  0
LINE
  5
27C
330
376
100
AcDbEntity
  8
0
100
AcDbLine
 10
136.4312984840163
 20
-188.8798751950078
 30
0.0
 11
136.4312984840163
 21
-176.8798751950078
 31
0.0
  0
LINE
  5
238
330
376
100
AcDbEntity
  8
0
100
AcDbLine
 10
10.8621019809008
 20
-188.8798751950078
 30
0.0
 11
10.8621019809008
 21
-176.8798751950078
 31
0.0
  0
LINE
  5
33A
330
376
100
AcDbEntity
  8
0
100
AcDbLine
 10
653.0253668333964
 20
-188.8798751950078
 30
0.0
 11
653.0253668333964
 21
-176.8798751950078
 31
0.0
  0
LINE
  5
2D4
330
376
100
AcDbEntity
  8
0
100
AcDbLine
 10
532.8880837126488
 20
-188.8798751950078
 30
0.0
 11
532.8880837126488
 21
-176.8798751950078
 31
0.0
  0
LINE
  5
2B7
330
376
100
AcDbEntity
  8
0
100
AcDbLine
 10
401.5807514193571
 20
-188.8798751950078
 30
0.0
 11
401.5807514193571
 21
-176.8798751950078
 31
0.0
  0
LINE
  5
29A
330
376
100
AcDbEntity
  8
0
100
AcDbLine
 10
274.0004949871317
 20
-188.8798751950078
 30
0.0
 11
274.0004949871317
 21
-176.8798751950078
 31
0.0
  0
LINE
  5
27D
330
376
100
AcDbEntity
  8
0
100
AcDbLine
 10
148.4312984840163
 20
-188.8798751950078
 30
0.0
 11
148.4312984840163
 21
-176.8798751950078
 31
0.0
  0
LINE
  5
239
330
376
100
AcDbEntity
  8
0
100
AcDbLine
 10
22.8621019809008
 20
-188.8798751950078
 30
0.0
 11
22.8621019809008
 21
-176.8798751950078
 31
0.0
  0
LINE
  5
33B
330
376
100
AcDbEntity
  8
0
100
AcDbLine
 10
665.0253668333964
 20
-188.8798751950078
 30
0.0
 11
665.0253668333964
 21
-176.8798751950078
 31
0.0
  0
LINE
  5
2D5
330
376
100
AcDbEntity
  8
0
100
AcDbLine
 10
544.8880837126488
 20
-188.8798751950078
 30
0.0
 11
544.8880837126488
 21
-176.8798751950078
 31
0.0
  0
LINE
  5
2B8
330
376
100
AcDbEntity
  8
0
100
AcDbLine
 10
413.5807514193571
 20
-188.8798751950078
 30
0.0
 11
413.5807514193571
 21
-176.8798751950078
 31
0.0
  0
LINE
  5
29B
330
376
100
AcDbEntity
  8
0
100
AcDbLine
 10
286.0004949871317
 20
-188.8798751950078
 30
0.0
 11
286.0004949871317
 21
-176.8798751950078
 31
0.0
  0
LINE
  5
27E
330
376
100
AcDbEntity
  8
0
100
AcDbLine
 10
160.4312984840163
 20
-188.8798751950078
 30
0.0
 11
160.4312984840163
 21
-176.8798751950078
 31
0.0
  0
LINE
  5
23A
330
376
100
AcDbEntity
  8
0
100
AcDbLine
 10
34.8621019809008
 20
-188.8798751950078
 30
0.0
 11
34.8621019809008
 21
-176.8798751950078
 31
0.0
  0
LINE
  5
33C
330
376
100
AcDbEntity
  8
0
100
AcDbLine
 10
677.0253668333964
 20
-188.8798751950078
 30
0.0
 11
677.0253668333964
 21
-176.8798751950078
 31
0.0
  0
LINE
  5
2D6
330
376
100
AcDbEntity
  8
0
100
AcDbLine
 10
556.8880837126488
 20
-188.8798751950078
 30
0.0
 11
556.8880837126488
 21
-176.8798751950078
 31
0.0
  0
LINE
  5
2B9
330
376
100
AcDbEntity
  8
0
100
AcDbLine
 10
425.5807514193571
 20
-188.8798751950078
 30
0.0
 11
425.5807514193571
 21
-176.8798751950078
 31
0.0
  0
LINE
  5
29C
330
376
100
AcDbEntity
  8
0
100
AcDbLine
 10
298.0004949871317
 20
-188.8798751950078
 30
0.0
 11
298.0004949871317
 21
-176.8798751950078
 31
0.0
  0
LINE
  5
27F
330
376
100
AcDbEntity
  8
0
100
AcDbLine
 10
172.4312984840163
 20
-188.8798751950078
 30
0.0
 11
172.4312984840163
 21
-176.8798751950078
 31
0.0
  0
LINE
  5
23B
330
376
100
AcDbEntity
  8
0
100
AcDbLine
 10
46.8621019809008
 20
-188.8798751950078
 30
0.0
 11
46.8621019809008
 21
-176.8798751950078
 31
0.0
  0
LINE
  5
33D
330
376
100
AcDbEntity
  8
0
100
AcDbLine
 10
689.0253668333964
 20
-188.8798751950078
 30
0.0
 11
689.0253668333964
 21
-176.8798751950078
 31
0.0
  0
LINE
  5
2D7
330
376
100
AcDbEntity
  8
0
100
AcDbLine
 10
568.8880837126488
 20
-188.8798751950078
 30
0.0
 11
568.8880837126488
 21
-176.8798751950078
 31
0.0
  0
LINE
  5
2BA
330
376
100
AcDbEntity
  8
0
100
AcDbLine
 10
437.5807514193571
 20
-188.8798751950078
 30
0.0
 11
437.5807514193571
 21
-176.8798751950078
 31
0.0
  0
LINE
  5
29D
330
376
100
AcDbEntity
  8
0
100
AcDbLine
 10
310.0004949871317
 20
-188.8798751950078
 30
0.0
 11
310.0004949871317
 21
-176.8798751950078
 31
0.0
  0
LINE
  5
280
330
376
100
AcDbEntity
  8
0
100
AcDbLine
 10
184.4312984840163
 20
-188.8798751950078
 30
0.0
 11
184.4312984840163
 21
-176.8798751950078
 31
0.0
  0
LINE
  5
23C
330
376
100
AcDbEntity
  8
0
100
AcDbLine
 10
58.8621019809008
 20
-188.8798751950078
 30
0.0
 11
58.8621019809008
 21
-176.8798751950078
 31
0.0
  0
LINE
  5
33E
330
376
100
AcDbEntity
  8
0
100
AcDbLine
 10
701.0253668333964
 20
-188.8798751950078
 30
0.0
 11
701.0253668333964
 21
-176.8798751950078
 31
0.0
  0
LINE
  5
2D8
330
376
100
AcDbEntity
  8
0
100
AcDbLine
 10
580.8880837126488
 20
-188.8798751950078
 30
0.0
 11
580.8880837126488
 21
-176.8798751950078
 31
0.0
  0
LINE
  5
2BB
330
376
100
AcDbEntity
  8
0
100
AcDbLine
 10
449.5807514193571
 20
-188.8798751950078
 30
0.0
 11
449.5807514193571
 21
-176.8798751950078
 31
0.0
  0
LINE
  5
29E
330
376
100
AcDbEntity
  8
0
100
AcDbLine
 10
322.0004949871318
 20
-188.8798751950078
 30
0.0
 11
322.0004949871318
 21
-176.8798751950078
 31
0.0
  0
LINE
  5
281
330
376
100
AcDbEntity
  8
0
100
AcDbLine
 10
196.4312984840163
 20
-188.8798751950078
 30
0.0
 11
196.4312984840163
 21
-176.8798751950078
 31
0.0
  0
LINE
  5
23D
330
376
100
AcDbEntity
  8
0
100
AcDbLine
 10
70.8621019809008
 20
-188.8798751950078
 30
0.0
 11
70.8621019809008
 21
-176.8798751950078
 31
0.0
  0
LINE
  5
33F
330
376
100
AcDbEntity
  8
0
100
AcDbLine
 10
713.0253668333964
 20
-188.8798751950078
 30
0.0
 11
713.0253668333964
 21
-176.8798751950078
 31
0.0
  0
LINE
  5
2D9
330
376
100
AcDbEntity
  8
0
100
AcDbLine
 10
592.8880837126488
 20
-188.8798751950078
 30
0.0
 11
592.8880837126488
 21
-176.8798751950078
 31
0.0
  0
LINE
  5
2BC
330
376
100
AcDbEntity
  8
0
100
AcDbLine
 10
461.5807514193571
 20
-188.8798751950078
 30
0.0
 11
461.5807514193571
 21
-176.8798751950078
 31
0.0
  0
LINE
  5
29F
330
376
100
AcDbEntity
  8
0
100
AcDbLine
 10
334.0004949871318
 20
-188.8798751950078
 30
0.0
 11
334.0004949871318
 21
-176.8798751950078
 31
0.0
  0
LINE
  5
282
330
376
100
AcDbEntity
  8
0
100
AcDbLine
 10
208.4312984840163
 20
-188.8798751950078
 30
0.0
 11
208.4312984840163
 21
-176.8798751950078
 31
0.0
  0
LINE
  5
23E
330
376
100
AcDbEntity
  8
0
100
AcDbLine
 10
82.8621019809008
 20
-188.8798751950078
 30
0.0
 11
82.8621019809008
 21
-176.8798751950078
 31
0.0
  0
LINE
  5
340
330
376
100
AcDbEntity
  8
0
100
AcDbLine
 10
725.0253668333964
 20
-188.8798751950078
 30
0.0
 11
725.0253668333964
 21
-176.8798751950078
 31
0.0
  0
LINE
  5
2DA
330
376
100
AcDbEntity
  8
0
100
AcDbLine
 10
604.8880837126488
 20
-188.8798751950078
 30
0.0
 11
604.8880837126488
 21
-176.8798751950078
 31
0.0
  0
LINE
  5
2BD
330
376
100
AcDbEntity
  8
0
100
AcDbLine
 10
473.5807514193571
 20
-188.8798751950078
 30
0.0
 11
473.5807514193571
 21
-176.8798751950078
 31
0.0
  0
LINE
  5
2A0
330
376
100
AcDbEntity
  8
0
100
AcDbLine
 10
346.0004949871318
 20
-188.8798751950078
 30
0.0
 11
346.0004949871318
 21
-176.8798751950078
 31
0.0
  0
LINE
  5
283
330
376
100
AcDbEntity
  8
0
100
AcDbLine
 10
220.4312984840163
 20
-188.8798751950078
 30
0.0
 11
220.4312984840163
 21
-176.8798751950078
 31
0.0
  0
LINE
  5
23F
330
376
100
AcDbEntity
  8
0
100
AcDbLine
 10
94.8621019809008
 20
-188.8798751950078
 30
0.0
 11
94.8621019809008
 21
-176.8798751950078
 31
0.0
  0
LINE
  5
341
330
376
100
AcDbEntity
  8
0
100
AcDbLine
 10
689.0253668333964
 20
-188.8798751950078
 30
0.0
 11
701.0253668333964
 21
-188.8798751950078
 31
0.0
  0
LINE
  5
342
330
376
100
AcDbEntity
  8
0
100
AcDbLine
 10
713.0253668333964
 20
-188.8798751950078
 30
0.0
 11
725.0253668333964
 21
-188.8798751950078
 31
0.0
  0
LINE
  5
343
330
376
100
AcDbEntity
  8
0
100
AcDbLine
 10
641.0253668333964
 20
-188.8798751950078
 30
0.0
 11
653.0253668333964
 21
-188.8798751950078
 31
0.0
  0
LINE
  5
344
330
376
100
AcDbEntity
  8
0
100
AcDbLine
 10
665.0253668333964
 20
-188.8798751950078
 30
0.0
 11
677.0253668333964
 21
-188.8798751950078
 31
0.0
  0
LINE
  5
2DD
330
376
100
AcDbEntity
  8
0
100
AcDbLine
 10
568.8880837126488
 20
-188.8798751950078
 30
0.0
 11
580.8880837126488
 21
-188.8798751950078
 31
0.0
  0
LINE
  5
2DE
330
376
100
AcDbEntity
  8
0
100
AcDbLine
 10
592.8880837126488
 20
-188.8798751950078
 30
0.0
 11
604.8880837126488
 21
-188.8798751950078
 31
0.0
  0
LINE
  5
2DB
330
376
100
AcDbEntity
  8
0
100
AcDbLine
 10
520.8880837126488
 20
-188.8798751950078
 30
0.0
 11
532.8880837126488
 21
-188.8798751950078
 31
0.0
  0
LINE
  5
2DC
330
376
100
AcDbEntity
  8
0
100
AcDbLine
 10
544.8880837126488
 20
-188.8798751950078
 30
0.0
 11
556.8880837126488
 21
-188.8798751950078
 31
0.0
  0
LINE
  5
2C1
330
376
100
AcDbEntity
  8
0
100
AcDbLine
 10
413.5807514193571
 20
-188.8798751950078
 30
0.0
 11
425.5807514193571
 21
-188.8798751950078
 31
0.0
  0
LINE
  5
2BE
330
376
100
AcDbEntity
  8
0
100
AcDbLine
 10
437.5807514193571
 20
-188.8798751950078
 30
0.0
 11
449.5807514193571
 21
-188.8798751950078
 31
0.0
  0
LINE
  5
2BF
330
376
100
AcDbEntity
  8
0
100
AcDbLine
 10
461.5807514193571
 20
-188.8798751950078
 30
0.0
 11
473.5807514193571
 21
-188.8798751950078
 31
0.0
  0
LINE
  5
2C0
330
376
100
AcDbEntity
  8
0
100
AcDbLine
 10
389.5807514193571
 20
-188.8798751950078
 30
0.0
 11
401.5807514193571
 21
-188.8798751950078
 31
0.0
  0
LINE
  5
2A1
330
376
100
AcDbEntity
  8
0
100
AcDbLine
 10
310.0004949871317
 20
-188.8798751950078
 30
0.0
 11
322.0004949871317
 21
-188.8798751950078
 31
0.0
  0
LINE
  5
2A2
330
376
100
AcDbEntity
  8
0
100
AcDbLine
 10
334.0004949871317
 20
-188.8798751950078
 30
0.0
 11
346.0004949871317
 21
-188.8798751950078
 31
0.0
  0
LINE
  5
2A3
330
376
100
AcDbEntity
  8
0
100
AcDbLine
 10
262.0004949871317
 20
-188.8798751950078
 30
0.0
 11
274.0004949871317
 21
-188.8798751950078
 31
0.0
  0
LINE
  5
2A4
330
376
100
AcDbEntity
  8
0
100
AcDbLine
 10
286.0004949871317
 20
-188.8798751950078
 30
0.0
 11
298.0004949871317
 21
-188.8798751950078
 31
0.0
  0
LINE
  5
285
330
376
100
AcDbEntity
  8
0
100
AcDbLine
 10
208.4312984840163
 20
-188.8798751950078
 30
0.0
 11
220.4312984840163
 21
-188.8798751950078
 31
0.0
  0
LINE
  5
286
330
376
100
AcDbEntity
  8
0
100
AcDbLine
 10
136.4312984840163
 20
-188.8798751950078
 30
0.0
 11
148.4312984840163
 21
-188.8798751950078
 31
0.0
  0
LINE
  5
287
330
376
100
AcDbEntity
  8
0
100
AcDbLine
 10
160.4312984840163
 20
-188.8798751950078
 30
0.0
 11
172.4312984840163
 21
-188.8798751950078
 31
0.0
  0
LINE
  5
284
330
376
100
AcDbEntity
  8
0
100
AcDbLine
 10
184.4312984840163
 20
-188.8798751950078
 30
0.0
 11
196.4312984840163
 21
-188.8798751950078
 31
0.0
  0
LINE
  5
245
330
376
100
AcDbEntity
  8
0
100
AcDbLine
 10
58.86210198090079
 20
-188.8798751950078
 30
0.0
 11
70.86210198090079
 21
-188.8798751950078
 31
0.0
  0
LINE
  5
247
330
376
100
AcDbEntity
  8
0
100
AcDbLine
 10
82.86210198090079
 20
-188.8798751950078
 30
0.0
 11
94.86210198090077
 21
-188.8798751950078
 31
0.0
  0
LINE
  5
241
330
376
100
AcDbEntity
  8
0
100
AcDbLine
 10
10.8621019809008
 20
-188.8798751950078
 30
0.0
 11
22.8621019809008
 21
-188.8798751950078
 31
0.0
  0
LINE
  5
243
330
376
100
AcDbEntity
  8
0
100
AcDbLine
 10
34.8621019809008
 20
-188.8798751950078
 30
0.0
 11
46.86210198090079
 21
-188.8798751950078
 31
0.0
  0
LINE
  5
345
330
376
100
AcDbEntity
  8
0
100
AcDbLine
 10
701.0253668333964
 20
-176.8798751950078
 30
0.0
 11
713.0253668333964
 21
-176.8798751950078
 31
0.0
  0
LINE
  5
346
330
376
100
AcDbEntity
  8
0
100
AcDbLine
 10
725.0253668333964
 20
-176.8798751950078
 30
0.0
 11
737.0253668333964
 21
-176.8798751950078
 31
0.0
  0
LINE
  5
347
330
376
100
AcDbEntity
  8
0
100
AcDbLine
 10
653.0253668333964
 20
-176.8798751950078
 30
0.0
 11
665.0253668333964
 21
-176.8798751950078
 31
0.0
  0
LINE
  5
348
330
376
100
AcDbEntity
  8
0
100
AcDbLine
 10
677.0253668333964
 20
-176.8798751950078
 30
0.0
 11
689.0253668333964
 21
-176.8798751950078
 31
0.0
  0
LINE
  5
2E1
330
376
100
AcDbEntity
  8
0
100
AcDbLine
 10
604.8880837126488
 20
-176.8798751950078
 30
0.0
 11
616.8880837126488
 21
-176.8798751950078
 31
0.0
  0
LINE
  5
2E2
330
376
100
AcDbEntity
  8
0
100
AcDbLine
 10
532.8880837126488
 20
-176.8798751950078
 30
0.0
 11
544.8880837126488
 21
-176.8798751950078
 31
0.0
  0
LINE
  5
2DF
330
376
100
AcDbEntity
  8
0
100
AcDbLine
 10
556.8880837126488
 20
-176.8798751950078
 30
0.0
 11
568.8880837126488
 21
-176.8798751950078
 31
0.0
  0
LINE
  5
2E0
330
376
100
AcDbEntity
  8
0
100
AcDbLine
 10
580.8880837126488
 20
-176.8798751950078
 30
0.0
 11
592.8880837126488
 21
-176.8798751950078
 31
0.0
  0
LINE
  5
2C5
330
376
100
AcDbEntity
  8
0
100
AcDbLine
 10
425.5807514193571
 20
-176.8798751950078
 30
0.0
 11
437.5807514193571
 21
-176.8798751950078
 31
0.0
  0
LINE
  5
2C2
330
376
100
AcDbEntity
  8
0
100
AcDbLine
 10
449.5807514193571
 20
-176.8798751950078
 30
0.0
 11
461.5807514193571
 21
-176.8798751950078
 31
0.0
  0
LINE
  5
2C3
330
376
100
AcDbEntity
  8
0
100
AcDbLine
 10
473.5807514193571
 20
-176.8798751950078
 30
0.0
 11
485.5807514193571
 21
-176.8798751950078
 31
0.0
  0
LINE
  5
2C4
330
376
100
AcDbEntity
  8
0
100
AcDbLine
 10
401.5807514193571
 20
-176.8798751950078
 30
0.0
 11
413.5807514193571
 21
-176.8798751950078
 31
0.0
  0
LINE
  5
2A5
330
376
100
AcDbEntity
  8
0
100
AcDbLine
 10
322.0004949871317
 20
-176.8798751950078
 30
0.0
 11
334.0004949871317
 21
-176.8798751950078
 31
0.0
  0
LINE
  5
2A6
330
376
100
AcDbEntity
  8
0
100
AcDbLine
 10
346.0004949871317
 20
-176.8798751950078
 30
0.0
 11
358.0004949871317
 21
-176.8798751950078
 31
0.0
  0
LINE
  5
2A7
330
376
100
AcDbEntity
  8
0
100
AcDbLine
 10
274.0004949871317
 20
-176.8798751950078
 30
0.0
 11
286.0004949871317
 21
-176.8798751950078
 31
0.0
  0
LINE
  5
2A8
330
376
100
AcDbEntity
  8
0
100
AcDbLine
 10
298.0004949871317
 20
-176.8798751950078
 30
0.0
 11
310.0004949871317
 21
-176.8798751950078
 31
0.0
  0
LINE
  5
289
330
376
100
AcDbEntity
  8
0
100
AcDbLine
 10
220.4312984840163
 20
-176.8798751950078
 30
0.0
 11
232.4312984840163
 21
-176.8798751950078
 31
0.0
  0
LINE
  5
28A
330
376
100
AcDbEntity
  8
0
100
AcDbLine
 10
148.4312984840163
 20
-176.8798751950078
 30
0.0
 11
160.4312984840163
 21
-176.8798751950078
 31
0.0
  0
LINE
  5
28B
330
376
100
AcDbEntity
  8
0
100
AcDbLine
 10
172.4312984840163
 20
-176.8798751950078
 30
0.0
 11
184.4312984840163
 21
-176.8798751950078
 31
0.0
  0
LINE
  5
288
330
376
100
AcDbEntity
  8
0
100
AcDbLine
 10
196.4312984840163
 20
-176.8798751950078
 30
0.0
 11
208.4312984840163
 21
-176.8798751950078
 31
0.0
  0
LINE
  5
246
330
376
100
AcDbEntity
  8
0
100
AcDbLine
 10
70.86210198090079
 20
-176.8798751950078
 30
0.0
 11
82.86210198090079
 21
-176.8798751950078
 31
0.0
  0
LINE
  5
248
330
376
100
AcDbEntity
  8
0
100
AcDbLine
 10
94.86210198090077
 20
-176.8798751950078
 30
0.0
 11
106.8621019809008
 21
-176.8798751950078
 31
0.0
  0
LINE
  5
242
330
376
100
AcDbEntity
  8
0
100
AcDbLine
 10
22.8621019809008
 20
-176.8798751950078
 30
0.0
 11
34.8621019809008
 21
-176.8798751950078
 31
0.0
  0
LINE
  5
244
330
376
100
AcDbEntity
  8
0
100
AcDbLine
 10
46.86210198090079
 20
-176.8798751950078
 30
0.0
 11
58.86210198090079
 21
-176.8798751950078
 31
0.0
  0
HATCH
  5
34B
330
376
100
AcDbEntity
  8
0
100
AcDbHatch
 10
0.0
 20
0.0
 30
0.0
210
0.0
220
0.0
230
1.0
  2
ANSI32
 70
     0
 71
     0
 91
        1
 92
        0
 93
       19
 72
     1
 10
737.0253668333964
 20
-146.8798751950078
 11
641.0253668333964
 21
-146.8798751950078
 72
     1
 10
641.0253668333964
 20
-146.8798751950078
 11
641.0253668333964
 21
-176.8798751950078
 72
     1
 10
641.0253668333964
 20
-176.8798751950078
 11
641.0253668333964
 21
-188.8798751950078
 72
     1
 10
641.0253668333964
 20
-188.8798751950078
 11
653.0253668333964
 21
-188.8798751950078
 72
     1
 10
653.0253668333964
 20
-188.8798751950078
 11
653.0253668333964
 21
-176.8798751950078
 72
     1
 10
653.0253668333964
 20
-176.8798751950078
 11
665.0253668333964
 21
-176.8798751950078
 72
     1
 10
665.0253668333964
 20
-176.8798751950078
 11
665.0253668333964
 21
-188.8798751950078
 72
     1
 10
665.0253668333964
 20
-188.8798751950078
 11
677.0253668333964
 21
-188.8798751950078
 72
     1
 10
677.0253668333964
 20
-188.8798751950078
 11
677.0253668333964
 21
-176.8798751950078
 72
     1
 10
677.0253668333964
 20
-176.8798751950078
 11
689.0253668333964
 21
-176.8798751950078
 72
     1
 10
689.0253668333964
 20
-176.8798751950078
 11
689.0253668333964
 21
-188.8798751950078
 72
     1
 10
689.0253668333964
 20
-188.8798751950078
 11
701.0253668333964
 21
-188.8798751950078
 72
     1
 10
701.0253668333964
 20
-188.8798751950078
 11
701.0253668333964
 21
-176.8798751950078
 72
     1
 10
701.0253668333964
 20
-176.8798751950078
 11
713.0253668333964
 21
-176.8798751950078
 72
     1
 10
713.0253668333964
 20
-176.8798751950078
 11
713.0253668333964
 21
-188.8798751950078
 72
     1
 10
713.0253668333964
 20
-188.8798751950078
 11
725.0253668333964
 21
-188.8798751950078
 72
     1
 10
725.0253668333964
 20
-188.8798751950078
 11
725.0253668333964
 21
-176.8798751950078
 72
     1
 10
725.0253668333964
 20
-176.8798751950078
 11
737.0253668333964
 21
-176.8798751950078
 72
     1
 10
737.0253668333964
 20
-176.8798751950078
 11
737.0253668333964
 21
-146.8798751950078
 97
        0
 75
     0
 76
     1
 52
0.0
 41
1.0
 77
     0
 78
     2
 53
45.0
 43
0.0
 44
0.0
 45
-6.735192090801866
 46
6.735192090801866
 79
     0
 53
45.0
 43
4.49013
 44
0.0
 45
-6.735192090801866
 46
6.735192090801866
 79
     0
 98
        0
1001
ACAD
1010
0.0
1020
0.0
1030
0.0
  0
HATCH
  5
329
330
376
100
AcDbEntity
  8
0
100
AcDbHatch
 10
0.0
 20
0.0
 30
0.0
210
0.0
220
0.0
230
1.0
  2
ANSI32
 70
     0
 71
     0
 91
        1
 92
        0
 93
       19
 72
     1
 10
616.8880837126488
 20
-146.8798751950078
 11
520.8880837126488
 21
-146.8798751950078
 72
     1
 10
520.8880837126488
 20
-146.8798751950078
 11
520.8880837126488
 21
-176.8798751950078
 72
     1
 10
520.8880837126488
 20
-176.8798751950078
 11
520.8880837126488
 21
-188.8798751950078
 72
     1
 10
520.8880837126488
 20
-188.8798751950078
 11
532.8880837126488
 21
-188.8798751950078
 72
     1
 10
532.8880837126488
 20
-188.8798751950078
 11
532.8880837126488
 21
-176.8798751950078
 72
     1
 10
532.8880837126488
 20
-176.8798751950078
 11
544.8880837126488
 21
-176.8798751950078
 72
     1
 10
544.8880837126488
 20
-176.8798751950078
 11
544.8880837126488
 21
-188.8798751950078
 72
     1
 10
544.8880837126488
 20
-188.8798751950078
 11
556.8880837126488
 21
-188.8798751950078
 72
     1
 10
556.8880837126488
 20
-188.8798751950078
 11
556.8880837126488
 21
-176.8798751950078
 72
     1
 10
556.8880837126488
 20
-176.8798751950078
 11
568.8880837126488
 21
-176.8798751950078
 72
     1
 10
568.8880837126488
 20
-176.8798751950078
 11
568.8880837126488
 21
-188.8798751950078
 72
     1
 10
568.8880837126488
 20
-188.8798751950078
 11
580.8880837126488
 21
-188.8798751950078
 72
     1
 10
580.8880837126488
 20
-188.8798751950078
 11
580.8880837126488
 21
-176.8798751950078
 72
     1
 10
580.8880837126488
 20
-176.8798751950078
 11
592.8880837126488
 21
-176.8798751950078
 72
     1
 10
592.8880837126488
 20
-176.8798751950078
 11
592.8880837126488
 21
-188.8798751950078
 72
     1
 10
592.8880837126488
 20
-188.8798751950078
 11
604.8880837126488
 21
-188.8798751950078
 72
     1
 10
604.8880837126488
 20
-188.8798751950078
 11
604.8880837126488
 21
-176.8798751950078
 72
     1
 10
604.8880837126488
 20
-176.8798751950078
 11
616.8880837126488
 21
-176.8798751950078
 72
     1
 10
616.8880837126488
 20
-176.8798751950078
 11
616.8880837126488
 21
-146.8798751950078
 97
        0
 75
     0
 76
     1
 52
0.0
 41
1.0
 77
     0
 78
     2
 53
45.0
 43
0.0
 44
0.0
 45
-6.735192090801866
 46
6.735192090801866
 79
     0
 53
45.0
 43
4.49013
 44
0.0
 45
-6.735192090801866
 46
6.735192090801866
 79
     0
 98
        0
1001
ACAD
1010
0.0
1020
0.0
1030
0.0
  0
HATCH
  5
32A
330
376
100
AcDbEntity
  8
0
100
AcDbHatch
 10
0.0
 20
0.0
 30
0.0
210
0.0
220
0.0
230
1.0
  2
ANSI32
 70
     0
 71
     0
 91
        1
 92
        0
 93
       19
 72
     1
 10
485.5807514193572
 20
-146.8798751950078
 11
389.5807514193571
 21
-146.8798751950078
 72
     1
 10
389.5807514193571
 20
-146.8798751950078
 11
389.5807514193571
 21
-176.8798751950078
 72
     1
 10
389.5807514193571
 20
-176.8798751950078
 11
389.5807514193571
 21
-188.8798751950078
 72
     1
 10
389.5807514193571
 20
-188.8798751950078
 11
401.5807514193571
 21
-188.8798751950078
 72
     1
 10
401.5807514193571
 20
-188.8798751950078
 11
401.5807514193571
 21
-176.8798751950078
 72
     1
 10
401.5807514193571
 20
-176.8798751950078
 11
413.5807514193571
 21
-176.8798751950078
 72
     1
 10
413.5807514193571
 20
-176.8798751950078
 11
413.5807514193571
 21
-188.8798751950078
 72
     1
 10
413.5807514193571
 20
-188.8798751950078
 11
425.5807514193571
 21
-188.8798751950078
 72
     1
 10
425.5807514193571
 20
-188.8798751950078
 11
425.5807514193571
 21
-176.8798751950078
 72
     1
 10
425.5807514193571
 20
-176.8798751950078
 11
437.5807514193571
 21
-176.8798751950078
 72
     1
 10
437.5807514193571
 20
-176.8798751950078
 11
437.5807514193571
 21
-188.8798751950078
 72
     1
 10
437.5807514193571
 20
-188.8798751950078
 11
449.5807514193571
 21
-188.8798751950078
 72
     1
 10
449.5807514193571
 20
-188.8798751950078
 11
449.5807514193571
 21
-176.8798751950078
 72
     1
 10
449.5807514193571
 20
-176.8798751950078
 11
461.5807514193571
 21
-176.8798751950078
 72
     1
 10
461.5807514193571
 20
-176.8798751950078
 11
461.5807514193571
 21
-188.8798751950078
 72
     1
 10
461.5807514193571
 20
-188.8798751950078
 11
473.5807514193571
 21
-188.8798751950078
 72
     1
 10
473.5807514193571
 20
-188.8798751950078
 11
473.5807514193571
 21
-176.8798751950078
 72
     1
 10
473.5807514193571
 20
-176.8798751950078
 11
485.5807514193571
 21
-176.8798751950078
 72
     1
 10
485.5807514193571
 20
-176.8798751950078
 11
485.5807514193572
 21
-146.8798751950078
 97
        0
 75
     0
 76
     1
 52
0.0
 41
1.0
 77
     0
 78
     2
 53
45.0
 43
0.0
 44
0.0
 45
-6.735192090801866
 46
6.735192090801866
 79
     0
 53
45.0
 43
4.49013
 44
0.0
 45
-6.735192090801866
 46
6.735192090801866
 79
     0
 98
        0
1001
ACAD
1010
0.0
1020
0.0
1030
0.0
  0
HATCH
  5
2A9
330
376
100
AcDbEntity
  8
0
100
AcDbHatch
 10
0.0
 20
0.0
 30
0.0
210
0.0
220
0.0
230
1.0
  2
ANSI32
 70
     0
 71
     0
 91
        1
 92
        0
 93
       19
 72
     1
 10
358.0004949871318
 20
-146.8798751950078
 11
262.0004949871317
 21
-146.8798751950078
 72
     1
 10
262.0004949871317
 20
-146.8798751950078
 11
262.0004949871317
 21
-176.8798751950078
 72
     1
 10
262.0004949871317
 20
-176.8798751950078
 11
262.0004949871317
 21
-188.8798751950078
 72
     1
 10
262.0004949871317
 20
-188.8798751950078
 11
274.0004949871317
 21
-188.8798751950078
 72
     1
 10
274.0004949871317
 20
-188.8798751950078
 11
274.0004949871317
 21
-176.8798751950078
 72
     1
 10
274.0004949871317
 20
-176.8798751950078
 11
286.0004949871317
 21
-176.8798751950078
 72
     1
 10
286.0004949871317
 20
-176.8798751950078
 11
286.0004949871317
 21
-188.8798751950078
 72
     1
 10
286.0004949871317
 20
-188.8798751950078
 11
298.0004949871317
 21
-188.8798751950078
 72
     1
 10
298.0004949871317
 20
-188.8798751950078
 11
298.0004949871317
 21
-176.8798751950078
 72
     1
 10
298.0004949871317
 20
-176.8798751950078
 11
310.0004949871317
 21
-176.8798751950078
 72
     1
 10
310.0004949871317
 20
-176.8798751950078
 11
310.0004949871317
 21
-188.8798751950078
 72
     1
 10
310.0004949871317
 20
-188.8798751950078
 11
322.0004949871317
 21
-188.8798751950078
 72
     1
 10
322.0004949871317
 20
-188.8798751950078
 11
322.0004949871318
 21
-176.8798751950078
 72
     1
 10
322.0004949871318
 20
-176.8798751950078
 11
334.0004949871317
 21
-176.8798751950078
 72
     1
 10
334.0004949871317
 20
-176.8798751950078
 11
334.0004949871318
 21
-188.8798751950078
 72
     1
 10
334.0004949871318
 20
-188.8798751950078
 11
346.0004949871317
 21
-188.8798751950078
 72
     1
 10
346.0004949871317
 20
-188.8798751950078
 11
346.0004949871318
 21
-176.8798751950078
 72
     1
 10
346.0004949871318
 20
-176.8798751950078
 11
358.0004949871317
 21
-176.8798751950078
 72
     1
 10
358.0004949871317
 20
-176.8798751950078
 11
358.0004949871318
 21
-146.8798751950078
 97
        0
 75
     0
 76
     1
 52
0.0
 41
1.0
 77
     0
 78
     2
 53
45.0
 43
0.0
 44
0.0
 45
-6.735192090801866
 46
6.735192090801866
 79
     0
 53
45.0
 43
4.49013
 44
0.0
 45
-6.735192090801866
 46
6.735192090801866
 79
     0
 98
        0
1001
ACAD
1010
0.0
1020
0.0
1030
0.0
  0
HATCH
  5
28C
330
376
100
AcDbEntity
  8
0
100
AcDbHatch
 10
0.0
 20
0.0
 30
0.0
210
0.0
220
0.0
230
1.0
  2
ANSI32
 70
     0
 71
     0
 91
        1
 92
        0
 93
       19
 72
     1
 10
232.4312984840163
 20
-146.8798751950078
 11
136.4312984840163
 21
-146.8798751950078
 72
     1
 10
136.4312984840163
 20
-146.8798751950078
 11
136.4312984840163
 21
-176.8798751950078
 72
     1
 10
136.4312984840163
 20
-176.8798751950078
 11
136.4312984840163
 21
-188.8798751950078
 72
     1
 10
136.4312984840163
 20
-188.8798751950078
 11
148.4312984840163
 21
-188.8798751950078
 72
     1
 10
148.4312984840163
 20
-188.8798751950078
 11
148.4312984840163
 21
-176.8798751950078
 72
     1
 10
148.4312984840163
 20
-176.8798751950078
 11
160.4312984840163
 21
-176.8798751950078
 72
     1
 10
160.4312984840163
 20
-176.8798751950078
 11
160.4312984840163
 21
-188.8798751950078
 72
     1
 10
160.4312984840163
 20
-188.8798751950078
 11
172.4312984840163
 21
-188.8798751950078
 72
     1
 10
172.4312984840163
 20
-188.8798751950078
 11
172.4312984840163
 21
-176.8798751950078
 72
     1
 10
172.4312984840163
 20
-176.8798751950078
 11
184.4312984840163
 21
-176.8798751950078
 72
     1
 10
184.4312984840163
 20
-176.8798751950078
 11
184.4312984840163
 21
-188.8798751950078
 72
     1
 10
184.4312984840163
 20
-188.8798751950078
 11
196.4312984840163
 21
-188.8798751950078
 72
     1
 10
196.4312984840163
 20
-188.8798751950078
 11
196.4312984840163
 21
-176.8798751950078
 72
     1
 10
196.4312984840163
 20
-176.8798751950078
 11
208.4312984840163
 21
-176.8798751950078
 72
     1
 10
208.4312984840163
 20
-176.8798751950078
 11
208.4312984840163
 21
-188.8798751950078
 72
     1
 10
208.4312984840163
 20
-188.8798751950078
 11
220.4312984840163
 21
-188.8798751950078
 72
     1
 10
220.4312984840163
 20
-188.8798751950078
 11
220.4312984840163
 21
-176.8798751950078
 72
     1
 10
220.4312984840163
 20
-176.8798751950078
 11
232.4312984840163
 21
-176.8798751950078
 72
     1
 10
232.4312984840163
 20
-176.8798751950078
 11
232.4312984840163
 21
-146.8798751950078
 97
        0
 75
     0
 76
     1
 52
0.0
 41
1.0
 77
     0
 78
     2
 53
45.0
 43
0.0
 44
0.0
 45
-6.735192090801866
 46
6.735192090801866
 79
     0
 53
45.0
 43
4.49013
 44
0.0
 45
-6.735192090801866
 46
6.735192090801866
 79
     0
 98
        0
1001
ACAD
1010
0.0
1020
0.0
1030
0.0
  0
HATCH
  5
24B
330
376
100
AcDbEntity
  8
0
100
AcDbHatch
 10
0.0
 20
0.0
 30
0.0
210
0.0
220
0.0
230
1.0
  2
ANSI32
 70
     0
 71
     0
 91
        1
 92
        0
 93
       19
 72
     1
 10
106.8621019809008
 20
-146.8798751950078
 11
10.8621019809008
 21
-146.8798751950078
 72
     1
 10
10.8621019809008
 20
-146.8798751950078
 11
10.8621019809008
 21
-176.8798751950078
 72
     1
 10
10.8621019809008
 20
-176.8798751950078
 11
10.8621019809008
 21
-188.8798751950078
 72
     1
 10
10.8621019809008
 20
-188.8798751950078
 11
22.8621019809008
 21
-188.8798751950078
 72
     1
 10
22.8621019809008
 20
-188.8798751950078
 11
22.8621019809008
 21
-176.8798751950078
 72
     1
 10
22.8621019809008
 20
-176.8798751950078
 11
34.8621019809008
 21
-176.8798751950078
 72
     1
 10
34.8621019809008
 20
-176.8798751950078
 11
34.8621019809008
 21
-188.8798751950078
 72
     1
 10
34.8621019809008
 20
-188.8798751950078
 11
46.86210198090079
 21
-188.8798751950078
 72
     1
 10
46.86210198090079
 20
-188.8798751950078
 11
46.8621019809008
 21
-176.8798751950078
 72
     1
 10
46.8621019809008
 20
-176.8798751950078
 11
58.86210198090079
 21
-176.8798751950078
 72
     1
 10
58.86210198090079
 20
-176.8798751950078
 11
58.8621019809008
 21
-188.8798751950078
 72
     1
 10
58.8621019809008
 20
-188.8798751950078
 11
70.86210198090079
 21
-188.8798751950078
 72
     1
 10
70.86210198090079
 20
-188.8798751950078
 11
70.8621019809008
 21
-176.8798751950078
 72
     1
 10
70.8621019809008
 20
-176.8798751950078
 11
82.86210198090079
 21
-176.8798751950078
 72
     1
 10
82.86210198090079
 20
-176.8798751950078
 11
82.8621019809008
 21
-188.8798751950078
 72
     1
 10
82.8621019809008
 20
-188.8798751950078
 11
94.86210198090077
 21
-188.8798751950078
 72
     1
 10
94.86210198090077
 20
-188.8798751950078
 11
94.8621019809008
 21
-176.8798751950078
 72
     1
 10
94.8621019809008
 20
-176.8798751950078
 11
106.8621019809008
 21
-176.8798751950078
 72
     1
 10
106.8621019809008
 20
-176.8798751950078
 11
106.8621019809008
 21
-146.8798751950078
 97
        0
 75
     0
 76
     1
 52
0.0
 41
1.0
 77
     0
 78
     2
 53
45.0
 43
0.0
 44
0.0
 45
-6.735192090801866
 46
6.735192090801866
 79
     0
 53
45.0
 43
4.49013
 44
0.0
 45
-6.735192090801866
 46
6.735192090801866
 79
     0
 98
        0
1001
ACAD
1010
0.0
1020
0.0
1030
0.0
  0
DIMENSION
  5
2E4
330
376
100
AcDbEntity
  8
cotes
100
AcDbDimension
280
     0
 10
580.8880837126487
 20
-182.8798751950078
 30
0.0
 11
586.8880837126484
 21
-181.0048751950078
 31
0.0
 70
    32
 71
     5
 42
-1.0
 73
     0
 74
     0
 75
     0
  3
QCADDimStyle
100
AcDbAlignedDimension
 13
580.8880837126483
 23
-188.8798751950081
 33
0.0
 14
592.8880837126485
 24
-188.879875195008
 34
0.0
100
AcDbRotatedDimension
1001
ACAD
1000
DSTYLE
1002
{
1070
   279
1070
     2
1070
   179
1070
     1
1070
    41
1040
2.5
1070
    79
1070
     2
1070
   176
1070
     0
1070
   177
1070
     0
1070
   178
1070
     0
1070
   271
1070
     1
1070
    44
1040
1.25
1070
    42
1040
0.625
1070
   147
1040
0.625
1070
   140
1040
2.5
1070
    78
1070
     8
1002
}
  0
DIMENSION
  5
2C7
330
376
100
AcDbEntity
  8
cotes
100
AcDbDimension
280
     0
 10
449.580751419357
 20
-182.8798751950079
 30
0.0
 11
455.5807514193569
 21
-181.0048751950079
 31
0.0
 70
    32
 71
     5
 42
-1.0
 73
     0
 74
     0
 75
     0
  3
QCADDimStyle
100
AcDbAlignedDimension
 13
449.5807514193567
 23
-188.879875195008
 33
0.0
 14
461.5807514193571
 24
-188.8798751950079
 34
0.0
100
AcDbRotatedDimension
1001
ACAD
1000
DSTYLE
1002
{
1070
   279
1070
     2
1070
   179
1070
     1
1070
    41
1040
2.5
1070
    79
1070
     2
1070
   176
1070
     0
1070
   177
1070
     0
1070
   178
1070
     0
1070
   271
1070
     1
1070
    44
1040
1.25
1070
    42
1040
0.625
1070
   147
1040
0.625
1070
   140
1040
2.5
1070
    78
1070
     8
1002
}
  0
DIMENSION
  5
2AA
330
376
100
AcDbEntity
  8
cotes
100
AcDbDimension
280
     0
 10
322.0004949871317
 20
-182.8798751950078
 30
0.0
 11
328.0004949871317
 21
-181.0048751950078
 31
0.0
 70
    32
 71
     5
 42
-1.0
 73
     0
 74
     0
 75
     0
  3
QCADDimStyle
100
AcDbAlignedDimension
 13
322.0004949871316
 23
-188.8798751950079
 33
0.0
 14
334.0004949871317
 24
-188.8798751950078
 34
0.0
100
AcDbRotatedDimension
1001
ACAD
1000
DSTYLE
1002
{
1070
   279
1070
     2
1070
   179
1070
     1
1070
    41
1040
2.5
1070
    79
1070
     2
1070
   176
1070
     0
1070
   177
1070
     0
1070
   178
1070
     0
1070
   271
1070
     1
1070
    44
1040
1.25
1070
    42
1040
0.625
1070
   147
1040
0.625
1070
   140
1040
2.5
1070
    78
1070
     8
1002
}
  0
DIMENSION
  5
28D
330
376
100
AcDbEntity
  8
cotes
100
AcDbDimension
280
     0
 10
196.4312984840162
 20
-182.8798751950078
 30
0.0
 11
202.4312984840162
 21
-181.0048751950078
 31
0.0
 70
    32
 71
     5
 42
-1.0
 73
     0
 74
     0
 75
     0
  3
QCADDimStyle
100
AcDbAlignedDimension
 13
196.4312984840162
 23
-188.8798751950079
 33
0.0
 14
208.4312984840163
 24
-188.8798751950078
 34
0.0
100
AcDbRotatedDimension
1001
ACAD
1000
DSTYLE
1002
{
1070
   279
1070
     2
1070
   179
1070
     1
1070
    41
1040
2.5
1070
    79
1070
     2
1070
   176
1070
     0
1070
   177
1070
     0
1070
   178
1070
     0
1070
   271
1070
     1
1070
    44
1040
1.25
1070
    42
1040
0.625
1070
   147
1040
0.625
1070
   140
1040
2.5
1070
    78
1070
     8
1002
}
  0
DIMENSION
  5
270
330
376
100
AcDbEntity
  8
cotes
100
AcDbDimension
280
     0
 10
70.8621019809008
 20
-182.8798751950078
 30
0.0
 11
76.8621019809008
 21
-181.0048751950078
 31
0.0
 70
   160
 71
     5
 42
-1.0
 73
     0
 74
     0
 75
     0
  3
QCADDimStyle
100
AcDbAlignedDimension
 13
70.8621019809008
 23
-188.8798751950079
 33
0.0
 14
82.8621019809008
 24
-188.8798751950078
 34
0.0
100
AcDbRotatedDimension
1001
ACAD
1000
DSTYLE
1002
{
1070
   279
1070
     2
1070
   179
1070
     1
1070
    41
1040
2.5
1070
    79
1070
     2
1070
   176
1070
     0
1070
   177
1070
     0
1070
   178
1070
     0
1070
   271
1070
     1
1070
    44
1040
1.25
1070
    42
1040
0.625
1070
   147
1040
0.625
1070
   140
1040
2.5
1070
    78
1070
     8
1002
}
  0
CIRCLE
  5
2E5
330
376
100
AcDbEntity
  8
leds vertes
100
AcDbCircle
 10
473.5615457506617
 20
-228.551473678284
 30
0.0
 40
2.0
  0
CIRCLE
  5
2E7
330
376
100
AcDbEntity
  8
leds vertes
100
AcDbCircle
 10
600.6202730002203
 20
-228.551473678284
 30
0.0
 40
2.0
  0
HATCH
  5
32B
330
376
100
AcDbEntity
  8
leds vertes
100
AcDbHatch
 10
0.0
 20
0.0
 30
0.0
210
0.0
220
0.0
230
1.0
  2
SOLID
 70
     1
 71
     0
 91
        1
 92
        0
 93
        1
 72
     2
 10
473.5615457506617
 20
-228.551473678284
 40
2.0
 50
0.0
 51
360.0
 73
     1
 97
        0
 75
     0
 76
     1
 98
        0
  0
HATCH
  5
32C
330
376
100
AcDbEntity
  8
leds vertes
100
AcDbHatch
 10
0.0
 20
0.0
 30
0.0
210
0.0
220
0.0
230
1.0
  2
SOLID
 70
     1
 71
     0
 91
        1
 92
        0
 93
        1
 72
     2
 10
600.6202730002203
 20
-228.551473678284
 40
2.0
 50
0.0
 51
360.0
 73
     1
 97
        0
 75
     0
 76
     1
 98
        0
  0
LINE
  5
34A
330
376
100
AcDbEntity
  8
epure
  6
DOT2
100
AcDbLine
 10
701.0253668333966
 20
-188.8798751950078
 30
0.0
 11
701.0253668333966
 21
-192.5878109244288
 31
0.0
  0
LINE
  5
2EE
330
376
100
AcDbEntity
  8
epure
  6
DOT2
100
AcDbLine
 10
310.0004949871317
 20
-188.8798751950078
 30
0.0
 11
310.0004949871317
 21
-192.5878109244288
 31
0.0
  0
LINE
  5
2E9
330
376
100
AcDbEntity
  8
epure
  6
DOT2
100
AcDbLine
 10
46.8621019809008
 20
-188.8798751950078
 30
0.0
 11
46.8621019809008
 21
-192.5878109244288
 31
0.0
  0
LINE
  5
2EA
330
376
100
AcDbEntity
  8
epure
100
AcDbLine
 10
87.69128644256058
 20
39.14249850743558
 30
0.0
 11
87.6912864425606
 21
45.15103650546013
 31
0.0
  0
LINE
  5
2EB
330
376
100
AcDbEntity
  8
epure
100
AcDbLine
 10
95.69128644256058
 20
39.14249850743558
 30
0.0
 11
95.6912864425606
 21
45.15103650546013
 31
0.0
  0
LINE
  5
324
330
376
100
AcDbEntity
  8
epure
100
AcDbLine
 10
469.4744606964179
 20
45.15103650546013
 30
0.0
 11
469.4744606964179
 21
39.14249850743562
 31
0.0
  0
LINE
  5
325
330
376
100
AcDbEntity
  8
epure
100
AcDbLine
 10
477.4744606964179
 20
45.15103650546013
 30
0.0
 11
477.4744606964179
 21
39.14249850743562
 31
0.0
  0
MTEXT
  5
2EF
330
376
100
AcDbEntity
  8
0
100
AcDbMText
 10
-33.01413134215073
 20
-224.1817160686425
 30
0.0
 40
1.0
 41
0.0
 46
0.0
 71
     5
 72
     1
  1
\c0;\H10;12mm fingers \P/\P 8 mm blade
  7
textstyle21
 73
     1
 44
1.0
  0
MTEXT
  5
2F1
330
376
100
AcDbEntity
  8
0
100
AcDbMText
 10
-38.30722342538961
 20
62.1348540251434
 30
0.0
 40
1.0
 41
0.0
 46
0.0
 71
     5
 72
     1
  1
\c0;\H10;8 mm fingers \P/\P 8 mm blade
  7
textstyle22
 73
     1
 44
1.0
  0
VIEWPORT
  5
447
330
372
100
AcDbEntity
 67
     1
  8
0
 62
    18
420
        0
100
AcDbViewport
 10
128.5
 20
97.5
 30
0.0
 40
314.226
 41
222.18
 68
     1
 69
     1
 12
128.5
 22
97.5
 13
0.0
 23
0.0
 14
10.0
 24
10.0
 15
10.0
 25
10.0
 16
0.0
 26
0.0
 36
1.0
 17
0.0
 27
0.0
 37
0.0
 42
50.0
 43
0.0
 44
0.0
 45
222.18
 50
0.0
 51
0.0
 72
   100
 90
   557152
  1

281
     0
 71
     1
 74
     0
110
0.0
120
0.0
130
0.0
111
1.0
121
0.0
131
0.0
112
0.0
122
1.0
132
0.0
 79
     0
146
0.0
170
     0
 61
     5
292
     1
282
     1
141
0.0
142
0.0
 63
   256
361
448
  0
ENDSEC
  0
SECTION
  2
OBJECTS
  0
DICTIONARY
  5
364
330
0
100
AcDbDictionary
281
     1
  3
ACAD_DETAILVIEWSTYLE
350
45C
  3
ACAD_GROUP
350
365
  3
ACAD_LAYOUT
350
371
  3
ACAD_MATERIAL
350
39A
  3
ACAD_MLEADERSTYLE
350
3C2
  3
ACAD_MLINESTYLE
350
36E
  3
ACAD_PLOTSETTINGS
350
370
  3
ACAD_PLOTSTYLENAME
350
366
  3
ACAD_SCALELIST
350
39E
  3
ACAD_SECTIONVIEWSTYLE
350
45D
  3
ACAD_TABLESTYLE
350
3C0
  3
ACAD_VISUALSTYLE
350
381
  3
ACDB_RECOMPOSE_DATA
350
459
  3
AcDbVariableDictionary
350
455
  3
QCAD_OBJECTS
350
3C6
  0
SUN
  5
3C4
330
380
100
AcDbSun
 90
        1
290
     0
 63
     7
421
 16777215
 40
1.0
291
     1
 91
  2455826
 92
 54000000
292
     0
 70
     2
 71
   256
280
     1
  0
SUN
  5
448
330
447
100
AcDbSun
 90
        1
290
     0
 63
     7
421
 16777215
 40
1.0
291
     1
 91
  2455826
 92
 54000000
292
     0
 70
     2
 71
   256
280
     1
  0
DICTIONARY
  5
45C
102
{ACAD_REACTORS
330
364
102
}
330
364
100
AcDbDictionary
281
     1
  0
DICTIONARY
  5
365
102
{ACAD_REACTORS
330
364
102
}
330
364
100
AcDbDictionary
281
     1
  0
DICTIONARY
  5
371
102
{ACAD_REACTORS
330
364
102
}
330
364
100
AcDbDictionary
281
     1
  3
Layout1
350
375
  3
Model
350
379
  0
DICTIONARY
  5
39A
102
{ACAD_REACTORS
330
364
102
}
330
364
100
AcDbDictionary
281
     1
  3
ByBlock
350
39C
  3
ByLayer
350
39B
  3
Global
350
39D
  0
DICTIONARY
  5
3C2
102
{ACAD_REACTORS
330
364
102
}
330
364
100
AcDbDictionary
281
     1
  3
Standard
350
3C3
  0
DICTIONARY
  5
36E
102
{ACAD_REACTORS
330
364
102
}
330
364
100
AcDbDictionary
281
     1
  3
Standard
350
36F
  0
DICTIONARY
  5
370
102
{ACAD_REACTORS
330
364
102
}
330
364
100
AcDbDictionary
281
     1
  0
ACDBDICTIONARYWDFLT
  5
366
102
{ACAD_REACTORS
330
364
102
}
330
364
100
AcDbDictionary
281
     1
  3
Normal
350
367
100
AcDbDictionaryWithDefault
340
367
  0
DICTIONARY
  5
39E
102
{ACAD_REACTORS
330
364
102
}
330
364
100
AcDbDictionary
281
     1
  3
A0
350
39F
  3
A1
350
3A0
  3
A2
350
3A1
  3
A3
350
3A2
  3
A4
350
3A3
  3
A5
350
3A4
  3
A6
350
3A5
  3
A7
350
3A6
  3
A8
350
3A7
  3
A9
350
3A8
  3
B0
350
3A9
  3
B1
350
3AA
  3
B2
350
3AB
  3
B3
350
3AC
  3
B4
350
3AD
  3
B5
350
3AE
  3
B6
350
3AF
  3
B7
350
3B0
  3
B8
350
3B1
  3
B9
350
3B2
  3
C0
350
3B3
  3
C1
350
3B4
  3
C2
350
3B5
  3
C3
350
3B6
  3
C4
350
3B7
  3
C5
350
3B8
  3
C6
350
3B9
  3
C7
350
3BA
  3
C8
350
3BB
  3
C9
350
3BC
  3
D0
350
3BD
  3
D1
350
3BE
  3
D2
350
3BF
  0
DICTIONARY
  5
45D
102
{ACAD_REACTORS
330
364
102
}
330
364
100
AcDbDictionary
281
     1
  0
DICTIONARY
  5
3C0
102
{ACAD_REACTORS
330
364
102
}
330
364
100
AcDbDictionary
281
     1
  3
Standard
350
3C1
  0
DICTIONARY
  5
381
102
{ACAD_REACTORS
330
364
102
}
330
364
100
AcDbDictionary
281
     1
  3
2dWireframe
350
386
  3
Basic
350
389
  3
Brighten
350
38D
  3
ColorChange
350
391
  3
Conceptual
350
38B
  3
Dim
350
38C
  3
EdgeColorOff
350
394
  3
Facepattern
350
390
  3
Flat
350
382
  3
FlatWithEdges
350
383
  3
Gouraud
350
384
  3
GouraudWithEdges
350
385
  3
Hidden
350
388
  3
JitterOff
350
392
  3
Linepattern
350
38F
  3
OverhangOff
350
393
  3
Realistic
350
38A
  3
Shaded
350
399
  3
Shaded with edges
350
398
  3
Shades of Gray
350
395
  3
Sketchy
350
396
  3
Thicken
350
38E
  3
Wireframe
350
387
  3
X-Ray
350
397
  0
XRECORD
  5
459
102
{ACAD_REACTORS
330
364
102
}
330
364
100
AcDbXrecord
280
     1
 90
        1
330
3C1
  0
DICTIONARY
  5
455
102
{ACAD_REACTORS
330
364
102
}
330
364
100
AcDbDictionary
281
     1
  3
CANNOSCALE
350
456
  3
CMLEADERSTYLE
350
45B
  3
CTABLESTYLE
350
45A
  0
DICTIONARY
  5
3C6
102
{ACAD_REACTORS
330
364
102
}
330
364
100
AcDbDictionary
281
     1
  3
ColorSettings/BackgroundColor
350
3C8
  3
ColorSettings/ColorMode
350
3C9
  3
Grid/DisplayGrid00
350
3CA
  3
Grid/DisplayGrid01
350
3CB
  3
Grid/DisplayGrid02
350
3CC
  3
Grid/DisplayGrid03
350
3CD
  3
Grid/GridSpacingX00
350
3CE
  3
Grid/GridSpacingX01
350
3CF
  3
Grid/GridSpacingX02
350
3D0
  3
Grid/GridSpacingX03
350
3D1
  3
Grid/GridSpacingY00
350
3D2
  3
Grid/GridSpacingY01
350
3D3
  3
Grid/GridSpacingY02
350
3D4
  3
Grid/GridSpacingY03
350
3D5
  3
Grid/IsometricGrid00
350
3D6
  3
Grid/IsometricGrid01
350
3D7
  3
Grid/IsometricGrid02
350
3D8
  3
Grid/IsometricGrid03
350
3D9
  3
Grid/IsometricProjection00
350
3DA
  3
Grid/IsometricProjection01
350
3DB
  3
Grid/IsometricProjection02
350
3DC
  3
Grid/IsometricProjection03
350
3DD
  3
Grid/MetaGridSpacingX00
350
3DE
  3
Grid/MetaGridSpacingX01
350
3DF
  3
Grid/MetaGridSpacingX02
350
3E0
  3
Grid/MetaGridSpacingX03
350
3E1
  3
Grid/MetaGridSpacingY00
350
3E2
  3
Grid/MetaGridSpacingY01
350
3E3
  3
Grid/MetaGridSpacingY02
350
3E4
  3
Grid/MetaGridSpacingY03
350
3E5
  3
MultiPageSettings/Columns
350
3E6
  3
MultiPageSettings/GlueMarginsBottom
350
3E7
  3
MultiPageSettings/GlueMarginsLeft
350
3E8
  3
MultiPageSettings/GlueMarginsRight
350
3E9
  3
MultiPageSettings/GlueMarginsTop
350
3EA
  3
MultiPageSettings/PrintCropMarks
350
3EB
  3
MultiPageSettings/Rows
350
3EC
  3
PageSettings/OffsetX
350
3ED
  3
PageSettings/OffsetY
350
3EE
  3
PageSettings/PageOrientation
350
3EF
  3
PageSettings/PaperHeight
350
3F0
  3
PageSettings/PaperSizeName
350
3F1
  3
PageSettings/PaperWidth
350
3F2
  3
PageSettings/Scale
350
3F3
  3
PageSettings/ShowPaperBorders
350
3F4
  3
QCADVersion
350
3F5
  3
UnitSettings/PaperUnit
350
3F6
  3
ViewportCenter
350
3F7
  3
ViewportHeight
350
3F8
  3
ViewportWidth
350
3F9
  0
LAYOUT
  5
375
102
{ACAD_REACTORS
330
371
102
}
330
371
100
AcDbPlotSettings
  1

  2
none_device
  4
ISO_A4_(210.00_x_297.00_MM)
  6

 40
7.5
 41
20.0
 42
7.5
 43
20.0
 44
210.0
 45
297.0
 46
0.0
 47
0.0
 48
0.0
 49
0.0
140
0.0
141
0.0
142
1.0
143
1.0
 70
   688
 72
     1
 73
     1
 74
     5
  7

 75
    16
 76
     0
 77
     2
 78
   300
147
1.0
148
0.0
149
0.0
100
AcDbLayout
  1
Layout1
 70
     1
 71
     0
 10
-20.0
 20
-7.5
 11
277.0
 21
202.5
 12
0.0
 22
0.0
 32
0.0
 14
0.0
 24
0.0
 34
0.0
 15
0.0
 25
0.0
 35
0.0
146
0.0
 13
0.0
 23
0.0
 33
0.0
 16
1.0
 26
0.0
 36
0.0
 17
0.0
 27
1.0
 37
0.0
 76
     0
330
372
331
447
  0
LAYOUT
  5
379
102
{ACAD_REACTORS
330
371
102
}
330
371
100
AcDbPlotSettings
  1

  2
none_device
  4
Letter_(8.50_x_11.00_Inches)
  6

 40
6.35
 41
6.35
 42
6.35000508
 43
6.35000508
 44
215.9
 45
279.4
 46
0.0
 47
0.0
 48
0.0
 49
0.0
140
0.0
141
0.0
142
1.0
143
1.0
 70
  1712
 72
     0
 73
     0
 74
     0
  7

 75
     0
 76
     0
 77
     2
 78
   300
147
1.0
148
0.0
149
0.0
100
AcDbLayout
  1
Model
 70
     1
 71
     0
 10
0.0
 20
0.0
 11
12.0
 21
9.0
 12
0.0
 22
0.0
 32
0.0
 14
1.000000000000000E+20
 24
1.000000000000000E+20
 34
1.000000000000000E+20
 15
-1.000000000000000E+20
 25
-1.000000000000000E+20
 35
-1.000000000000000E+20
146
0.0
 13
0.0
 23
0.0
 33
0.0
 16
1.0
 26
0.0
 36
0.0
 17
0.0
 27
1.0
 37
0.0
 76
     0
330
376
331
380
  0
MATERIAL
  5
39C
102
{ACAD_REACTORS
330
39A
102
}
330
39A
100
AcDbMaterial
  1
ByBlock
 72
     1
 94
      127
  0
MATERIAL
  5
39B
102
{ACAD_REACTORS
330
39A
102
}
330
39A
100
AcDbMaterial
  1
ByLayer
 72
     1
 94
      127
  0
MATERIAL
  5
39D
102
{ACAD_REACTORS
330
39A
102
}
330
39A
100
AcDbMaterial
  1
Global
 72
     1
 94
      127
  0
MLEADERSTYLE
  5
3C3
102
{ACAD_REACTORS
330
3C2
102
}
330
3C2
100
AcDbMLeaderStyle
179
     2
170
     2
171
     1
172
     0
 90
        2
 40
0.0
 41
0.0
173
     1
 91
-1056964608
340
36B
 92
       -2
290
     1
 42
0.09
291
     1
 43
0.36
  3
Standard
341
0
 44
0.18
300

342
369
174
     1
178
     6
175
     1
176
     0
 93
-1056964608
 45
0.18
292
     0
297
     0
 46
0.18
343
0
 94
-1056964608
 47
1.0
 49
1.0
140
1.0
293
     1
141
0.0
294
     1
177
     0
142
1.0
295
     0
296
     0
143
0.125
271
     0
272
     9
273
     9
298
     0
  0
MLINESTYLE
  5
36F
102
{ACAD_REACTORS
330
36E
102
}
330
36E
100
AcDbMlineStyle
  2
Standard
 70
     0
  3

 62
   256
 51
90.0
 52
90.0
 71
     2
 49
0.5
 62
   256
  6
BYLAYER
 49
-0.5
 62
   256
  6
BYLAYER
  0
ACDBPLACEHOLDER
  5
367
102
{ACAD_REACTORS
330
366
102
}
330
366
  0
SCALE
  5
39F
102
{ACAD_REACTORS
330
39E
102
}
330
39E
100
AcDbScale
 70
     0
300
1:1
140
1.0
141
1.0
290
     1
  0
SCALE
  5
3A0
102
{ACAD_REACTORS
330
39E
102
}
330
39E
100
AcDbScale
 70
     0
300
1:2
140
1.0
141
2.0
290
     0
  0
SCALE
  5
3A1
102
{ACAD_REACTORS
330
39E
102
}
330
39E
100
AcDbScale
 70
     0
300
1:4
140
1.0
141
4.0
290
     0
  0
SCALE
  5
3A2
102
{ACAD_REACTORS
330
39E
102
}
330
39E
100
AcDbScale
 70
     0
300
1:5
140
1.0
141
5.0
290
     0
  0
SCALE
  5
3A3
102
{ACAD_REACTORS
330
39E
102
}
330
39E
100
AcDbScale
 70
     0
300
1:8
140
1.0
141
8.0
290
     0
  0
SCALE
  5
3A4
102
{ACAD_REACTORS
330
39E
102
}
330
39E
100
AcDbScale
 70
     0
300
1:10
140
1.0
141
10.0
290
     0
  0
SCALE
  5
3A5
102
{ACAD_REACTORS
330
39E
102
}
330
39E
100
AcDbScale
 70
     0
300
1:16
140
1.0
141
16.0
290
     0
  0
SCALE
  5
3A6
102
{ACAD_REACTORS
330
39E
102
}
330
39E
100
AcDbScale
 70
     0
300
1:20
140
1.0
141
20.0
290
     0
  0
SCALE
  5
3A7
102
{ACAD_REACTORS
330
39E
102
}
330
39E
100
AcDbScale
 70
     0
300
1:30
140
1.0
141
30.0
290
     0
  0
SCALE
  5
3A8
102
{ACAD_REACTORS
330
39E
102
}
330
39E
100
AcDbScale
 70
     0
300
1:40
140
1.0
141
40.0
290
     0
  0
SCALE
  5
3A9
102
{ACAD_REACTORS
330
39E
102
}
330
39E
100
AcDbScale
 70
     0
300
1:50
140
1.0
141
50.0
290
     0
  0
SCALE
  5
3AA
102
{ACAD_REACTORS
330
39E
102
}
330
39E
100
AcDbScale
 70
     0
300
1:100
140
1.0
141
100.0
290
     0
  0
SCALE
  5
3AB
102
{ACAD_REACTORS
330
39E
102
}
330
39E
100
AcDbScale
 70
     0
300
2:1
140
2.0
141
1.0
290
     0
  0
SCALE
  5
3AC
102
{ACAD_REACTORS
330
39E
102
}
330
39E
100
AcDbScale
 70
     0
300
4:1
140
4.0
141
1.0
290
     0
  0
SCALE
  5
3AD
102
{ACAD_REACTORS
330
39E
102
}
330
39E
100
AcDbScale
 70
     0
300
8:1
140
8.0
141
1.0
290
     0
  0
SCALE
  5
3AE
102
{ACAD_REACTORS
330
39E
102
}
330
39E
100
AcDbScale
 70
     0
300
10:1
140
10.0
141
1.0
290
     0
  0
SCALE
  5
3AF
102
{ACAD_REACTORS
330
39E
102
}
330
39E
100
AcDbScale
 70
     0
300
100:1
140
100.0
141
1.0
290
     0
  0
SCALE
  5
3B0
102
{ACAD_REACTORS
330
39E
102
}
330
39E
100
AcDbScale
 70
     0
300
1/128" = 1'-0"
140
0.0078125
141
12.0
290
     0
  0
SCALE
  5
3B1
102
{ACAD_REACTORS
330
39E
102
}
330
39E
100
AcDbScale
 70
     0
300
1/64" = 1'-0"
140
0.015625
141
12.0
290
     0
  0
SCALE
  5
3B2
102
{ACAD_REACTORS
330
39E
102
}
330
39E
100
AcDbScale
 70
     0
300
1/32" = 1'-0"
140
0.03125
141
12.0
290
     0
  0
SCALE
  5
3B3
102
{ACAD_REACTORS
330
39E
102
}
330
39E
100
AcDbScale
 70
     0
300
1/16" = 1'-0"
140
0.0625
141
12.0
290
     0
  0
SCALE
  5
3B4
102
{ACAD_REACTORS
330
39E
102
}
330
39E
100
AcDbScale
 70
     0
300
3/32" = 1'-0"
140
0.09375
141
12.0
290
     0
  0
SCALE
  5
3B5
102
{ACAD_REACTORS
330
39E
102
}
330
39E
100
AcDbScale
 70
     0
300
1/8" = 1'-0"
140
0.125
141
12.0
290
     0
  0
SCALE
  5
3B6
102
{ACAD_REACTORS
330
39E
102
}
330
39E
100
AcDbScale
 70
     0
300
3/16" = 1'-0"
140
0.1875
141
12.0
290
     0
  0
SCALE
  5
3B7
102
{ACAD_REACTORS
330
39E
102
}
330
39E
100
AcDbScale
 70
     0
300
1/4" = 1'-0"
140
0.25
141
12.0
290
     0
  0
SCALE
  5
3B8
102
{ACAD_REACTORS
330
39E
102
}
330
39E
100
AcDbScale
 70
     0
300
3/8" = 1'-0"
140
0.375
141
12.0
290
     0
  0
SCALE
  5
3B9
102
{ACAD_REACTORS
330
39E
102
}
330
39E
100
AcDbScale
 70
     0
300
1/2" = 1'-0"
140
0.5
141
12.0
290
     0
  0
SCALE
  5
3BA
102
{ACAD_REACTORS
330
39E
102
}
330
39E
100
AcDbScale
 70
     0
300
3/4" = 1'-0"
140
0.75
141
12.0
290
     0
  0
SCALE
  5
3BB
102
{ACAD_REACTORS
330
39E
102
}
330
39E
100
AcDbScale
 70
     0
300
1" = 1'-0"
140
1.0
141
12.0
290
     0
  0
SCALE
  5
3BC
102
{ACAD_REACTORS
330
39E
102
}
330
39E
100
AcDbScale
 70
     0
300
1-1/2" = 1'-0"
140
1.5
141
12.0
290
     0
  0
SCALE
  5
3BD
102
{ACAD_REACTORS
330
39E
102
}
330
39E
100
AcDbScale
 70
     0
300
3" = 1'-0"
140
3.0
141
12.0
290
     0
  0
SCALE
  5
3BE
102
{ACAD_REACTORS
330
39E
102
}
330
39E
100
AcDbScale
 70
     0
300
6" = 1'-0"
140
6.0
141
12.0
290
     0
  0
SCALE
  5
3BF
102
{ACAD_REACTORS
330
39E
102
}
330
39E
100
AcDbScale
 70
     0
300
1'-0" = 1'-0"
140
12.0
141
12.0
290
     0
  0
TABLESTYLE
  5
3C1
102
{ACAD_REACTORS
330
3C0
102
}
102
{ACAD_XDICTIONARY
360
457
102
}
330
3C0
100
AcDbTableStyle
  3
Standard
 70
     0
 71
     0
 40
0.06
 41
0.06
280
     0
281
     0
  7
Standard
140
0.18
170
     2
 62
     0
 63
   257
283
     0
 90
        4
 91
        0
  1

274
    -2
284
     1
 64
     0
275
    -2
285
     1
 65
     0
276
    -2
286
     1
 66
     0
277
    -2
287
     1
 67
     0
278
    -2
288
     1
 68
     0
279
    -2
289
     1
 69
     0
  7
Standard
140
0.25
170
     5
 62
     0
 63
   257
283
     0
 90
        4
 91
        0
  1

274
    -2
284
     1
 64
     0
275
    -2
285
     1
 65
     0
276
    -2
286
     1
 66
     0
277
    -2
287
     1
 67
     0
278
    -2
288
     1
 68
     0
279
    -2
289
     1
 69
     0
  7
Standard
140
0.18
170
     5
 62
     0
 63
   257
283
     0
 90
        4
 91
        0
  1

274
    -2
284
     1
 64
     0
275
    -2
285
     1
 65
     0
276
    -2
286
     1
 66
     0
277
    -2
287
     1
 67
     0
278
    -2
288
     1
 68
     0
279
    -2
289
     1
 69
     0
  0
VISUALSTYLE
  5
386
102
{ACAD_REACTORS
330
381
102
}
330
381
100
AcDbVisualStyle
  2
2dWireframe
 70
     4
177
     3
291
     0
 70
    58
 90
        0
176
     1
 90
        2
176
     1
 90
        0
176
     1
 90
        0
176
     1
 40
0.6
176
     1
 40
30.0
176
     1
 62
     7
420
 16777215
176
     1
 90
        1
176
     1
 90
        4
176
     1
 62
     7
176
     1
 62
   257
176
     1
 90
        1
176
     1
 90
        1
176
     1
 40
1.0
176
     1
 90
        0
176
     1
 62
   257
176
     1
 40
1.0
176
     1
 90
        1
176
     1
 90
        6
176
     1
 90
        2
176
     1
 62
     7
176
     1
 90
        5
176
     1
 90
        0
176
     1
 90
        0
176
     1
290
     0
176
     1
 90
        1
176
     1
 40
0.0
176
     1
 90
        0
176
     1
290
     1
176
     1
290
     1
176
     1
290
     0
176
     1
290
     0
176
     1
290
     0
176
     1
290
     0
176
     1
290
     0
176
     1
290
     0
176
     1
290
     0
176
     1
 90
       50
176
     1
 40
0.0
176
     1
 40
1.0
176
     1
 90
        0
176
     1
 62
    18
420
        0
176
     1
 90
       50
176
     1
 90
        3
176
     1
 62
     5
420
      255
176
     1
290
     0
176
     1
 90
       50
176
     1
 90
       50
176
     1
 90
       50
176
     1
290
     0
176
     1
 90
       50
176
     1
 62
   256
176
     0
 40
1.0
176
     0
 90
        2
176
     1
  1
strokes_ogs.tif
176
     1
290
     0
176
     1
 40
1.0
176
     1
 40
1.0
176
     1
  0
VISUALSTYLE
  5
389
102
{ACAD_REACTORS
330
381
102
}
330
381
100
AcDbVisualStyle
  2
Basic
 70
     7
177
     3
291
     1
 70
    58
 90
        1
176
     1
 90
        0
176
     1
 90
        1
176
     1
 90
        0
176
     1
 40
0.6
176
     1
 40
30.0
176
     1
 62
     7
420
 16777215
176
     1
 90
        0
176
     1
 90
        4
176
     1
 62
     7
176
     1
 62
   257
176
     1
 90
        1
176
     1
 90
        1
176
     1
 40
1.0
176
     1
 90
        8
176
     1
 62
     7
176
     1
 40
1.0
176
     1
 90
        1
176
     1
 90
        6
176
     1
 90
        2
176
     1
 62
     7
176
     1
 90
        5
176
     1
 90
        0
176
     1
 90
        0
176
     1
290
     0
176
     1
 90
        1
176
     1
 40
0.0
176
     1
 90
        0
176
     1
290
     0
176
     1
290
     1
176
     1
290
     1
176
     1
290
     0
176
     1
290
     0
176
     1
290
     0
176
     1
290
     0
176
     1
290
     0
176
     1
290
     0
176
     1
 90
       50
176
     1
 40
0.0
176
     1
 40
1.0
176
     1
 90
        0
176
     1
 62
    18
420
        0
176
     1
 90
       50
176
     1
 90
        3
176
     1
 62
     5
420
      255
176
     1
290
     0
176
     1
 90
       50
176
     1
 90
       50
176
     1
 90
       50
176
     1
290
     0
176
     1
 90
       50
176
     1
 62
   256
176
     0
 40
1.0
176
     0
 90
        2
176
     1
  1
strokes_ogs.tif
176
     1
290
     0
176
     1
 40
1.0
176
     1
 40
1.0
176
     1
  0
VISUALSTYLE
  5
38D
102
{ACAD_REACTORS
330
381
102
}
330
381
100
AcDbVisualStyle
  2
Brighten
 70
    12
177
     3
291
     1
 70
    58
 90
        2
176
     1
 90
        2
176
     1
 90
        0
176
     1
 90
        0
176
     1
 40
0.6
176
     1
 40
30.0
176
     1
 62
     7
420
 16777215
176
     1
 90
        1
176
     1
 90
        4
176
     1
 62
     7
176
     1
 62
   257
176
     1
 90
        1
176
     1
 90
        1
176
     1
 40
1.0
176
     1
 90
        8
176
     1
 62
     7
176
     1
 40
1.0
176
     1
 90
        1
176
     1
 90
        6
176
     1
 90
        2
176
     1
 62
     7
176
     1
 90
        5
176
     1
 90
        0
176
     1
 90
        0
176
     1
290
     0
176
     1
 90
        1
176
     1
 40
50.0
176
     1
 90
        0
176
     1
290
     0
176
     1
290
     1
176
     1
290
     1
176
     1
290
     0
176
     1
290
     0
176
     1
290
     0
176
     1
290
     0
176
     1
290
     0
176
     1
290
     0
176
     1
 90
       50
176
     1
 40
0.0
176
     1
 40
1.0
176
     1
 90
        0
176
     1
 62
    18
420
        0
176
     1
 90
       50
176
     1
 90
        3
176
     1
 62
     5
420
      255
176
     1
290
     0
176
     1
 90
       50
176
     1
 90
       50
176
     1
 90
       50
176
     1
290
     0
176
     1
 90
       50
176
     1
 62
   256
176
     0
 40
1.0
176
     0
 90
        2
176
     1
  1
strokes_ogs.tif
176
     1
290
     0
176
     1
 40
1.0
176
     1
 40
1.0
176
     1
  0
VISUALSTYLE
  5
391
102
{ACAD_REACTORS
330
381
102
}
330
381
100
AcDbVisualStyle
  2
ColorChange
 70
    16
177
     3
291
     1
 70
    58
 90
        2
176
     1
 90
        2
176
     1
 90
        3
176
     1
 90
        0
176
     1
 40
0.6
176
     1
 40
30.0
176
     1
 62
     8
420
  8421504
176
     1
 90
        1
176
     1
 90
        4
176
     1
 62
     7
176
     1
 62
   257
176
     1
 90
        1
176
     1
 90
        1
176
     1
 40
1.0
176
     1
 90
        8
176
     1
 62
     8
420
  8421504
176
     1
 40
1.0
176
     1
 90
        1
176
     1
 90
        6
176
     1
 90
        2
176
     1
 62
     7
176
     1
 90
        5
176
     1
 90
        0
176
     1
 90
        0
176
     1
290
     0
176
     1
 90
        1
176
     1
 40
0.0
176
     1
 90
        0
176
     1
290
     0
176
     1
290
     1
176
     1
290
     1
176
     1
290
     0
176
     1
290
     0
176
     1
290
     0
176
     1
290
     0
176
     1
290
     0
176
     1
290
     0
176
     1
 90
       50
176
     1
 40
0.0
176
     1
 40
1.0
176
     1
 90
        0
176
     1
 62
    18
420
        0
176
     1
 90
       50
176
     1
 90
        3
176
     1
 62
     5
420
      255
176
     1
290
     0
176
     1
 90
       50
176
     1
 90
       50
176
     1
 90
       50
176
     1
290
     0
176
     1
 90
       50
176
     1
 62
   256
176
     0
 40
1.0
176
     0
 90
        2
176
     1
  1
strokes_ogs.tif
176
     1
290
     0
176
     1
 40
1.0
176
     1
 40
1.0
176
     1
  0
VISUALSTYLE
  5
38B
102
{ACAD_REACTORS
330
381
102
}
330
381
100
AcDbVisualStyle
  2
Conceptual
 70
     9
177
     3
291
     0
 70
    58
 90
        3
176
     1
 90
        2
176
     1
 90
        0
176
     1
 90
        0
176
     1
 40
0.6
176
     1
 40
30.0
176
     1
 62
     7
420
 16777215
176
     1
 90
        2
176
     1
 90
        2
176
     1
 62
     7
176
     1
 62
   257
176
     1
 90
        1
176
     1
 90
        1
176
     1
 40
179.0
176
     1
 90
        8
176
     1
 62
     7
176
     1
 40
1.0
176
     1
 90
        1
176
     1
 90
        6
176
     1
 90
        2
176
     1
 62
     7
176
     1
 90
        3
176
     1
 90
        0
176
     1
 90
        0
176
     1
290
     0
176
     1
 90
        1
176
     1
 40
0.0
176
     1
 90
        0
176
     1
290
     0
176
     1
290
     1
176
     1
290
     1
176
     1
290
     0
176
     1
290
     0
176
     1
290
     0
176
     1
290
     0
176
     1
290
     0
176
     1
290
     0
176
     1
 90
       50
176
     1
 40
0.0
176
     1
 40
1.0
176
     1
 90
        0
176
     1
 62
    18
420
        0
176
     1
 90
       50
176
     1
 90
        3
176
     1
 62
     5
420
      255
176
     1
290
     0
176
     1
 90
       50
176
     1
 90
       50
176
     1
 90
       50
176
     1
290
     0
176
     1
 90
       50
176
     1
 62
   256
176
     0
 40
1.0
176
     0
 90
        2
176
     1
  1
strokes_ogs.tif
176
     1
290
     0
176
     1
 40
1.0
176
     1
 40
1.0
176
     1
  0
VISUALSTYLE
  5
38C
102
{ACAD_REACTORS
330
381
102
}
330
381
100
AcDbVisualStyle
  2
Dim
 70
    11
177
     3
291
     1
 70
    58
 90
        2
176
     1
 90
        2
176
     1
 90
        0
176
     1
 90
        0
176
     1
 40
0.6
176
     1
 40
30.0
176
     1
 62
     7
420
 16777215
176
     1
 90
        1
176
     1
 90
        4
176
     1
 62
     7
176
     1
 62
   257
176
     1
 90
        1
176
     1
 90
        1
176
     1
 40
1.0
176
     1
 90
        8
176
     1
 62
     7
176
     1
 40
1.0
176
     1
 90
        1
176
     1
 90
        6
176
     1
 90
        2
176
     1
 62
     7
176
     1
 90
        5
176
     1
 90
        0
176
     1
 90
        0
176
     1
290
     0
176
     1
 90
        1
176
     1
 40
-50.0
176
     1
 90
        0
176
     1
290
     0
176
     1
290
     1
176
     1
290
     1
176
     1
290
     0
176
     1
290
     0
176
     1
290
     0
176
     1
290
     0
176
     1
290
     0
176
     1
290
     0
176
     1
 90
       50
176
     1
 40
0.0
176
     1
 40
1.0
176
     1
 90
        0
176
     1
 62
    18
420
        0
176
     1
 90
       50
176
     1
 90
        3
176
     1
 62
     5
420
      255
176
     1
290
     0
176
     1
 90
       50
176
     1
 90
       50
176
     1
 90
       50
176
     1
290
     0
176
     1
 90
       50
176
     1
 62
   256
176
     0
 40
1.0
176
     0
 90
        2
176
     1
  1
strokes_ogs.tif
176
     1
290
     0
176
     1
 40
1.0
176
     1
 40
1.0
176
     1
  0
VISUALSTYLE
  5
394
102
{ACAD_REACTORS
330
381
102
}
330
381
100
AcDbVisualStyle
  2
EdgeColorOff
 70
    22
177
     3
291
     1
 70
    58
 90
        2
176
     0
 90
        2
176
     0
 90
        0
176
     0
 90
        0
176
     0
 40
0.6
176
     0
 40
30.0
176
     0
 62
     7
420
 16777215
176
     0
 90
        1
176
     0
 90
        4
176
     0
 62
     7
176
     0
 62
   257
176
     0
 90
        1
176
     0
 90
        1
176
     0
 40
1.0
176
     0
 90
        8
176
     2
 62
     7
176
     0
 40
1.0
176
     0
 90
        1
176
     0
 90
        6
176
     0
 90
        2
176
     0
 62
     7
176
     0
 90
        5
176
     0
 90
        0
176
     0
 90
        0
176
     0
290
     0
176
     0
 90
        1
176
     0
 40
0.0
176
     0
 90
        0
176
     0
290
     0
176
     0
290
     1
176
     0
290
     1
176
     0
290
     0
176
     0
290
     0
176
     0
290
     0
176
     0
290
     0
176
     0
290
     0
176
     0
290
     0
176
     0
 90
       50
176
     0
 40
0.0
176
     0
 40
1.0
176
     0
 90
        0
176
     0
 62
    18
420
        0
176
     0
 90
       50
176
     0
 90
        3
176
     0
 62
     5
420
      255
176
     0
290
     0
176
     0
 90
       50
176
     0
 90
       50
176
     0
 90
       50
176
     0
290
     0
176
     0
 90
       50
176
     0
 62
   256
176
     0
 40
1.0
176
     0
 90
        2
176
     0
  1
strokes_ogs.tif
176
     0
290
     0
176
     0
 40
1.0
176
     0
 40
1.0
176
     0
  0
VISUALSTYLE
  5
390
102
{ACAD_REACTORS
330
381
102
}
330
381
100
AcDbVisualStyle
  2
Facepattern
 70
    15
177
     3
291
     1
 70
    58
 90
        2
176
     1
 90
        2
176
     1
 90
        0
176
     1
 90
        0
176
     1
 40
0.6
176
     1
 40
30.0
176
     1
 62
     7
420
 16777215
176
     1
 90
        1
176
     1
 90
        4
176
     1
 62
     7
176
     1
 62
   257
176
     1
 90
        1
176
     1
 90
        1
176
     1
 40
1.0
176
     1
 90
        8
176
     1
 62
     7
176
     1
 40
1.0
176
     1
 90
        1
176
     1
 90
        6
176
     1
 90
        2
176
     1
 62
     7
176
     1
 90
        5
176
     1
 90
        0
176
     1
 90
        0
176
     1
290
     0
176
     1
 90
        1
176
     1
 40
0.0
176
     1
 90
        0
176
     1
290
     0
176
     1
290
     1
176
     1
290
     1
176
     1
290
     0
176
     1
290
     0
176
     1
290
     0
176
     1
290
     0
176
     1
290
     0
176
     1
290
     0
176
     1
 90
       50
176
     1
 40
0.0
176
     1
 40
1.0
176
     1
 90
        0
176
     1
 62
    18
420
        0
176
     1
 90
       50
176
     1
 90
        3
176
     1
 62
     5
420
      255
176
     1
290
     0
176
     1
 90
       50
176
     1
 90
       50
176
     1
 90
       50
176
     1
290
     0
176
     1
 90
       50
176
     1
 62
   256
176
     0
 40
1.0
176
     0
 90
        2
176
     1
  1
strokes_ogs.tif
176
     1
290
     0
176
     1
 40
1.0
176
     1
 40
1.0
176
     1
  0
VISUALSTYLE
  5
382
102
{ACAD_REACTORS
330
381
102
}
330
381
100
AcDbVisualStyle
  2
Flat
 70
     0
177
     3
291
     1
 70
    58
 90
        2
176
     1
 90
        1
176
     1
 90
        1
176
     1
 90
        2
176
     1
 40
0.6
176
     1
 40
30.0
176
     1
 62
     7
420
 16777215
176
     1
 90
        0
176
     1
 90
        0
176
     1
 62
     7
176
     1
 62
   257
176
     1
 90
        1
176
     1
 90
        1
176
     1
 40
1.0
176
     1
 90
        8
176
     1
 62
     7
176
     1
 40
1.0
176
     1
 90
        1
176
     1
 90
        6
176
     1
 90
        2
176
     1
 62
     7
176
     1
 90
        5
176
     1
 90
        0
176
     1
 90
        0
176
     1
290
     0
176
     1
 90
       13
176
     1
 40
0.0
176
     1
 90
        0
176
     1
290
     0
176
     1
290
     1
176
     1
290
     1
176
     1
290
     0
176
     1
290
     0
176
     1
290
     0
176
     1
290
     0
176
     1
290
     0
176
     1
290
     0
176
     1
 90
       50
176
     1
 40
0.0
176
     1
 40
1.0
176
     1
 90
        0
176
     1
 62
    18
420
        0
176
     1
 90
       50
176
     1
 90
        3
176
     1
 62
     5
420
      255
176
     1
290
     0
176
     1
 90
       50
176
     1
 90
       50
176
     1
 90
       50
176
     1
290
     0
176
     1
 90
       50
176
     1
 62
   256
176
     0
 40
1.0
176
     0
 90
        2
176
     1
  1
strokes_ogs.tif
176
     1
290
     0
176
     1
 40
1.0
176
     1
 40
1.0
176
     1
  0
VISUALSTYLE
  5
383
102
{ACAD_REACTORS
330
381
102
}
330
381
100
AcDbVisualStyle
  2
FlatWithEdges
 70
     1
177
     3
291
     1
 70
    58
 90
        2
176
     1
 90
        1
176
     1
 90
        1
176
     1
 90
        2
176
     1
 40
0.6
176
     1
 40
30.0
176
     1
 62
     7
420
 16777215
176
     1
 90
        1
176
     1
 90
        0
176
     1
 62
     7
176
     1
 62
   257
176
     1
 90
        1
176
     1
 90
        1
176
     1
 40
1.0
176
     1
 90
        0
176
     1
 62
   257
176
     1
 40
1.0
176
     1
 90
        1
176
     1
 90
        6
176
     1
 90
        2
176
     1
 62
     7
176
     1
 90
        5
176
     1
 90
        0
176
     1
 90
        0
176
     1
290
     0
176
     1
 90
       13
176
     1
 40
0.0
176
     1
 90
        0
176
     1
290
     0
176
     1
290
     1
176
     1
290
     1
176
     1
290
     0
176
     1
290
     0
176
     1
290
     0
176
     1
290
     0
176
     1
290
     0
176
     1
290
     0
176
     1
 90
       50
176
     1
 40
0.0
176
     1
 40
1.0
176
     1
 90
        0
176
     1
 62
    18
420
        0
176
     1
 90
       50
176
     1
 90
        3
176
     1
 62
     5
420
      255
176
     1
290
     0
176
     1
 90
       50
176
     1
 90
       50
176
     1
 90
       50
176
     1
290
     0
176
     1
 90
       50
176
     1
 62
   256
176
     0
 40
1.0
176
     0
 90
        2
176
     1
  1
strokes_ogs.tif
176
     1
290
     0
176
     1
 40
1.0
176
     1
 40
1.0
176
     1
  0
VISUALSTYLE
  5
384
102
{ACAD_REACTORS
330
381
102
}
330
381
100
AcDbVisualStyle
  2
Gouraud
 70
     2
177
     3
291
     1
 70
    58
 90
        2
176
     1
 90
        2
176
     1
 90
        1
176
     1
 90
        2
176
     1
 40
0.6
176
     1
 40
30.0
176
     1
 62
     7
420
 16777215
176
     1
 90
        0
176
     1
 90
        0
176
     1
 62
     7
176
     1
 62
   257
176
     1
 90
        1
176
     1
 90
        1
176
     1
 40
1.0
176
     1
 90
        0
176
     1
 62
     7
176
     1
 40
1.0
176
     1
 90
        1
176
     1
 90
        6
176
     1
 90
        2
176
     1
 62
     7
176
     1
 90
        5
176
     1
 90
        0
176
     1
 90
        0
176
     1
290
     0
176
     1
 90
       13
176
     1
 40
0.0
176
     1
 90
        0
176
     1
290
     0
176
     1
290
     1
176
     1
290
     1
176
     1
290
     0
176
     1
290
     0
176
     1
290
     0
176
     1
290
     0
176
     1
290
     0
176
     1
290
     0
176
     1
 90
       50
176
     1
 40
0.0
176
     1
 40
1.0
176
     1
 90
        0
176
     1
 62
    18
420
        0
176
     1
 90
       50
176
     1
 90
        3
176
     1
 62
     5
420
      255
176
     1
290
     0
176
     1
 90
       50
176
     1
 90
       50
176
     1
 90
       50
176
     1
290
     0
176
     1
 90
       50
176
     1
 62
   256
176
     0
 40
1.0
176
     0
 90
        2
176
     1
  1
strokes_ogs.tif
176
     1
290
     0
176
     1
 40
1.0
176
     1
 40
1.0
176
     1
  0
VISUALSTYLE
  5
385
102
{ACAD_REACTORS
330
381
102
}
330
381
100
AcDbVisualStyle
  2
GouraudWithEdges
 70
     3
177
     3
291
     1
 70
    58
 90
        2
176
     1
 90
        2
176
     1
 90
        1
176
     1
 90
        2
176
     1
 40
0.6
176
     1
 40
30.0
176
     1
 62
     7
420
 16777215
176
     1
 90
        1
176
     1
 90
        0
176
     1
 62
     7
176
     1
 62
   257
176
     1
 90
        1
176
     1
 90
        1
176
     1
 40
1.0
176
     1
 90
        0
176
     1
 62
   257
176
     1
 40
1.0
176
     1
 90
        1
176
     1
 90
        6
176
     1
 90
        2
176
     1
 62
     7
176
     1
 90
        5
176
     1
 90
        0
176
     1
 90
        0
176
     1
290
     0
176
     1
 90
       13
176
     1
 40
0.0
176
     1
 90
        0
176
     1
290
     0
176
     1
290
     1
176
     1
290
     1
176
     1
290
     0
176
     1
290
     0
176
     1
290
     0
176
     1
290
     0
176
     1
290
     0
176
     1
290
     0
176
     1
 90
       50
176
     1
 40
0.0
176
     1
 40
1.0
176
     1
 90
        0
176
     1
 62
    18
420
        0
176
     1
 90
       50
176
     1
 90
        3
176
     1
 62
     5
420
      255
176
     1
290
     0
176
     1
 90
       50
176
     1
 90
       50
176
     1
 90
       50
176
     1
290
     0
176
     1
 90
       50
176
     1
 62
   256
176
     0
 40
1.0
176
     0
 90
        2
176
     1
  1
strokes_ogs.tif
176
     1
290
     0
176
     1
 40
1.0
176
     1
 40
1.0
176
     1
  0
VISUALSTYLE
  5
388
102
{ACAD_REACTORS
330
381
102
}
330
381
100
AcDbVisualStyle
  2
Hidden
 70
     6
177
     3
291
     0
 70
    58
 90
        1
176
     1
 90
        2
176
     1
 90
        2
176
     1
 90
        0
176
     1
 40
0.6
176
     1
 40
30.0
176
     1
 62
     7
420
 16777215
176
     1
 90
        2
176
     1
 90
        2
176
     1
 62
     7
176
     1
 62
   257
176
     1
 90
        2
176
     1
 90
        1
176
     1
 40
40.0
176
     1
 90
        0
176
     1
 62
   257
176
     1
 40
1.0
176
     1
 90
        1
176
     1
 90
        6
176
     1
 90
        2
176
     1
 62
     7
176
     1
 90
        3
176
     1
 90
        0
176
     1
 90
        0
176
     1
290
     0
176
     1
 90
        1
176
     1
 40
0.0
176
     1
 90
        0
176
     1
290
     0
176
     1
290
     1
176
     1
290
     1
176
     1
290
     0
176
     1
290
     0
176
     1
290
     0
176
     1
290
     0
176
     1
290
     0
176
     1
290
     0
176
     1
 90
       50
176
     1
 40
0.0
176
     1
 40
1.0
176
     1
 90
        0
176
     1
 62
    18
420
        0
176
     1
 90
       50
176
     1
 90
        3
176
     1
 62
     5
420
      255
176
     1
290
     0
176
     1
 90
       50
176
     1
 90
       50
176
     1
 90
       50
176
     1
290
     0
176
     1
 90
       50
176
     1
 62
   256
176
     0
 40
1.0
176
     0
 90
        2
176
     1
  1
strokes_ogs.tif
176
     1
290
     0
176
     1
 40
1.0
176
     1
 40
1.0
176
     1
  0
VISUALSTYLE
  5
392
102
{ACAD_REACTORS
330
381
102
}
330
381
100
AcDbVisualStyle
  2
JitterOff
 70
    20
177
     3
291
     1
 70
    58
 90
        2
176
     0
 90
        2
176
     0
 90
        0
176
     0
 90
        0
176
     0
 40
0.6
176
     0
 40
30.0
176
     0
 62
     7
420
 16777215
176
     0
 90
        1
176
     0
 90
        4
176
     0
 62
     7
176
     0
 62
   257
176
     0
 90
        1
176
     0
 90
        1
176
     0
 40
1.0
176
     0
 90
       10
176
     2
 62
     7
176
     0
 40
1.0
176
     0
 90
        1
176
     0
 90
        6
176
     0
 90
        2
176
     0
 62
     7
176
     0
 90
        5
176
     0
 90
        0
176
     0
 90
        0
176
     0
290
     0
176
     0
 90
        1
176
     0
 40
0.0
176
     0
 90
        0
176
     0
290
     0
176
     0
290
     1
176
     0
290
     1
176
     0
290
     0
176
     0
290
     0
176
     0
290
     0
176
     0
290
     0
176
     0
290
     0
176
     0
290
     0
176
     0
 90
       50
176
     0
 40
0.0
176
     0
 40
1.0
176
     0
 90
        0
176
     0
 62
    18
420
        0
176
     0
 90
       50
176
     0
 90
        3
176
     0
 62
     5
420
      255
176
     0
290
     0
176
     0
 90
       50
176
     0
 90
       50
176
     0
 90
       50
176
     0
290
     0
176
     0
 90
       50
176
     0
 62
   256
176
     0
 40
1.0
176
     0
 90
        2
176
     0
  1
strokes_ogs.tif
176
     0
290
     0
176
     0
 40
1.0
176
     0
 40
1.0
176
     0
  0
VISUALSTYLE
  5
38F
102
{ACAD_REACTORS
330
381
102
}
330
381
100
AcDbVisualStyle
  2
Linepattern
 70
    14
177
     3
291
     1
 70
    58
 90
        2
176
     1
 90
        2
176
     1
 90
        0
176
     1
 90
        0
176
     1
 40
0.6
176
     1
 40
30.0
176
     1
 62
     7
420
 16777215
176
     1
 90
        1
176
     1
 90
        4
176
     1
 62
     7
176
     1
 62
   257
176
     1
 90
        7
176
     1
 90
        7
176
     1
 40
1.0
176
     1
 90
        8
176
     1
 62
     7
176
     1
 40
1.0
176
     1
 90
        1
176
     1
 90
        6
176
     1
 90
        2
176
     1
 62
     7
176
     1
 90
        5
176
     1
 90
        0
176
     1
 90
        0
176
     1
290
     0
176
     1
 90
        1
176
     1
 40
0.0
176
     1
 90
        0
176
     1
290
     0
176
     1
290
     1
176
     1
290
     1
176
     1
290
     0
176
     1
290
     0
176
     1
290
     0
176
     1
290
     0
176
     1
290
     0
176
     1
290
     0
176
     1
 90
       50
176
     1
 40
0.0
176
     1
 40
1.0
176
     1
 90
        0
176
     1
 62
    18
420
        0
176
     1
 90
       50
176
     1
 90
        3
176
     1
 62
     5
420
      255
176
     1
290
     0
176
     1
 90
       50
176
     1
 90
       50
176
     1
 90
       50
176
     1
290
     0
176
     1
 90
       50
176
     1
 62
   256
176
     0
 40
1.0
176
     0
 90
        2
176
     1
  1
strokes_ogs.tif
176
     1
290
     0
176
     1
 40
1.0
176
     1
 40
1.0
176
     1
  0
VISUALSTYLE
  5
393
102
{ACAD_REACTORS
330
381
102
}
330
381
100
AcDbVisualStyle
  2
OverhangOff
 70
    21
177
     3
291
     1
 70
    58
 90
        2
176
     0
 90
        2
176
     0
 90
        0
176
     0
 90
        0
176
     0
 40
0.6
176
     0
 40
30.0
176
     0
 62
     7
420
 16777215
176
     0
 90
        1
176
     0
 90
        4
176
     0
 62
     7
176
     0
 62
   257
176
     0
 90
        1
176
     0
 90
        1
176
     0
 40
1.0
176
     0
 90
        9
176
     2
 62
     7
176
     0
 40
1.0
176
     0
 90
        1
176
     0
 90
        6
176
     0
 90
        2
176
     0
 62
     7
176
     0
 90
        5
176
     0
 90
        0
176
     0
 90
        0
176
     0
290
     0
176
     0
 90
        1
176
     0
 40
0.0
176
     0
 90
        0
176
     0
290
     0
176
     0
290
     1
176
     0
290
     1
176
     0
290
     0
176
     0
290
     0
176
     0
290
     0
176
     0
290
     0
176
     0
290
     0
176
     0
290
     0
176
     0
 90
       50
176
     0
 40
0.0
176
     0
 40
1.0
176
     0
 90
        0
176
     0
 62
    18
420
        0
176
     0
 90
       50
176
     0
 90
        3
176
     0
 62
     5
420
      255
176
     0
290
     0
176
     0
 90
       50
176
     0
 90
       50
176
     0
 90
       50
176
     0
290
     0
176
     0
 90
       50
176
     0
 62
   256
176
     0
 40
1.0
176
     0
 90
        2
176
     0
  1
strokes_ogs.tif
176
     0
290
     0
176
     0
 40
1.0
176
     0
 40
1.0
176
     0
  0
VISUALSTYLE
  5
38A
102
{ACAD_REACTORS
330
381
102
}
330
381
100
AcDbVisualStyle
  2
Realistic
 70
     8
177
     3
291
     0
 70
    58
 90
        2
176
     1
 90
        3
176
     1
 90
        0
176
     1
 90
        2
176
     1
 40
0.6
176
     1
 40
30.0
176
     1
 62
     7
420
 16777215
176
     1
 90
        0
176
     1
 90
        0
176
     1
 62
     7
176
     1
 62
   257
176
     1
 90
        1
176
     1
 90
        1
176
     1
 40
1.0
176
     1
 90
        8
176
     1
 62
   257
176
     1
 40
1.0
176
     1
 90
        1
176
     1
 90
        6
176
     1
 90
        2
176
     1
 62
     7
176
     1
 90
        3
176
     1
 90
        0
176
     1
 90
        0
176
     1
290
     0
176
     1
 90
       13
176
     1
 40
0.0
176
     1
 90
        0
176
     1
290
     0
176
     1
290
     1
176
     1
290
     1
176
     1
290
     0
176
     1
290
     0
176
     1
290
     0
176
     1
290
     0
176
     1
290
     0
176
     1
290
     0
176
     1
 90
       50
176
     1
 40
0.0
176
     1
 40
1.0
176
     1
 90
        0
176
     1
 62
    18
420
        0
176
     1
 90
       50
176
     1
 90
        3
176
     1
 62
     5
420
      255
176
     1
290
     0
176
     1
 90
       50
176
     1
 90
       50
176
     1
 90
       50
176
     1
290
     0
176
     1
 90
       50
176
     1
 62
   256
176
     0
 40
1.0
176
     0
 90
        2
176
     1
  1
strokes_ogs.tif
176
     1
290
     0
176
     1
 40
1.0
176
     1
 40
1.0
176
     1
  0
VISUALSTYLE
  5
399
102
{ACAD_REACTORS
330
381
102
}
330
381
100
AcDbVisualStyle
  2
Shaded
 70
    27
177
     3
291
     0
 70
    58
 90
        2
176
     1
 90
        2
176
     1
 90
        1
176
     1
 90
        2
176
     1
 40
0.6
176
     1
 40
30.0
176
     1
 62
     7
420
 16777215
176
     1
 90
        0
176
     1
 90
        4
176
     1
 62
     7
176
     1
 62
   257
176
     1
 90
        1
176
     1
 90
        1
176
     1
 40
1.0
176
     1
 90
        8
176
     1
 62
   257
176
     1
 40
1.0
176
     1
 90
        1
176
     1
 90
        6
176
     1
 90
        2
176
     1
 62
     8
420
  7895160
176
     1
 90
        3
176
     1
 90
        0
176
     1
 90
        0
176
     1
290
     0
176
     1
 90
        5
176
     1
 40
0.0
176
     1
 90
        0
176
     1
290
     0
176
     1
290
     1
176
     1
290
     1
176
     1
290
     0
176
     1
290
     0
176
     1
290
     0
176
     1
290
     0
176
     1
290
     0
176
     1
290
     0
176
     1
 90
       50
176
     1
 40
0.0
176
     1
 40
1.0
176
     1
 90
        0
176
     1
 62
    18
420
        0
176
     1
 90
       50
176
     1
 90
        3
176
     1
 62
     5
420
      255
176
     1
290
     0
176
     1
 90
       50
176
     1
 90
       50
176
     1
 90
       50
176
     1
290
     0
176
     1
 90
       50
176
     1
 62
   256
176
     0
 40
1.0
176
     0
 90
        2
176
     1
  1
strokes_ogs.tif
176
     1
290
     0
176
     1
 40
1.0
176
     1
 40
1.0
176
     1
  0
VISUALSTYLE
  5
398
102
{ACAD_REACTORS
330
381
102
}
330
381
100
AcDbVisualStyle
  2
Shaded with edges
 70
    26
177
     3
291
     0
 70
    58
 90
        2
176
     1
 90
        2
176
     1
 90
        1
176
     1
 90
        2
176
     1
 40
0.6
176
     1
 40
30.0
176
     1
 62
     7
420
 16777215
176
     1
 90
        1
176
     1
 90
       10
176
     1
 62
     7
176
     1
 62
   257
176
     1
 90
        2
176
     1
 90
        1
176
     1
 40
1.0
176
     1
 90
        8
176
     1
 62
   257
176
     1
 40
1.0
176
     1
 90
        1
176
     1
 90
        6
176
     1
 90
        2
176
     1
 62
     7
176
     1
 90
        3
176
     1
 90
        0
176
     1
 90
        0
176
     1
290
     0
176
     1
 90
        5
176
     1
 40
0.0
176
     1
 90
        0
176
     1
290
     0
176
     1
290
     1
176
     1
290
     1
176
     1
290
     0
176
     1
290
     0
176
     1
290
     0
176
     1
290
     0
176
     1
290
     0
176
     1
290
     0
176
     1
 90
       50
176
     1
 40
0.0
176
     1
 40
1.0
176
     1
 90
        0
176
     1
 62
    18
420
        0
176
     1
 90
       50
176
     1
 90
        3
176
     1
 62
     5
420
      255
176
     1
290
     0
176
     1
 90
       50
176
     1
 90
       50
176
     1
 90
       50
176
     1
290
     0
176
     1
 90
       50
176
     1
 62
   256
176
     0
 40
1.0
176
     0
 90
        2
176
     1
  1
strokes_ogs.tif
176
     1
290
     0
176
     1
 40
1.0
176
     1
 40
1.0
176
     1
  0
VISUALSTYLE
  5
395
102
{ACAD_REACTORS
330
381
102
}
330
381
100
AcDbVisualStyle
  2
Shades of Gray
 70
    23
177
     3
291
     0
 70
    58
 90
        2
176
     1
 90
        2
176
     1
 90
        3
176
     1
 90
        0
176
     1
 40
0.6
176
     1
 40
30.0
176
     1
 62
     7
420
 16777215
176
     1
 90
        2
176
     1
 90
        2
176
     1
 62
     7
176
     1
 62
     7
176
     1
 90
        1
176
     1
 90
        1
176
     1
 40
40.0
176
     1
 90
        8
176
     1
 62
     7
176
     1
 40
1.0
176
     1
 90
        1
176
     1
 90
        6
176
     1
 90
        2
176
     1
 62
     7
176
     1
 90
        3
176
     1
 90
        0
176
     1
 90
        0
176
     1
290
     0
176
     1
 90
        1
176
     1
 40
0.0
176
     1
 90
        0
176
     1
290
     0
176
     1
290
     1
176
     1
290
     1
176
     1
290
     0
176
     1
290
     0
176
     1
290
     0
176
     1
290
     0
176
     1
290
     0
176
     1
290
     0
176
     1
 90
       50
176
     1
 40
0.0
176
     1
 40
1.0
176
     1
 90
        0
176
     1
 62
    18
420
        0
176
     1
 90
       50
176
     1
 90
        3
176
     1
 62
     5
420
      255
176
     1
290
     0
176
     1
 90
       50
176
     1
 90
       50
176
     1
 90
       50
176
     1
290
     0
176
     1
 90
       50
176
     1
 62
   256
176
     0
 40
1.0
176
     0
 90
        2
176
     1
  1
strokes_ogs.tif
176
     1
290
     0
176
     1
 40
1.0
176
     1
 40
1.0
176
     1
  0
VISUALSTYLE
  5
396
102
{ACAD_REACTORS
330
381
102
}
330
381
100
AcDbVisualStyle
  2
Sketchy
 70
    24
177
     3
291
     0
 70
    58
 90
        1
176
     1
 90
        2
176
     1
 90
        2
176
     1
 90
        0
176
     1
 40
0.6
176
     1
 40
30.0
176
     1
 62
     7
420
 16777215
176
     1
 90
        2
176
     1
 90
        2
176
     1
 62
     7
176
     1
 62
     7
176
     1
 90
        1
176
     1
 90
        1
176
     1
 40
40.0
176
     1
 90
       11
176
     1
 62
     7
176
     1
 40
1.0
176
     1
 90
        1
176
     1
 90
        6
176
     1
 90
        2
176
     1
 62
     7
176
     1
 90
        6
176
     1
 90
        0
176
     1
 90
        0
176
     1
290
     0
176
     1
 90
        1
176
     1
 40
0.0
176
     1
 90
        0
176
     1
290
     0
176
     1
290
     1
176
     1
290
     1
176
     1
290
     0
176
     1
290
     0
176
     1
290
     0
176
     1
290
     0
176
     1
290
     0
176
     1
290
     0
176
     1
 90
       50
176
     1
 40
0.0
176
     1
 40
1.0
176
     1
 90
        0
176
     1
 62
    18
420
        0
176
     1
 90
       50
176
     1
 90
        3
176
     1
 62
     5
420
      255
176
     1
290
     0
176
     1
 90
       50
176
     1
 90
       50
176
     1
 90
       50
176
     1
290
     0
176
     1
 90
       50
176
     1
 62
   256
176
     0
 40
1.0
176
     0
 90
        2
176
     1
  1
strokes_ogs.tif
176
     1
290
     0
176
     1
 40
1.0
176
     1
 40
1.0
176
     1
  0
VISUALSTYLE
  5
38E
102
{ACAD_REACTORS
330
381
102
}
330
381
100
AcDbVisualStyle
  2
Thicken
 70
    13
177
     3
291
     1
 70
    58
 90
        2
176
     1
 90
        2
176
     1
 90
        0
176
     1
 90
        0
176
     1
 40
0.6
176
     1
 40
30.0
176
     1
 62
     7
420
 16777215
176
     1
 90
        1
176
     1
 90
        4
176
     1
 62
     7
176
     1
 62
   257
176
     1
 90
        1
176
     1
 90
        1
176
     1
 40
1.0
176
     1
 90
       12
176
     1
 62
     7
176
     1
 40
1.0
176
     1
 90
        1
176
     1
 90
        6
176
     1
 90
        2
176
     1
 62
     7
176
     1
 90
        5
176
     1
 90
        0
176
     1
 90
        0
176
     1
290
     0
176
     1
 90
        1
176
     1
 40
0.0
176
     1
 90
        0
176
     1
290
     0
176
     1
290
     1
176
     1
290
     1
176
     1
290
     0
176
     1
290
     0
176
     1
290
     0
176
     1
290
     0
176
     1
290
     0
176
     1
290
     0
176
     1
 90
       50
176
     1
 40
0.0
176
     1
 40
1.0
176
     1
 90
        0
176
     1
 62
    18
420
        0
176
     1
 90
       50
176
     1
 90
        3
176
     1
 62
     5
420
      255
176
     1
290
     0
176
     1
 90
       50
176
     1
 90
       50
176
     1
 90
       50
176
     1
290
     0
176
     1
 90
       50
176
     1
 62
   256
176
     0
 40
1.0
176
     0
 90
        2
176
     1
  1
strokes_ogs.tif
176
     1
290
     0
176
     1
 40
1.0
176
     1
 40
1.0
176
     1
  0
VISUALSTYLE
  5
387
102
{ACAD_REACTORS
330
381
102
}
330
381
100
AcDbVisualStyle
  2
Wireframe
 70
     5
177
     3
291
     0
 70
    58
 90
        0
176
     1
 90
        2
176
     1
 90
        0
176
     1
 90
        0
176
     1
 40
0.6
176
     1
 40
30.0
176
     1
 62
     7
420
 16777215
176
     1
 90
        1
176
     1
 90
        4
176
     1
 62
     7
176
     1
 62
   257
176
     1
 90
        1
176
     1
 90
        1
176
     1
 40
1.0
176
     1
 90
        0
176
     1
 62
   257
176
     1
 40
1.0
176
     1
 90
        1
176
     1
 90
        6
176
     1
 90
        2
176
     1
 62
     7
176
     1
 90
        3
176
     1
 90
        0
176
     1
 90
        0
176
     1
290
     0
176
     1
 90
        1
176
     1
 40
0.0
176
     1
 90
        0
176
     1
290
     0
176
     1
290
     1
176
     1
290
     1
176
     1
290
     0
176
     1
290
     0
176
     1
290
     0
176
     1
290
     0
176
     1
290
     0
176
     1
290
     0
176
     1
 90
       50
176
     1
 40
0.0
176
     1
 40
1.0
176
     1
 90
        0
176
     1
 62
    18
420
        0
176
     1
 90
       50
176
     1
 90
        3
176
     1
 62
     5
420
      255
176
     1
290
     0
176
     1
 90
       50
176
     1
 90
       50
176
     1
 90
       50
176
     1
290
     0
176
     1
 90
       50
176
     1
 62
   256
176
     0
 40
1.0
176
     0
 90
        2
176
     1
  1
strokes_ogs.tif
176
     1
290
     0
176
     1
 40
1.0
176
     1
 40
1.0
176
     1
  0
VISUALSTYLE
  5
397
102
{ACAD_REACTORS
330
381
102
}
330
381
100
AcDbVisualStyle
  2
X-Ray
 70
    25
177
     3
291
     0
 70
    58
 90
        2
176
     1
 90
        2
176
     1
 90
        1
176
     1
 90
        1
176
     1
 40
0.5
176
     1
 40
30.0
176
     1
 62
     7
420
 16777215
176
     1
 90
        1
176
     1
 90
        0
176
     1
 62
     7
176
     1
 62
   257
176
     1
 90
        1
176
     1
 90
        1
176
     1
 40
1.0
176
     1
 90
        8
176
     1
 62
     7
176
     1
 40
1.0
176
     1
 90
        1
176
     1
 90
        6
176
     1
 90
        2
176
     1
 62
     7
176
     1
 90
        3
176
     1
 90
        0
176
     1
 90
        0
176
     1
290
     0
176
     1
 90
       13
176
     1
 40
0.0
176
     1
 90
        0
176
     1
290
     0
176
     1
290
     1
176
     1
290
     1
176
     1
290
     0
176
     1
290
     0
176
     1
290
     0
176
     1
290
     0
176
     1
290
     0
176
     1
290
     0
176
     1
 90
       50
176
     1
 40
0.0
176
     1
 40
1.0
176
     1
 90
        0
176
     1
 62
    18
420
        0
176
     1
 90
       50
176
     1
 90
        3
176
     1
 62
     5
420
      255
176
     1
290
     0
176
     1
 90
       50
176
     1
 90
       50
176
     1
 90
       50
176
     1
290
     0
176
     1
 90
       50
176
     1
 62
   256
176
     0
 40
1.0
176
     0
 90
        2
176
     1
  1
strokes_ogs.tif
176
     1
290
     0
176
     1
 40
1.0
176
     1
 40
1.0
176
     1
  0
DICTIONARYVAR
  5
456
102
{ACAD_REACTORS
330
455
102
}
330
455
100
DictionaryVariables
280
     0
  1
1:1
  0
DICTIONARYVAR
  5
45B
102
{ACAD_REACTORS
330
455
102
}
330
455
100
DictionaryVariables
280
     0
  1
Standard
  0
DICTIONARYVAR
  5
45A
102
{ACAD_REACTORS
330
455
102
}
330
455
100
DictionaryVariables
280
     0
  1
Standard
  0
XRECORD
  5
3C8
102
{ACAD_REACTORS
330
3C6
102
}
330
3C6
100
AcDbXrecord
280
     1
1000
#ffffff
  0
XRECORD
  5
3C9
102
{ACAD_REACTORS
330
3C6
102
}
330
3C6
100
AcDbXrecord
280
     1
1000
FullColor
  0
XRECORD
  5
3CA
102
{ACAD_REACTORS
330
3C6
102
}
330
3C6
100
AcDbXrecord
280
     1
290
     1
  0
XRECORD
  5
3CB
102
{ACAD_REACTORS
330
3C6
102
}
330
3C6
100
AcDbXrecord
280
     1
290
     1
  0
XRECORD
  5
3CC
102
{ACAD_REACTORS
330
3C6
102
}
330
3C6
100
AcDbXrecord
280
     1
290
     1
  0
XRECORD
  5
3CD
102
{ACAD_REACTORS
330
3C6
102
}
330
3C6
100
AcDbXrecord
280
     1
290
     1
  0
XRECORD
  5
3CE
102
{ACAD_REACTORS
330
3C6
102
}
330
3C6
100
AcDbXrecord
280
     1
1000
auto
  0
XRECORD
  5
3CF
102
{ACAD_REACTORS
330
3C6
102
}
330
3C6
100
AcDbXrecord
280
     1
1000
auto
  0
XRECORD
  5
3D0
102
{ACAD_REACTORS
330
3C6
102
}
330
3C6
100
AcDbXrecord
280
     1
1000
auto
  0
XRECORD
  5
3D1
102
{ACAD_REACTORS
330
3C6
102
}
330
3C6
100
AcDbXrecord
280
     1
1000
auto
  0
XRECORD
  5
3D2
102
{ACAD_REACTORS
330
3C6
102
}
330
3C6
100
AcDbXrecord
280
     1
1000
auto
  0
XRECORD
  5
3D3
102
{ACAD_REACTORS
330
3C6
102
}
330
3C6
100
AcDbXrecord
280
     1
1000
auto
  0
XRECORD
  5
3D4
102
{ACAD_REACTORS
330
3C6
102
}
330
3C6
100
AcDbXrecord
280
     1
1000
auto
  0
XRECORD
  5
3D5
102
{ACAD_REACTORS
330
3C6
102
}
330
3C6
100
AcDbXrecord
280
     1
1000
auto
  0
XRECORD
  5
3D6
102
{ACAD_REACTORS
330
3C6
102
}
330
3C6
100
AcDbXrecord
280
     1
290
     0
  0
XRECORD
  5
3D7
102
{ACAD_REACTORS
330
3C6
102
}
330
3C6
100
AcDbXrecord
280
     1
290
     0
  0
XRECORD
  5
3D8
102
{ACAD_REACTORS
330
3C6
102
}
330
3C6
100
AcDbXrecord
280
     1
290
     0
  0
XRECORD
  5
3D9
102
{ACAD_REACTORS
330
3C6
102
}
330
3C6
100
AcDbXrecord
280
     1
290
     0
  0
XRECORD
  5
3DA
102
{ACAD_REACTORS
330
3C6
102
}
330
3C6
100
AcDbXrecord
280
     1
 90
        0
  0
XRECORD
  5
3DB
102
{ACAD_REACTORS
330
3C6
102
}
330
3C6
100
AcDbXrecord
280
     1
 90
        0
  0
XRECORD
  5
3DC
102
{ACAD_REACTORS
330
3C6
102
}
330
3C6
100
AcDbXrecord
280
     1
 90
        0
  0
XRECORD
  5
3DD
102
{ACAD_REACTORS
330
3C6
102
}
330
3C6
100
AcDbXrecord
280
     1
 90
        0
  0
XRECORD
  5
3DE
102
{ACAD_REACTORS
330
3C6
102
}
330
3C6
100
AcDbXrecord
280
     1
1000
auto
  0
XRECORD
  5
3DF
102
{ACAD_REACTORS
330
3C6
102
}
330
3C6
100
AcDbXrecord
280
     1
1000
auto
  0
XRECORD
  5
3E0
102
{ACAD_REACTORS
330
3C6
102
}
330
3C6
100
AcDbXrecord
280
     1
1000
auto
  0
XRECORD
  5
3E1
102
{ACAD_REACTORS
330
3C6
102
}
330
3C6
100
AcDbXrecord
280
     1
1000
auto
  0
XRECORD
  5
3E2
102
{ACAD_REACTORS
330
3C6
102
}
330
3C6
100
AcDbXrecord
280
     1
1000
auto
  0
XRECORD
  5
3E3
102
{ACAD_REACTORS
330
3C6
102
}
330
3C6
100
AcDbXrecord
280
     1
1000
auto
  0
XRECORD
  5
3E4
102
{ACAD_REACTORS
330
3C6
102
}
330
3C6
100
AcDbXrecord
280
     1
1000
auto
  0
XRECORD
  5
3E5
102
{ACAD_REACTORS
330
3C6
102
}
330
3C6
100
AcDbXrecord
280
     1
1000
auto
  0
XRECORD
  5
3E6
102
{ACAD_REACTORS
330
3C6
102
}
330
3C6
100
AcDbXrecord
280
     1
 90
        1
  0
XRECORD
  5
3E7
102
{ACAD_REACTORS
330
3C6
102
}
330
3C6
100
AcDbXrecord
280
     1
 40
10.0
  0
XRECORD
  5
3E8
102
{ACAD_REACTORS
330
3C6
102
}
330
3C6
100
AcDbXrecord
280
     1
 40
10.0
  0
XRECORD
  5
3E9
102
{ACAD_REACTORS
330
3C6
102
}
330
3C6
100
AcDbXrecord
280
     1
 40
10.0
  0
XRECORD
  5
3EA
102
{ACAD_REACTORS
330
3C6
102
}
330
3C6
100
AcDbXrecord
280
     1
 40
10.0
  0
XRECORD
  5
3EB
102
{ACAD_REACTORS
330
3C6
102
}
330
3C6
100
AcDbXrecord
280
     1
290
     0
  0
XRECORD
  5
3EC
102
{ACAD_REACTORS
330
3C6
102
}
330
3C6
100
AcDbXrecord
280
     1
 90
        1
  0
XRECORD
  5
3ED
102
{ACAD_REACTORS
330
3C6
102
}
330
3C6
100
AcDbXrecord
280
     1
 40
-33.43514823810885
  0
XRECORD
  5
3EE
102
{ACAD_REACTORS
330
3C6
102
}
330
3C6
100
AcDbXrecord
280
     1
 40
-454.7733689327588
  0
XRECORD
  5
3EF
102
{ACAD_REACTORS
330
3C6
102
}
330
3C6
100
AcDbXrecord
280
     1
1000
Landscape
  0
XRECORD
  5
3F0
102
{ACAD_REACTORS
330
3C6
102
}
330
3C6
100
AcDbXrecord
280
     1
1000
841
  0
XRECORD
  5
3F1
102
{ACAD_REACTORS
330
3C6
102
}
330
3C6
100
AcDbXrecord
280
     1
1000
ISO A1
  0
XRECORD
  5
3F2
102
{ACAD_REACTORS
330
3C6
102
}
330
3C6
100
AcDbXrecord
280
     1
1000
594
  0
XRECORD
  5
3F3
102
{ACAD_REACTORS
330
3C6
102
}
330
3C6
100
AcDbXrecord
280
     1
1000
1:1
  0
XRECORD
  5
3F4
102
{ACAD_REACTORS
330
3C6
102
}
330
3C6
100
AcDbXrecord
280
     1
290
     1
  0
XRECORD
  5
3F5
102
{ACAD_REACTORS
330
3C6
102
}
330
3C6
100
AcDbXrecord
280
     1
1000
3.16.5
  0
XRECORD
  5
3F6
102
{ACAD_REACTORS
330
3C6
102
}
330
3C6
100
AcDbXrecord
280
     1
 90
        4
  0
XRECORD
  5
3F7
102
{ACAD_REACTORS
330
3C6
102
}
330
3C6
100
AcDbXrecord
280
     1
  0
XRECORD
  5
3F8
102
{ACAD_REACTORS
330
3C6
102
}
330
3C6
100
AcDbXrecord
280
     1
 40
142.4557247529097
  0
XRECORD
  5
3F9
102
{ACAD_REACTORS
330
3C6
102
}
330
3C6
100
AcDbXrecord
280
     1
 40
285.1269649744321
  0
DICTIONARY
  5
457
330
3C1
100
AcDbDictionary
280
     1
281
     1
  3
ACAD_ROUNDTRIP_2008_TABLESTYLE_CELLSTYLEMAP
360
458
  0
CELLSTYLEMAP
  5
458
102
{ACAD_REACTORS
330
457
102
}
330
457
100
AcDbCellStyleMap
 90
        3
300
CELLSTYLE
  1
TABLEFORMAT_BEGIN
 90
        5
170
     1
 91
        0
 92
    32768
 62
   257
 93
        1
300
CONTENTFORMAT
  1
CONTENTFORMAT_BEGIN
 90
        0
 91
        0
 92
        4
 93
        0
300

 40
0.0
140
1.0
 94
        5
 62
     0
340
369
144
0.25
309
CONTENTFORMAT_END
171
     1
301
MARGIN
  1
CELLMARGIN_BEGIN
 40
0.06
 40
0.06
 40
0.06
 40
0.06
 40
0.06
 40
0.06
309
CELLMARGIN_END
 94
        6
 95
        1
302
GRIDFORMAT
  1
GRIDFORMAT_BEGIN
 90
        0
 91
        1
 62
     0
 92
       -2
340
36B
 93
        0
 40
0.045
309
GRIDFORMAT_END
 95
        2
302
GRIDFORMAT
  1
GRIDFORMAT_BEGIN
 90
        0
 91
        1
 62
     0
 92
       -2
340
36B
 93
        0
 40
0.045
309
GRIDFORMAT_END
 95
        4
302
GRIDFORMAT
  1
GRIDFORMAT_BEGIN
 90
        0
 91
        1
 62
     0
 92
       -2
340
36B
 93
        0
 40
0.045
309
GRIDFORMAT_END
 95
        8
302
GRIDFORMAT
  1
GRIDFORMAT_BEGIN
 90
        0
 91
        1
 62
     0
 92
       -2
340
36B
 93
        0
 40
0.045
309
GRIDFORMAT_END
 95
       16
302
GRIDFORMAT
  1
GRIDFORMAT_BEGIN
 90
        0
 91
        1
 62
     0
 92
       -2
340
36B
 93
        0
 40
0.045
309
GRIDFORMAT_END
 95
       32
302
GRIDFORMAT
  1
GRIDFORMAT_BEGIN
 90
        0
 91
        1
 62
     0
 92
       -2
340
36B
 93
        0
 40
0.045
309
GRIDFORMAT_END
309
TABLEFORMAT_END
  1
CELLSTYLE_BEGIN
 90
        1
 91
        1
300
_TITLE
309
CELLSTYLE_END
300
CELLSTYLE
  1
TABLEFORMAT_BEGIN
 90
        5
170
     1
 91
        0
 92
        0
 62
   257
 93
        1
300
CONTENTFORMAT
  1
CONTENTFORMAT_BEGIN
 90
        0
 91
        0
 92
        4
 93
        0
300

 40
0.0
140
1.0
 94
        5
 62
     0
340
369
144
0.18
309
CONTENTFORMAT_END
171
     1
301
MARGIN
  1
CELLMARGIN_BEGIN
 40
0.06
 40
0.06
 40
0.06
 40
0.06
 40
0.06
 40
0.06
309
CELLMARGIN_END
 94
        6
 95
        1
302
GRIDFORMAT
  1
GRIDFORMAT_BEGIN
 90
        0
 91
        1
 62
     0
 92
       -2
340
36B
 93
        0
 40
0.045
309
GRIDFORMAT_END
 95
        2
302
GRIDFORMAT
  1
GRIDFORMAT_BEGIN
 90
        0
 91
        1
 62
     0
 92
       -2
340
36B
 93
        0
 40
0.045
309
GRIDFORMAT_END
 95
        4
302
GRIDFORMAT
  1
GRIDFORMAT_BEGIN
 90
        0
 91
        1
 62
     0
 92
       -2
340
36B
 93
        0
 40
0.045
309
GRIDFORMAT_END
 95
        8
302
GRIDFORMAT
  1
GRIDFORMAT_BEGIN
 90
        0
 91
        1
 62
     0
 92
       -2
340
36B
 93
        0
 40
0.045
309
GRIDFORMAT_END
 95
       16
302
GRIDFORMAT
  1
GRIDFORMAT_BEGIN
 90
        0
 91
        1
 62
     0
 92
       -2
340
36B
 93
        0
 40
0.045
309
GRIDFORMAT_END
 95
       32
302
GRIDFORMAT
  1
GRIDFORMAT_BEGIN
 90
        0
 91
        1
 62
     0
 92
       -2
340
36B
 93
        0
 40
0.045
309
GRIDFORMAT_END
309
TABLEFORMAT_END
  1
CELLSTYLE_BEGIN
 90
        2
 91
        1
300
_HEADER
309
CELLSTYLE_END
300
CELLSTYLE
  1
TABLEFORMAT_BEGIN
 90
        5
170
     1
 91
        0
 92
        0
 62
   257
 93
        1
300
CONTENTFORMAT
  1
CONTENTFORMAT_BEGIN
 90
        0
 91
        0
 92
        4
 93
        0
300

 40
0.0
140
1.0
 94
        2
 62
     0
340
369
144
0.18
309
CONTENTFORMAT_END
171
     1
301
MARGIN
  1
CELLMARGIN_BEGIN
 40
0.06
 40
0.06
 40
0.06
 40
0.06
 40
0.06
 40
0.06
309
CELLMARGIN_END
 94
        6
 95
        1
302
GRIDFORMAT
  1
GRIDFORMAT_BEGIN
 90
        0
 91
        1
 62
     0
 92
       -2
340
36B
 93
        0
 40
0.045
309
GRIDFORMAT_END
 95
        2
302
GRIDFORMAT
  1
GRIDFORMAT_BEGIN
 90
        0
 91
        1
 62
     0
 92
       -2
340
36B
 93
        0
 40
0.045
309
GRIDFORMAT_END
 95
        4
302
GRIDFORMAT
  1
GRIDFORMAT_BEGIN
 90
        0
 91
        1
 62
     0
 92
       -2
340
36B
 93
        0
 40
0.045
309
GRIDFORMAT_END
 95
        8
302
GRIDFORMAT
  1
GRIDFORMAT_BEGIN
 90
        0
 91
        1
 62
     0
 92
       -2
340
36B
 93
        0
 40
0.045
309
GRIDFORMAT_END
 95
       16
302
GRIDFORMAT
  1
GRIDFORMAT_BEGIN
 90
        0
 91
        1
 62
     0
 92
       -2
340
36B
 93
        0
 40
0.045
309
GRIDFORMAT_END
 95
       32
302
GRIDFORMAT
  1
GRIDFORMAT_BEGIN
 90
        0
 91
        1
 62
     0
 92
       -2
340
36B
 93
        0
 40
0.045
309
GRIDFORMAT_END
309
TABLEFORMAT_END
  1
CELLSTYLE_BEGIN
 90
        3
 91
        2
300
_DATA
309
CELLSTYLE_END
  0
ENDSEC
  0
EOF
